<svg width="24" height="25" viewBox="0 0 24 25" fill="none" xmlns="http://www.w3.org/2000/svg">
<rect x="0.9" y="1.4" width="22.2" height="22.2" rx="11.1" stroke="#BD1714" stroke-width="1.8"/>
<path d="M15.2629 7.98476L12 11.2476L8.73712 7.98476C8.39129 7.63893 7.83059 7.63893 7.48476 7.98476C7.13893 8.33059 7.13893 8.89129 7.48476 9.23712L10.7476 12.5L7.48476 15.7629C7.13893 16.1087 7.13893 16.6694 7.48476 17.0152C7.83059 17.3611 8.39129 17.3611 8.73711 17.0152L12 13.7524L15.2629 17.0152C15.6087 17.3611 16.1694 17.3611 16.5152 17.0152C16.8611 16.6694 16.8611 16.1087 16.5152 15.7629L13.2524 12.5L16.5152 9.23712C16.8611 8.89129 16.8611 8.33059 16.5152 7.98476C16.1694 7.63893 15.6087 7.63893 15.2629 7.98476Z" fill="#BD1714" stroke="#BD1714" stroke-width="0.2"/>
</svg>
