<svg width="16" height="7" viewBox="0 0 16 7" fill="none" xmlns="http://www.w3.org/2000/svg">
<path d="M15.8115 1.86862L13.9803 0.181124C13.9377 0.143624 13.889 0.106124 13.8343 0.0811242C13.597 -0.0688758 13.2807 -0.0126258 13.0982 0.206124C12.502 0.924874 10.3605 3.28112 8.00006 3.28112C5.63352 3.28112 3.49815 0.931124 2.90196 0.206124C2.80462 0.0873742 2.66469 0.0123742 2.50652 -0.000125792C2.35443 -0.0126258 2.20234 0.0373742 2.08675 0.137374C2.0685 0.149874 2.05633 0.162374 2.03808 0.174874L0.2069 1.86237C-0.0303621 2.08112 -0.0607804 2.44987 0.133896 2.69362C0.243402 2.83112 0.407661 2.91237 0.578003 2.91237C0.717927 2.91237 0.857851 2.85612 0.961273 2.76237L2.28142 1.54987C2.35443 1.48112 2.46393 1.48737 2.53694 1.56237C2.92021 1.97487 3.32781 2.35612 3.73542 2.69362C3.80842 2.75612 3.82667 2.86237 3.77192 2.94362L2.70728 4.58112C2.53085 4.85612 2.60386 5.22487 2.86546 5.40612C2.96279 5.46862 3.0723 5.50612 3.18789 5.50612C3.38257 5.50612 3.55899 5.40612 3.6685 5.24362L4.72097 3.61862C4.77572 3.53737 4.87914 3.51237 4.96431 3.56237C5.7126 3.99987 6.45481 4.28112 7.18485 4.40612C7.2761 4.41862 7.34302 4.49987 7.34302 4.59362V6.36237C7.34302 6.69362 7.59245 6.96862 7.90272 6.97487C7.9088 6.97487 7.91488 6.97487 7.92097 6.97487C8.07306 6.97487 8.21298 6.91862 8.32249 6.80612C8.43808 6.69362 8.49891 6.54362 8.49891 6.38112V4.60612C8.49891 4.51237 8.56583 4.43112 8.66317 4.41862C9.35063 4.32487 10.0624 4.08112 10.7681 3.69987C10.8533 3.64987 10.9628 3.68112 11.0115 3.76862L11.9788 5.41237C12.0822 5.58737 12.2708 5.69987 12.4715 5.69987C12.5993 5.69987 12.721 5.65612 12.8244 5.57487C13.0556 5.39362 13.1164 5.04987 12.9582 4.78737L11.9788 3.11862C11.9301 3.03737 11.9483 2.93112 12.0274 2.87487C12.5202 2.49362 13.0069 2.04362 13.4693 1.54987C13.5362 1.47487 13.6518 1.47487 13.7248 1.53737L15.051 2.76237C15.1544 2.86237 15.2944 2.91237 15.4343 2.91237C15.6046 2.91237 15.7689 2.83112 15.8784 2.69362C16.0791 2.46237 16.0426 2.08737 15.8115 1.86862Z" fill="#9F9D9B"/>
</svg>
