<svg width="17" height="20" viewBox="0 0 17 20" fill="none" xmlns="http://www.w3.org/2000/svg">
<path d="M2.61538 19.5C1.88887 19.5 1.27136 19.2475 0.762825 18.7427C0.254275 18.2379 0 17.625 0 16.9038V3.11538C0 2.38888 0.254275 1.77136 0.762825 1.26283C1.27136 0.754275 1.88887 0.5 2.61538 0.5H13.3077V15.8077H2.61538C2.30639 15.8077 2.04325 15.9125 1.82595 16.1223C1.60863 16.3321 1.49997 16.592 1.49997 16.9021C1.49997 17.2122 1.60863 17.4727 1.82595 17.6836C2.04325 17.8945 2.30639 18 2.61538 18H15.5V2.5H17V19.5H2.61538ZM5.19225 14.3077H11.8077V1.99998H5.19225V14.3077ZM3.6923 14.3077V1.99998H2.61538C2.29934 1.99998 2.03443 2.10863 1.82065 2.32595C1.60687 2.54325 1.49997 2.80639 1.49997 3.11538V14.5981C1.67306 14.516 1.84992 14.4471 2.03058 14.3914C2.21124 14.3356 2.40617 14.3077 2.61538 14.3077H3.6923Z" fill="#9F9D9B"/>
</svg>
