<svg width="19" height="18" viewBox="0 0 19 18" fill="none" xmlns="http://www.w3.org/2000/svg">
<path d="M1.8077 17.5C1.30257 17.5 0.875 17.325 0.525 16.975C0.175 16.625 0 16.1974 0 15.6923V2.3077C0 1.80257 0.175 1.375 0.525 1.025C0.875 0.675 1.30257 0.5 1.8077 0.5H17.1923C17.6974 0.5 18.125 0.675 18.475 1.025C18.825 1.375 19 1.80257 19 2.3077V15.6923C19 16.1974 18.825 16.625 18.475 16.975C18.125 17.325 17.6974 17.5 17.1923 17.5H1.8077ZM1.8077 16H17.1923C17.2692 16 17.3397 15.9679 17.4038 15.9038C17.4679 15.8397 17.5 15.7692 17.5 15.6923V2.3077C17.5 2.23077 17.4679 2.16024 17.4038 2.09613C17.3397 2.03203 17.2692 1.99998 17.1923 1.99998H1.8077C1.73077 1.99998 1.66024 2.03203 1.59613 2.09613C1.53202 2.16024 1.49998 2.23077 1.49998 2.3077V15.6923C1.49998 15.7692 1.53202 15.8397 1.59613 15.9038C1.66024 15.9679 1.73077 16 1.8077 16ZM3.88463 13.6153H15.1153V12.1154H3.88463V13.6153ZM3.88463 9.74995H7.5769V4.38463H3.88463V9.74995ZM9.76923 9.74995H15.1153V8.25H9.76923V9.74995ZM9.76923 5.88458H15.1153V4.38463H9.76923V5.88458Z" fill="#9F9D9B"/>
</svg>
