<svg width="24" height="24" viewBox="0 0 24 24" fill="none" xmlns="http://www.w3.org/2000/svg">
<circle cx="12" cy="12" r="12" fill="#D9FFCC"/>
<path d="M12 4.5C10.5166 4.5 9.06659 4.93987 7.83323 5.76398C6.59986 6.58809 5.63856 7.75943 5.07091 9.12987C4.50325 10.5003 4.35472 12.0083 4.64411 13.4632C4.9335 14.918 5.64781 16.2544 6.6967 17.3033C7.7456 18.3522 9.08197 19.0665 10.5368 19.3559C11.9917 19.6453 13.4997 19.4967 14.8701 18.9291C16.2406 18.3614 17.4119 17.4001 18.236 16.1668C19.0601 14.9334 19.5 13.4834 19.5 12C19.4962 10.012 18.7048 8.10661 17.2991 6.70091C15.8934 5.29521 13.988 4.50381 12 4.5ZM15.5697 10.6875L11.3438 14.726C11.2345 14.8287 11.0899 14.8855 10.9399 14.8846C10.8666 14.8857 10.7938 14.8722 10.7257 14.845C10.6576 14.8177 10.5956 14.7773 10.5433 14.726L8.43029 12.7067C8.37168 12.6556 8.32402 12.5931 8.29017 12.5231C8.25631 12.4531 8.23697 12.377 8.23329 12.2993C8.22962 12.2216 8.24169 12.1439 8.26878 12.071C8.29587 11.9981 8.33742 11.9315 8.39094 11.875C8.44446 11.8186 8.50883 11.7736 8.5802 11.7426C8.65156 11.7117 8.72844 11.6955 8.80622 11.6951C8.88399 11.6946 8.96106 11.7099 9.03278 11.74C9.1045 11.7701 9.16939 11.8144 9.22356 11.8702L10.9399 13.5072L14.7764 9.85096C14.8886 9.75309 15.0343 9.70237 15.183 9.70941C15.3317 9.71644 15.4719 9.78069 15.5744 9.88871C15.6768 9.99673 15.7335 10.1402 15.7326 10.289C15.7318 10.4379 15.6734 10.5807 15.5697 10.6875Z" fill="#42C72C"/>
</svg>
