<svg viewBox="0 0 16 16" fill="none" xmlns="http://www.w3.org/2000/svg">
<path d="M7.99074 12.7287C8.23119 12.7287 8.43427 12.6457 8.6 12.4797C8.76571 12.3137 8.84857 12.1104 8.84857 11.87C8.84857 11.6295 8.76556 11.4265 8.59954 11.2607C8.43352 11.095 8.23028 11.0122 7.98983 11.0122C7.74938 11.0122 7.5463 11.0952 7.38059 11.2612C7.21486 11.4272 7.132 11.6304 7.132 11.8709C7.132 12.1113 7.21501 12.3144 7.38103 12.4802C7.54705 12.6459 7.75029 12.7287 7.99074 12.7287ZM7.42398 9.11389C7.38767 9.4435 7.66315 9.71335 7.99476 9.71335C8.32027 9.71335 8.57608 9.45148 8.63756 9.13183C8.66764 8.97548 8.70909 8.83815 8.76194 8.71983C8.87259 8.47207 9.14115 8.1436 9.5676 7.73442C9.93791 7.3641 10.2216 7.02213 10.4186 6.7085C10.6156 6.39487 10.7142 6.02449 10.7142 5.59736C10.7142 4.87255 10.4537 4.30636 9.9328 3.89879C9.41189 3.49124 8.79569 3.28746 8.08421 3.28746C7.38139 3.28746 6.79974 3.47505 6.33928 3.85022C6.03995 4.09411 5.79639 4.36616 5.60861 4.6664C5.44097 4.93444 5.58976 5.27034 5.88318 5.38806C6.18556 5.50938 6.52737 5.35208 6.71781 5.08771C6.78935 4.98839 6.87073 4.89006 6.96193 4.79271C7.21026 4.52765 7.57895 4.39513 8.06802 4.39513C8.56573 4.39513 8.93362 4.53144 9.17167 4.80405C9.40973 5.07666 9.52876 5.37653 9.52876 5.70366C9.52876 5.98975 9.44725 6.25155 9.28421 6.48907C9.12119 6.72659 8.91337 6.95601 8.66074 7.17735C8.10798 7.67613 7.75872 8.07397 7.61297 8.37086C7.52088 8.55843 7.45789 8.80611 7.42398 9.11389ZM8.00141 16C6.89494 16 5.85491 15.79 4.88132 15.3701C3.90772 14.9502 3.06082 14.3803 2.34064 13.6604C1.62044 12.9405 1.05028 12.094 0.63017 11.1208C0.210057 10.1477 0 9.10788 0 8.00141C0 6.89494 0.209966 5.85491 0.629896 4.88132C1.04983 3.90772 1.61972 3.06082 2.33958 2.34064C3.05946 1.62044 3.90598 1.05028 4.87915 0.630171C5.8523 0.210058 6.89212 0 7.99859 0C9.10506 0 10.1451 0.209966 11.1187 0.629897C12.0923 1.04983 12.9392 1.61972 13.6594 2.33959C14.3796 3.05946 14.9497 3.90598 15.3698 4.87915C15.7899 5.8523 16 6.89212 16 7.99859C16 9.10506 15.79 10.1451 15.3701 11.1187C14.9502 12.0923 14.3803 12.9392 13.6604 13.6594C12.9405 14.3796 12.094 14.9497 11.1208 15.3698C10.1477 15.7899 9.10788 16 8.00141 16ZM8 14.7369C9.88071 14.7369 11.4737 14.0842 12.779 12.779C14.0842 11.4737 14.7369 9.88071 14.7369 8C14.7369 6.11929 14.0842 4.52631 12.779 3.22104C11.4737 1.91577 9.88071 1.26314 8 1.26314C6.11929 1.26314 4.52631 1.91577 3.22104 3.22104C1.91577 4.52631 1.26314 6.11929 1.26314 8C1.26314 9.88071 1.91577 11.4737 3.22104 12.779C4.52631 14.0842 6.11929 14.7369 8 14.7369Z" fill="#9F9D9B"/>
</svg>
