<svg width="20" height="23" viewBox="0 0 20 23" fill="none" xmlns="http://www.w3.org/2000/svg">
<path fill-rule="evenodd" clip-rule="evenodd" d="M10.0003 0C5.58188 -2.50339e-06 2.0003 3.58259 2.0003 8.00074V10.8268L0.620326 14.6907C0.470304 15.1107 0.339255 15.4776 0.25518 15.7841C0.168228 16.1012 0.0999782 16.458 0.151695 16.8375C0.261463 17.6431 0.756082 18.345 1.47778 18.7193C1.81781 18.8956 2.17681 18.9514 2.50462 18.9761C2.82158 19 3.21119 19 3.6572 19L6.00029 19C6.00029 21.2091 7.79115 23 10.0003 23C12.2094 23 14.0003 21.2091 14.0003 19L16.3434 19C16.7894 19 17.179 19 17.496 18.9761C17.8238 18.9514 18.1828 18.8956 18.5228 18.7193C19.2445 18.345 19.7391 17.6431 19.8489 16.8375C19.9006 16.458 19.8324 16.1012 19.7454 15.7841C19.6613 15.4776 19.5303 15.1107 19.3802 14.6906L18.0003 10.8268V8.00074C18.0003 3.5826 14.4187 2.5034e-06 10.0003 0ZM12.0003 19H8.00029C8.00029 20.1046 8.89572 21 10.0003 21C11.1049 21 12.0003 20.1046 12.0003 19ZM16.3075 17C16.7999 17 17.113 16.9993 17.3454 16.9818C17.5344 16.9675 17.5963 16.9458 17.604 16.9428C17.7472 16.8677 17.8454 16.7279 17.8672 16.5675C17.8649 16.5845 17.8777 16.5357 17.8166 16.3131C17.755 16.0883 17.6503 15.7933 17.4847 15.3296L16.0664 11.3584C16.0255 11.2438 16.0003 11.1159 16.0003 10.9776V8.00074C16.0003 4.68689 13.3139 2 10.0003 2C6.68673 2 4.0003 4.68689 4.0003 8.00074V10.9776C4.0003 11.1159 3.97507 11.2438 3.93415 11.3584L2.51588 15.3296C2.35027 15.7933 2.24561 16.0883 2.18395 16.3131C2.13383 16.4959 2.13349 16.5615 2.13369 16.5697C2.15613 16.7292 2.25401 16.8681 2.39663 16.9428C2.40427 16.9458 2.46618 16.9675 2.65515 16.9818C2.88761 16.9993 3.20066 17 3.69306 17H16.3075Z" fill="white"/>
</svg>
