<svg width="17" height="16" viewBox="0 0 17 16" fill="none" xmlns="http://www.w3.org/2000/svg">
<path d="M4.75769 2.98647L8.47554 2.98647C9.02546 2.98644 9.52034 2.98641 9.93208 3.02005C10.373 3.05608 10.8415 3.13762 11.3007 3.37159C11.9656 3.71035 12.5061 4.2509 12.8449 4.91576C13.0789 5.37496 13.1604 5.84346 13.1964 6.28439C13.2301 6.69612 13.23 7.19097 13.23 7.74088V11.659C13.23 11.8477 13.23 12.03 13.2287 12.2045C13.3043 12.1349 13.375 12.0596 13.4402 11.9791C13.7606 11.5835 13.884 11.0028 14.1308 9.84144L14.9243 6.10873C15.1711 4.94733 15.2946 4.36663 15.1628 3.875C15.0469 3.44254 14.7971 3.05787 14.4492 2.77611C14.0536 2.4558 13.4729 2.33237 12.3115 2.08551L8.57884 1.2921C7.41744 1.04523 6.83675 0.921802 6.34511 1.05354C5.91265 1.16941 5.52798 1.41922 5.24622 1.76716C5.02443 2.04105 4.89703 2.40372 4.75769 2.98647Z" fill="#9F9D9B"/>
<path fill-rule="evenodd" clip-rule="evenodd" d="M1.44738 5.55723C1.21631 6.01073 1.21631 6.60441 1.21631 7.79175V11.6079C1.21631 12.7952 1.21631 13.3889 1.44738 13.8424C1.65064 14.2413 1.97497 14.5656 2.37388 14.7689C2.82738 14.9999 3.42106 14.9999 4.6084 14.9999H8.4245C9.61184 14.9999 10.2055 14.9999 10.659 14.7689C11.0579 14.5656 11.3823 14.2413 11.5855 13.8424C11.8166 13.3889 11.8166 12.7952 11.8166 11.6079V7.79175C11.8166 6.60441 11.8166 6.01073 11.5855 5.55723C11.3823 5.15832 11.0579 4.83399 10.659 4.63073C10.2055 4.39966 9.61184 4.39966 8.4245 4.39966H4.6084C3.42106 4.39966 2.82738 4.39966 2.37388 4.63073C1.97497 4.83399 1.65064 5.15832 1.44738 5.55723ZM2.8253 6.44601C2.71631 6.65992 2.71631 6.93995 2.71631 7.5V11.9003C2.71631 12.4603 2.71631 12.7404 2.8253 12.9543C2.92118 13.1424 3.07416 13.2954 3.26232 13.3913C3.47623 13.5003 3.75626 13.5003 4.31631 13.5003H8.71659C9.27664 13.5003 9.55667 13.5003 9.77058 13.3913C9.95875 13.2954 10.1117 13.1424 10.2076 12.9543C10.3166 12.7404 10.3166 12.4603 10.3166 11.9003V7.5C10.3166 6.93995 10.3166 6.65992 10.2076 6.44601C10.1117 6.25785 9.95875 6.10487 9.77058 6.00899C9.55667 5.9 9.27664 5.9 8.71659 5.9H4.31631C3.75626 5.9 3.47623 5.9 3.26232 6.00899C3.07416 6.10487 2.92118 6.25785 2.8253 6.44601Z" fill="#9F9D9B"/>
</svg>
