<svg width="19" height="16" viewBox="0 0 19 16" fill="none" xmlns="http://www.w3.org/2000/svg">
<path d="M9.46979 15.75C9.1761 15.9063 8.82392 15.9063 8.53024 15.75L3.00512 12.8098C2.6788 12.6362 2.47489 12.2967 2.47489 11.927V7.1943L0.649465 6.21669C-0.0550789 5.83938 -0.054207 4.8289 0.650987 4.4528L8.52942 0.25098C8.82354 0.0941175 9.17648 0.0941175 9.4706 0.25098L18.4706 5.05097C18.7964 5.22477 19 5.56401 19 5.93333V11.6537C19 12.0695 18.6629 12.4066 18.2471 12.4066C17.8313 12.4066 17.4942 12.0695 17.4942 11.6537V6.15033L15.5251 7.1943V11.927C15.5251 12.2967 15.3212 12.6362 14.9949 12.8098L9.46979 15.75ZM8.53178 8.724C8.82465 8.8792 9.17538 8.8792 9.46824 8.724L15.8668 5.33333L9.00001 1.69453L2.13317 5.33333L8.53178 8.724ZM8.53239 14.0732C8.82493 14.228 9.17509 14.228 9.46763 14.0732L14.0194 11.6653V7.98107L9.47154 10.4128C9.17692 10.5703 8.8231 10.5703 8.52849 10.4128L3.98067 7.98107V11.6653L8.53239 14.0732Z" fill="#9F9D9B"/>
</svg>
