<svg width="24" height="32" viewBox="0 0 24 32" fill="none" xmlns="http://www.w3.org/2000/svg">
<path d="M13.1119 0.399902L11.9601 1.67691L10.8074 0.399902L10.8951 2.11748L9.17871 2.02969L10.4549 3.18232L9.17871 4.33496L10.8951 4.24717L10.8074 5.96474L11.9593 4.68774L13.1111 5.96474L13.0234 4.24717L14.7398 4.33496L13.4637 3.18232L14.7398 2.02969L13.0234 2.11748L13.1119 0.399902Z" fill="white"/>
<path d="M23.2172 18.7809C23.2148 13.3462 23.2164 8.16092 23.2164 8.16092C23.2164 8.16092 23.2164 7.90487 23.2164 7.69759C23.2164 7.6472 23.2164 7.59842 23.2164 7.55859C21.3448 7.55859 16.6716 7.55859 11.9991 7.55859C7.43394 7.55859 2.87036 7.55859 0.917556 7.55859C0.871254 7.55859 0.825765 7.55859 0.782712 7.55859C0.782712 7.76343 0.782712 8.16092 0.782712 8.16092C0.782712 8.16092 0.784337 13.3462 0.7819 18.7809C0.781088 19.8181 0.781088 20.8651 0.780275 21.8869C0.779463 22.8477 1.04265 23.7256 1.5276 24.5457C1.88177 25.1448 2.37566 25.6228 2.87198 26.0983C3.1831 26.3966 3.50153 26.6836 3.82564 26.9616C6.16673 28.9669 8.82868 30.4495 11.7295 31.5453C11.8196 31.5794 11.909 31.5957 11.9983 31.5989V31.5997C11.9991 31.5997 12 31.5997 12 31.5997C12.0008 31.5997 12.0016 31.5997 12.0016 31.5997V31.5989C12.0909 31.5949 12.1795 31.5794 12.2705 31.5453C15.1712 30.4504 17.8332 28.9677 20.1743 26.9616C20.4984 26.6836 20.8168 26.3966 21.1279 26.0983C21.6242 25.6236 22.1181 25.1456 22.4723 24.5457C22.9573 23.7256 23.2204 22.8477 23.2196 21.8869C23.2188 20.8651 23.218 19.8181 23.2172 18.7809ZM20.8729 23.5979C20.6413 23.9897 20.236 24.3783 19.8437 24.753C19.5236 25.0595 19.1914 25.3521 18.8534 25.6382L12 18.7801V29.6546C9.35262 28.6141 7.09764 27.29 5.14646 25.6382L12 18.7801H2.64047C2.6421 14.9694 2.64129 11.2815 2.64129 9.4176H2.64372L12 18.7801V9.41842H21.3562L12 18.7809H21.3594C21.3594 19.819 21.3602 20.8659 21.3611 21.8877C21.3611 22.4827 21.2018 23.0419 20.8729 23.5979Z" fill="white"/>
</svg>
