<svg width="16" height="16" viewBox="0 0 16 16" fill="none" xmlns="http://www.w3.org/2000/svg">
<path d="M9.12936 7.97675L15.7656 1.35048C15.8931 1.19513 15.9583 0.997906 15.9484 0.797177C15.9386 0.596448 15.8544 0.406562 15.7123 0.264455C15.5702 0.122347 15.3803 0.0381776 15.1796 0.0283191C14.9788 0.0184606 14.7816 0.0836174 14.6263 0.211116L8 6.84738L1.37373 0.211116C1.21838 0.0836174 1.02116 0.0184606 0.820429 0.0283191C0.6197 0.0381776 0.429815 0.122347 0.287707 0.264455C0.145599 0.406562 0.0614298 0.596448 0.0515713 0.797177C0.0417127 0.997906 0.10687 1.19513 0.234368 1.35048L6.87064 7.97675L0.234368 14.603C0.0842274 14.7546 0 14.9593 0 15.1727C0 15.3861 0.0842274 15.5908 0.234368 15.7424C0.387194 15.8902 0.591462 15.9728 0.804048 15.9728C1.01663 15.9728 1.2209 15.8902 1.37373 15.7424L8 9.10611L14.6263 15.7424C14.7791 15.8902 14.9834 15.9728 15.196 15.9728C15.4085 15.9728 15.6128 15.8902 15.7656 15.7424C15.9158 15.5908 16 15.3861 16 15.1727C16 14.9593 15.9158 14.7546 15.7656 14.603L9.12936 7.97675Z" fill="#73716E"/>
</svg>
