<svg width="14" height="16" viewBox="0 0 14 16" fill="none" xmlns="http://www.w3.org/2000/svg">
<path fill-rule="evenodd" clip-rule="evenodd" d="M10.5648 11.3536C10.7722 11.3536 10.9384 11.3299 11.0095 11.2943V10.4583H10.393V9.75283H11.8809V11.8576C11.6024 11.9524 11.0747 12.0828 10.547 12.0828C9.81765 12.0828 9.28975 11.8991 8.92233 11.5432C8.5549 11.1995 8.35318 10.6778 8.3591 10.0909C8.3648 8.76269 9.33146 8.00391 10.6419 8.00391C11.1577 8.00391 11.5547 8.10465 11.7505 8.1997L11.5609 8.92293C11.3412 8.82811 11.0685 8.75084 10.6298 8.75084C9.87668 8.75084 9.30776 9.17776 9.30776 10.0435C9.30822 10.8674 9.8238 11.3536 10.5648 11.3536ZM5.09921 8.09873V12.0415L5.9943 12.0417V10.6128C6.07749 10.6247 6.18417 10.6306 6.30269 10.6306C6.83651 10.6306 7.29261 10.5 7.60123 10.2096C7.83828 9.98419 7.96865 9.65232 7.96865 9.26096C7.96865 8.86937 7.79656 8.5375 7.54174 8.336C7.27505 8.12266 6.87777 8.01576 6.32047 8.01576C5.7691 8.01576 5.37797 8.05132 5.09921 8.09873ZM2.36629 11.2825L2.26554 12.0119C2.44356 12.0711 2.71617 12.1067 2.92359 12.1069C3.8009 12.1069 4.34634 11.7096 4.34634 10.5713V8.04562H3.44532V10.5595C3.44532 11.182 3.20805 11.3538 2.82854 11.3538C2.65075 11.3538 2.49074 11.3242 2.36629 11.2825ZM6.29593 8.75456C6.77178 8.75456 7.04087 8.95645 7.04087 9.29462C7.04087 9.67073 6.72797 9.89422 6.2206 9.89422C6.08268 9.89422 5.98256 9.88877 5.9012 9.87242V8.78747C5.97028 8.77112 6.1017 8.75456 6.29593 8.75456ZM13.4686 4.67797L8.08461 0.170051C8.0116 0.0970482 7.9021 0.0605469 7.79259 0.0605469H2.04363C1.13109 0.0605469 0.382812 0.918329 0.382812 1.97687V14.0223C0.382812 15.0809 1.13109 15.9387 2.04363 15.9387H11.9538C12.8663 15.9387 13.6146 15.0809 13.6146 14.0223V5.02474C13.6328 4.89698 13.5598 4.76923 13.4686 4.67797ZM12.7203 14.0223C12.7203 14.5699 12.3735 15.0261 11.972 15.0261H2.04363C1.64211 15.0261 1.29535 14.5699 1.29535 14.0223V12.8725H12.702V14.0223H12.7203ZM12.7203 7.06881H1.3136V1.97687C1.3136 1.42935 1.66036 0.973082 2.06188 0.973082H7.46408C7.46408 3.36194 9.40064 5.2985 11.7895 5.2985H12.7203V7.06881Z" fill="#2E2B26"/>
</svg>
