<svg width="17" height="21" viewBox="0 0 17 21" fill="none" xmlns="http://www.w3.org/2000/svg">
<path d="M8.49998 20.8085C7.33844 19.7842 6.03076 18.9896 4.57693 18.4249C3.12308 17.8601 1.59743 17.5521 0 17.5008V7.32782C1.60642 7.37268 3.14135 7.7073 4.6048 8.33167C6.06825 8.95603 7.36664 9.79193 8.49998 10.8393C9.63331 9.79193 10.9317 8.95603 12.3952 8.33167C13.8586 7.7073 15.3935 7.37268 17 7.32782V17.5008C15.3923 17.5521 13.8641 17.8601 12.4154 18.4249C10.9666 18.9896 9.66151 19.7842 8.49998 20.8085ZM8.49998 18.8816C9.54998 18.1047 10.6666 17.4815 11.85 17.0121C13.0333 16.5427 14.25 16.2325 15.5 16.0816V8.98932C14.2384 9.20599 13.017 9.63547 11.8356 10.2778C10.6541 10.9201 9.54228 11.7624 8.49998 12.8047C7.45768 11.7624 6.34582 10.9201 5.1644 10.2778C3.983 9.63547 2.76153 9.20599 1.49997 8.98932V16.0816C2.74997 16.2325 3.96664 16.5427 5.14998 17.0121C6.33331 17.4815 7.44998 18.1047 8.49998 18.8816ZM8.49998 7.78932C7.50576 7.78932 6.65464 7.43531 5.94663 6.72729C5.23863 6.01929 4.88462 5.16819 4.88462 4.17397C4.88462 3.17974 5.23863 2.32862 5.94663 1.62062C6.65464 0.912601 7.50576 0.558594 8.49998 0.558594C9.49419 0.558594 10.3453 0.912601 11.0533 1.62062C11.7613 2.32862 12.1153 3.17974 12.1153 4.17397C12.1153 5.16819 11.7613 6.01929 11.0533 6.72729C10.3453 7.43531 9.49419 7.78932 8.49998 7.78932ZM8.50033 6.28934C9.08214 6.28934 9.5801 6.08218 9.9942 5.66784C10.4083 5.25353 10.6154 4.75545 10.6154 4.17362C10.6154 3.59178 10.4082 3.09382 9.99388 2.67972C9.57954 2.26562 9.08146 2.05857 8.49963 2.05857C7.91781 2.05857 7.41985 2.26574 7.00575 2.68007C6.59163 3.0944 6.38458 3.59248 6.38458 4.17429C6.38458 4.75613 6.59174 5.25409 7.00608 5.66819C7.42041 6.08229 7.91849 6.28934 8.50033 6.28934Z" fill="#9F9D9B"/>
</svg>
