<svg width="24" height="22" viewBox="0 0 24 22" fill="none" xmlns="http://www.w3.org/2000/svg">
<path d="M15.9771 21.9617C15.5314 21.9617 15.1543 21.5791 15.12 21.0818C15.12 20.5844 15.4629 20.1635 15.9086 20.1253C15.9429 20.1253 15.9429 20.1253 15.9771 20.1253H17.7257C19.2 20.1253 20.4 18.8244 20.4 17.1792V12.8559H17.52V14.0802C17.52 15.6106 16.4229 16.8349 15.0514 16.8349H9.01714C7.64571 16.8349 6.54857 15.6106 6.54857 14.0802V12.8559H3.66857V17.2175C3.70286 18.8627 4.86857 20.1635 6.34286 20.1635H8.12571C8.57143 20.1635 8.94857 20.5461 8.98286 21.0435C8.98286 21.5409 8.64 21.9617 8.19429 22C8.16 22 8.16 22 8.12571 22H6.34286C3.97714 22 2.02286 19.8957 1.98857 17.2558V12.8559H0.822857C0.377143 12.8559 0 12.435 0 11.9376C0 11.4402 0.377143 11.0194 0.822857 11.0194H23.1771C23.6229 11.0194 24 11.4402 24 11.9376C24 12.435 23.6229 12.8559 23.1771 12.8559H22.0114V17.1792C21.9771 19.8192 20.0229 21.9617 17.6571 21.9235H15.9771V21.9617ZM6.82286 9.1829C6.65143 9.1829 6.54857 9.02986 6.51429 8.83856V7.30816C6.51429 5.77776 7.61143 4.55344 8.98286 4.55344H15.0171C16.3886 4.55344 17.4857 5.77776 17.4857 7.30816V8.83856C17.4857 9.02986 17.3486 9.14464 17.1771 9.1829H6.82286ZM20.4 7.04034V4.783C20.4 3.13782 19.1657 1.83698 17.7257 1.83698H15.9771C15.5314 1.83698 15.1543 1.45438 15.1543 0.918745C15.1543 0.421365 15.5314 0.000504563 15.9771 0.000504563H17.7257C20.0914 -0.0377554 22.0457 2.1048 22.08 4.74474V7.00208C22.08 7.49946 21.7029 7.92032 21.2571 7.92032C20.7771 7.95858 20.4 7.57598 20.4 7.04034ZM2.02286 7.04034V4.783C2.05714 2.14306 3.97714 0.00050471 6.37714 0.0387647H8.16C8.60571 0.0387647 8.98286 0.459624 8.98286 0.957004C8.98286 1.45438 8.60571 1.87524 8.16 1.87524H6.37714C4.90286 1.87524 3.70286 3.17608 3.70286 4.82126V7.0786C3.70286 7.57598 3.32571 7.99684 2.88 7.99684C2.36571 7.95858 1.98857 7.57598 2.02286 7.04034Z" fill="white"/>
</svg>
