<svg width="10" height="14" viewBox="0 0 10 14" fill="none" xmlns="http://www.w3.org/2000/svg">
<path d="M5 0.95C2.49231 0.95 0.45 2.94533 0.45 5.4C0.45 7.09334 1.46859 8.93373 2.5008 10.3658C3.53465 11.8001 4.58986 12.8351 4.67676 12.9195C4.76635 13.0066 4.88336 13.05 5 13.05C5.11664 13.05 5.23365 13.0066 5.32324 12.9195C5.41014 12.8351 6.46535 11.8001 7.4992 10.3658C8.53141 8.93373 9.55 7.09334 9.55 5.4C9.55 2.94533 7.50769 0.95 5 0.95ZM7.14162 9.27245C6.35836 10.4558 5.4667 11.4536 4.99997 11.9481C4.53287 11.454 3.64123 10.4569 2.85807 9.2738C2.05288 8.05745 1.36818 6.65306 1.36818 5.4C1.36818 3.44386 2.99623 1.85 5 1.85C7.00377 1.85 8.63182 3.44386 8.63182 5.4C8.63182 6.65165 7.94693 8.05583 7.14162 9.27245Z" fill="#9F9D9B" stroke="#9F9D9B" stroke-width="0.1"/>
<path d="M4.99956 3.3499C3.84514 3.3499 2.9041 4.26843 2.9041 5.3999C2.9041 6.53137 3.84514 7.4499 4.99956 7.4499C6.15397 7.4499 7.09501 6.53137 7.09501 5.3999C7.09501 4.26843 6.15397 3.3499 4.99956 3.3499ZM4.99956 6.5499C4.34947 6.5499 3.82228 6.03284 3.82228 5.3999C3.82228 4.76697 4.34947 4.2499 4.99956 4.2499C5.64964 4.2499 6.17683 4.76697 6.17683 5.3999C6.17683 6.03284 5.64964 6.5499 4.99956 6.5499Z" fill="#9F9D9B" stroke="#9F9D9B" stroke-width="0.1"/>
</svg>
