<svg width="23" height="20" viewBox="0 0 23 20" fill="none" xmlns="http://www.w3.org/2000/svg">
<path d="M11.4848 19.7313C11.1832 19.8984 10.8168 19.8984 10.5152 19.7313L3.68505 15.9451C3.36712 15.7689 3.16987 15.434 3.16987 15.0705V8.99288L0.568686 7.54177C-0.115762 7.15994 -0.114893 6.17493 0.570226 5.79431L10.5144 0.269801C10.8164 0.102011 11.1836 0.102011 11.4857 0.269801L22.4856 6.3809C22.8031 6.55727 23 6.89189 23 7.25506V14.6048C23 15.1038 22.5955 15.5083 22.0965 15.5083C21.5976 15.5083 21.1931 15.1038 21.1931 14.6048V7.68792L18.8302 8.99288V15.0705C18.8302 15.434 18.6329 15.7689 18.315 15.9451L11.4848 19.7313ZM10.5168 10.9484C10.8175 11.1144 11.1825 11.1144 11.4833 10.9484L19.2402 6.66666L11 2.11816L2.75981 6.66666L10.5168 10.9484ZM10.5174 17.6348C10.8178 17.8004 11.1822 17.8004 11.4826 17.6348L17.0232 14.5816V9.97634L11.4866 13.0601C11.1841 13.2286 10.8159 13.2286 10.5134 13.0601L4.9768 9.97634V14.5816L10.5174 17.6348Z" fill="white"/>
</svg>
