<svg width="64" height="64" viewBox="0 0 64 64" fill="none" xmlns="http://www.w3.org/2000/svg">
<path d="M37.8616 54.2954H9.25216C7.38922 54.2954 5.85895 52.7651 5.85895 50.9022V27.0166H53.2308V38.3273C53.8962 38.2608 54.495 38.1942 55.1603 38.1942C55.8256 38.1942 56.4244 38.2608 57.0898 38.3273V16.7039C57.0898 12.7119 53.8296 9.45176 49.8376 9.45176H46.4444V3.92947C46.4444 2.86494 45.5795 2 44.5149 2C43.4504 2 42.5855 2.86494 42.5855 3.92947V9.45176H31.4744V3.92947C31.4744 2.86494 30.6094 2 29.5449 2C28.4803 2 27.6154 2.86494 27.6154 3.92947V9.45176H16.5043V3.92947C16.5043 2.86494 15.6394 2 14.5748 2C13.5103 2 12.6454 2.86494 12.6454 3.92947V9.45176H9.25216C5.26014 9.45176 2 12.7119 2 16.7039V50.9022C2 54.8942 5.26014 58.1543 9.25216 58.1543H37.9946C37.8616 57.3559 37.795 56.491 37.795 55.626C37.795 55.1603 37.795 54.6946 37.8616 54.2954ZM5.85895 16.7039C5.85895 14.841 7.38922 13.3107 9.25216 13.3107H12.6454V15.972C12.6454 17.0366 13.5103 17.9015 14.5748 17.9015C15.6394 17.9015 16.5043 17.0366 16.5043 15.972V13.3107H27.6154V15.972C27.6154 17.0366 28.4803 17.9015 29.5449 17.9015C30.6094 17.9015 31.4744 17.0366 31.4744 15.972V13.3107H42.5855V15.972C42.5855 17.0366 43.4504 17.9015 44.5149 17.9015C45.5795 17.9015 46.4444 17.0366 46.4444 15.972V13.3107H49.8376C51.7006 13.3107 53.2308 14.841 53.2308 16.7039V23.1577H5.85895V16.7039Z" fill="#9F9D9B"/>
<path d="M47 32C38.7241 32 32 38.7241 32 47C32 55.2759 38.7241 62 47 62C55.2759 62 62 55.2759 62 47C62 38.7241 55.2759 32 47 32ZM47 57.7143C41.0887 57.7143 36.2857 52.9113 36.2857 47C36.2857 41.0887 41.0887 36.2857 47 36.2857C52.9113 36.2857 57.7143 41.0887 57.7143 47C57.7143 52.9113 52.9113 57.7143 47 57.7143Z" fill="#9F9D9B"/>
<path d="M35.5 41.5L5.5 19L6 15H4V52L8 57.5H37C32.5 51.5 32 44.5 35.5 41.5Z" fill="#9F9D9B"/>
<path d="M50.4436 46.4742L52.3589 44.559C52.7414 44.1629 52.9531 43.6324 52.9483 43.0818C52.9435 42.5312 52.7227 42.0045 52.3333 41.6151C51.9439 41.2257 51.4172 41.0049 50.8666 41.0001C50.316 40.9953 49.7855 41.207 49.3894 41.5895L47.4742 43.5047L45.559 41.5895C45.1629 41.207 44.6324 40.9953 44.0818 41.0001C43.5312 41.0049 43.0045 41.2257 42.6151 41.6151C42.2257 42.0045 42.0049 42.5312 42.0001 43.0818C41.9953 43.6324 42.207 44.1629 42.5895 44.559L44.5047 46.4742L42.5895 48.3894C42.207 48.7855 41.9953 49.316 42.0001 49.8666C42.0049 50.4172 42.2257 50.9439 42.6151 51.3333C43.0045 51.7227 43.5312 51.9435 44.0818 51.9483C44.6324 51.9531 45.1629 51.7414 45.559 51.3589L47.4742 49.4437L49.3894 51.3589C49.5831 51.5595 49.8149 51.7195 50.0711 51.8295C50.3273 51.9396 50.6029 51.9975 50.8817 51.9999C51.1606 52.0023 51.4371 51.9492 51.6952 51.8436C51.9533 51.738 52.1877 51.5821 52.3849 51.3849C52.5821 51.1877 52.738 50.9533 52.8436 50.6952C52.9492 50.4371 53.0023 50.1606 52.9999 49.8817C52.9975 49.6029 52.9396 49.3273 52.8295 49.0711C52.7194 48.8149 52.5595 48.5832 52.3589 48.3894L50.4436 46.4742Z" fill="#9F9D9B"/>
</svg>
