<svg width="17" height="22" viewBox="0 0 17 22" fill="none" xmlns="http://www.w3.org/2000/svg">
<path d="M0.981994 3.76829L0.982066 3.76821L3.68869 0.989067C3.73074 0.945274 3.78108 0.910279 3.83688 0.886322C3.89285 0.86229 3.95308 0.849904 4.01401 0.850001M0.981994 3.76829L4.01388 1M0.981994 3.76829C0.897252 3.85542 0.850229 3.97264 0.85 4.09412V4.09441L0.85 20.0663L0.85 20.0666C0.850547 20.3525 0.961368 20.6273 1.15941 20.8306C1.35758 21.0341 1.62705 21.1494 1.90905 21.15H1.90936H15.0906H15.0909C15.373 21.1494 15.6424 21.0341 15.8406 20.8306C16.0386 20.6273 16.1495 20.3525 16.15 20.0666V20.0663V1.93418C16.15 1.79235 16.1227 1.65184 16.0696 1.52068C16.0167 1.3898 15.9389 1.27001 15.8405 1.16929M0.981994 3.76829L15.0906 0.850001M4.01401 0.850001C4.01406 0.850001 4.01411 0.850001 4.01417 0.850001L4.01388 1M4.01401 0.850001H4.01388V1M4.01401 0.850001L15.0906 0.850001L15.0906 1M4.01388 1H15.0906M15.0906 1V0.850001M15.0906 1V0.850001M15.0906 0.850001C15.2303 0.849949 15.3685 0.878246 15.4973 0.933159C15.626 0.988032 15.7425 1.06835 15.8405 1.16929M15.8405 1.16929C15.8404 1.16921 15.8403 1.16913 15.8402 1.16905L15.733 1.27394L15.8407 1.16953C15.8406 1.16945 15.8405 1.16937 15.8405 1.16929ZM4.46849 1.7767L15.0898 1.77715C15.0899 1.77715 15.0901 1.77715 15.0902 1.77716C15.1284 1.77745 15.1658 1.79314 15.194 1.82218C15.2225 1.85138 15.2392 1.89172 15.2394 1.93464C15.2394 1.9347 15.2394 1.93477 15.2394 1.93483V20.0656C15.2394 20.0657 15.2394 20.0658 15.2394 20.0658C15.2392 20.1087 15.2225 20.1491 15.194 20.1783C15.1658 20.2073 15.1284 20.223 15.0901 20.2233C15.09 20.2233 15.0899 20.2233 15.0898 20.2233L1.90926 20.2233C1.90941 20.2233 1.90956 20.2233 1.90971 20.2233L4.46849 1.7767ZM4.46849 1.7767V3.47415V3.47433C4.46814 3.76026 4.35732 4.03513 4.15914 4.23837C3.96083 4.44174 3.69116 4.55672 3.40913 4.55672H1.75989V20.0658L4.46849 1.7767ZM10.7798 9.98574L10.7798 9.98574C10.7747 10.2134 10.6433 10.399 10.452 10.5399C10.2618 10.68 9.9989 10.7872 9.69015 10.8634L9.68674 10.8643L9.68674 10.8642C9.06519 11.0023 8.43047 11.0682 7.79454 11.0606C7.15869 11.0682 6.52403 11.0023 5.90256 10.8642L5.89909 10.8635L5.8991 10.8634C5.59037 10.7871 5.32741 10.6798 5.13717 10.5397C4.94589 10.3989 4.81438 10.2133 4.8093 9.98574L4.80923 9.9824H4.80927V8.25332L3.63687 7.89524C3.63679 7.89521 3.63671 7.89519 3.63663 7.89516C3.54151 7.86643 3.45881 7.80699 3.40048 7.72662C3.34214 7.64626 3.31114 7.5491 3.31154 7.44981C3.31195 7.35051 3.34375 7.25362 3.40276 7.17374C3.46161 7.09407 3.54453 7.03544 3.63958 7.00743L7.66412 5.77785C7.66422 5.77782 7.66432 5.77779 7.66443 5.77776L7.66454 5.77772L7.70837 5.92118C7.76538 5.90357 7.82616 5.90357 7.88317 5.92118L10.7798 9.98574ZM10.7798 9.98574V9.9824V9.97232V9.97229L10.7802 8.25302L11.9481 7.89537C11.9484 7.89527 11.9487 7.89517 11.9491 7.89507C12.0441 7.86706 12.127 7.80843 12.1859 7.72878C12.2449 7.6489 12.2767 7.55201 12.2771 7.45271C12.2775 7.35341 12.2465 7.25626 12.1882 7.17589C12.1298 7.09554 12.0472 7.03611 11.9521 7.00737C11.952 7.00734 11.9519 7.00731 11.9518 7.00728L7.92742 5.77785C7.92733 5.77782 7.92723 5.77779 7.92714 5.77776L10.7798 9.98574ZM3.76127 17.7577L3.76127 17.7578H3.76544H13.2324C13.293 17.7591 13.3532 17.7482 13.4095 17.7256C13.4665 17.7028 13.5181 17.6685 13.5616 17.6251C13.605 17.5818 13.6392 17.5301 13.6626 17.4734C13.6859 17.4166 13.6979 17.3558 13.6979 17.2944C13.6979 17.233 13.6859 17.1722 13.6626 17.1155C13.6392 17.0587 13.605 17.0071 13.5616 16.9637C13.5181 16.9203 13.4665 16.8861 13.4095 16.8632C13.3532 16.8406 13.293 16.8297 13.2324 16.8311H3.76544V16.831L3.76127 16.8311C3.64145 16.8345 3.52845 16.8857 3.44607 16.9726C3.36381 17.0594 3.31843 17.1749 3.31843 17.2944C3.31843 17.4139 3.36381 17.5295 3.44607 17.6162C3.52845 17.7031 3.64145 17.7544 3.76127 17.7577ZM9.67864 7.27987L9.67866 7.27988L10.2417 7.45182L7.79409 8.20032L5.34642 7.45179L7.79409 6.70403L9.67864 7.27987ZM7.92451 9.12437L9.86947 8.53019V9.86316C9.74204 9.90262 9.61291 9.93605 9.48247 9.96335L9.48116 9.96364C8.92753 10.0847 8.36244 10.1417 7.79649 10.1335L7.79649 10.1334L7.79215 10.1335C7.22619 10.1416 6.66111 10.0847 6.10746 9.96363L6.10615 9.96335C5.97579 9.93607 5.84673 9.90265 5.71938 9.86319V8.53155L7.66054 9.12437C7.66064 9.1244 7.66073 9.12443 7.66083 9.12446C7.74667 9.15104 7.83833 9.15105 7.92416 9.12447C7.92428 9.12444 7.92439 9.1244 7.92451 9.12437ZM3.44212 15.2016C3.52717 15.2889 3.6434 15.3388 3.76544 15.3388H13.2343C13.3564 15.3388 13.4726 15.2889 13.5577 15.2016C13.6426 15.1144 13.6896 14.997 13.6896 14.8753C13.6896 14.7536 13.6426 14.6362 13.5577 14.549C13.4726 14.4617 13.3564 14.4118 13.2343 14.4118H3.76544C3.6434 14.4118 3.52717 14.4617 3.44212 14.549C3.35719 14.6362 3.31016 14.7536 3.31016 14.8753C3.31016 14.997 3.35719 15.1144 3.44212 15.2016ZM3.40858 3.63324L2.39574 3.63375L3.55882 2.43967V3.47426C3.55827 3.51738 3.54136 3.55785 3.51282 3.58727C3.48447 3.61648 3.44701 3.6325 3.40858 3.63324Z" fill="#9F9D9B" stroke="#9F9D9B" stroke-width="0.3"/>
</svg>
