<svg width="20" height="18" viewBox="0 0 20 18" fill="none" xmlns="http://www.w3.org/2000/svg">
<path fill-rule="evenodd" clip-rule="evenodd" d="M15.1822 17.4885C16.3804 18.0127 16.8297 16.9143 16.8297 16.9143L20 0.98797C19.975 -0.0854368 18.5272 0.5636 18.5272 0.5636L0.778531 7.52826C0.778531 7.52826 -0.0702092 7.82782 0.00467962 8.35204C0.0795685 8.87626 0.753568 9.12589 0.753568 9.12589L5.22194 10.6237C5.22194 10.6237 6.56993 15.0421 6.84453 15.8909C7.09416 16.7146 7.31882 16.7396 7.31882 16.7396C7.56845 16.8394 7.79312 16.6647 7.79312 16.6647L10.6888 14.0436L15.1822 17.4885ZM15.9562 3.80921C15.9562 3.80921 16.5803 3.43477 16.5553 3.80921C16.5553 3.80921 16.6551 3.85914 16.3306 4.20862C16.0311 4.50817 8.96656 10.8488 8.01797 11.6975C7.94308 11.7474 7.89315 11.8223 7.89315 11.9222L7.61856 14.2687C7.56863 14.5183 7.24411 14.5433 7.16923 14.3186L5.99597 10.4743C5.94604 10.3245 5.99597 10.1498 6.14574 10.0499L15.9562 3.80921Z" fill="white"/>
</svg>
