<svg width="14" height="16" viewBox="0 0 14 16" fill="none" xmlns="http://www.w3.org/2000/svg">
<path d="M3.79965 9.19559C3.79965 8.80939 3.52625 8.57031 3.05235 8.57031C2.85186 8.57031 2.72427 8.5887 2.65137 8.60709V9.87604C2.72427 9.89443 2.83363 9.89443 2.96122 9.89443C3.48979 9.89443 3.79965 9.63696 3.79965 9.19559Z" fill="#C81616"/>
<path d="M6.75287 8.58789C6.53415 8.58789 6.40656 8.60628 6.31543 8.62467V11.4016C6.38834 11.42 6.53415 11.42 6.64351 11.42C7.50016 11.42 8.06519 10.9419 8.06519 9.9304C8.08342 9.06604 7.57307 8.58789 6.75287 8.58789Z" fill="#C81616"/>
<path d="M13.4601 4.65279L8.08327 0.110343C8.01036 0.036781 7.901 0 7.79164 0H2.05023C1.1389 0 0.391602 0.864353 0.391602 1.931V14.0687C0.391602 15.1354 1.1389 15.9997 2.05023 15.9997H11.9473C12.8587 15.9997 13.606 15.1354 13.606 14.0687V5.00221C13.6242 4.87348 13.5513 4.74475 13.4601 4.65279ZM12.7128 14.0687C12.7128 14.6204 12.3665 15.0802 11.9656 15.0802H2.05023C1.64924 15.0802 1.30294 14.6204 1.30294 14.0687V12.9101H12.6946V14.0687H12.7128ZM1.72215 12.1377V7.94469C2.01378 7.88952 2.43299 7.85274 3.01625 7.85274C3.5995 7.85274 4.01871 7.96308 4.31034 8.20216C4.58374 8.42284 4.76601 8.77226 4.76601 9.17685C4.76601 9.59984 4.62019 9.94925 4.38325 10.1883C4.05517 10.501 3.58127 10.6297 3.01625 10.6297C2.88866 10.6297 2.7793 10.6297 2.68816 10.6113V12.1377H1.72215ZM5.36749 12.1193V7.94469C5.7138 7.88952 6.16946 7.85274 6.66158 7.85274C7.46356 7.85274 7.97391 7.99986 8.39312 8.3125C8.83056 8.64353 9.10396 9.15846 9.10396 9.91247C9.10396 10.7217 8.81233 11.2918 8.41135 11.6412C7.97391 12.009 7.29952 12.1929 6.46109 12.1929C5.95074 12.1745 5.60444 12.1561 5.36749 12.1193ZM12.1843 9.63662V10.4274H10.6715V12.1377H9.72367V7.88952H12.2936V8.68031H10.6715V9.65501H12.1843V9.63662ZM12.7128 7.06195H1.32116V1.931C1.32116 1.37929 1.66747 0.919524 2.06846 0.919524H7.46356C7.46356 3.32668 9.41494 5.27807 11.8221 5.27807H12.7128V7.06195Z" fill="#C81616"/>
</svg>
