<svg width="18" height="18" viewBox="0 0 18 18" fill="none" xmlns="http://www.w3.org/2000/svg">
<path d="M10.7585 15.6886H2.17565C1.61677 15.6886 1.15768 15.2295 1.15768 14.6706V7.50498H15.3692V10.8982C15.5688 10.8782 15.7485 10.8583 15.9481 10.8583C16.1477 10.8583 16.3273 10.8782 16.5269 10.8982V4.41117C16.5269 3.21357 15.5489 2.23553 14.3513 2.23553H13.3333V0.578842C13.3333 0.259481 13.0738 0 12.7545 0C12.4351 0 12.1756 0.259481 12.1756 0.578842V2.23553H8.84231V0.578842C8.84231 0.259481 8.58283 0 8.26347 0C7.94411 0 7.68462 0.259481 7.68462 0.578842V2.23553H4.35129V0.578842C4.35129 0.259481 4.09181 0 3.77245 0C3.45309 0 3.19361 0.259481 3.19361 0.578842V2.23553H2.17565C0.978043 2.23553 0 3.21357 0 4.41117V14.6706C0 15.8682 0.978043 16.8463 2.17565 16.8463H10.7984C10.7585 16.6068 10.7385 16.3473 10.7385 16.0878C10.7385 15.9481 10.7385 15.8084 10.7585 15.6886ZM1.15768 4.41117C1.15768 3.85229 1.61677 3.39321 2.17565 3.39321H3.19361V4.19161C3.19361 4.51097 3.45309 4.77045 3.77245 4.77045C4.09181 4.77045 4.35129 4.51097 4.35129 4.19161V3.39321H7.68462V4.19161C7.68462 4.51097 7.94411 4.77045 8.26347 4.77045C8.58283 4.77045 8.84231 4.51097 8.84231 4.19161V3.39321H12.1756V4.19161C12.1756 4.51097 12.4351 4.77045 12.7545 4.77045C13.0738 4.77045 13.3333 4.51097 13.3333 4.19161V3.39321H14.3513C14.9102 3.39321 15.3692 3.85229 15.3692 4.41117V6.3473H1.15768V4.41117Z" fill="#9F9D9B"/>
<path d="M13.5 9C11.0172 9 9 11.0172 9 13.5C9 15.9828 11.0172 18 13.5 18C15.9828 18 18 15.9828 18 13.5C18 11.0172 15.9828 9 13.5 9ZM13.5 16.7143C11.7266 16.7143 10.2857 15.2734 10.2857 13.5C10.2857 11.7266 11.7266 10.2857 13.5 10.2857C15.2734 10.2857 16.7143 11.7266 16.7143 13.5C16.7143 15.2734 15.2734 16.7143 13.5 16.7143Z" fill="#9F9D9B"/>
<path d="M14.6996 12.1673L13.3822 13.4846L12.983 13.0854C12.7635 12.8659 12.3842 12.8659 12.1647 13.0854C11.9451 13.305 11.9451 13.6842 12.1647 13.9038L12.9631 14.7022C13.0828 14.8219 13.2226 14.8619 13.3822 14.8619C13.5419 14.8619 13.6816 14.802 13.8014 14.7022L15.5379 12.9657C15.7575 12.7461 15.7575 12.3669 15.5379 12.1473C15.2784 11.9477 14.9192 11.9477 14.6996 12.1673Z" fill="#9F9D9B"/>
</svg>
