<svg width="12" height="12" viewBox="0 0 12 12" fill="none" xmlns="http://www.w3.org/2000/svg">
<path d="M6 12C2.64 12 0 9.36 0 6C0 2.64 2.64 0 6 0C9.36 0 12 2.64 12 6C12 9.36 9.36 12 6 12ZM6 1.2C3.36 1.2 1.2 3.36 1.2 6C1.2 8.64 3.36 10.8 6 10.8C8.64 10.8 10.8 8.64 10.8 6C10.8 3.36 8.64 1.2 6 1.2ZM8.04 8.28C8.28 8.04 8.28 7.68 8.04 7.44L6.6 5.76V2.64C6.6 2.28 6.36 2.04 6 2.04C5.64 2.04 5.4 2.28 5.4 2.64V6C5.4 6.12 5.4 6.24 5.52 6.36L7.2 8.16C7.32 8.28 7.56 8.4 7.68 8.4C7.8 8.4 7.92 8.4 8.04 8.28Z" fill="#9F9D9B"/>
</svg>
