<svg width="18" height="16" viewBox="0 0 18 16" fill="none" xmlns="http://www.w3.org/2000/svg">
<path d="M9.68698 14.8496L9.68841 14.8488C10.439 14.4448 12.1562 13.4385 13.6949 11.9291C15.2265 10.4266 16.6654 8.34111 16.6654 5.78776C16.6654 3.53854 15.1422 1.12109 12.332 1.12109C10.907 1.12109 9.77782 1.85749 8.9987 3.01988C8.21958 1.85749 7.09038 1.12109 5.66536 1.12109C2.85519 1.12109 1.33203 3.53854 1.33203 5.78776C1.33203 8.34111 2.77089 10.4266 4.30245 11.9291C5.84213 13.4395 7.56059 14.4461 8.3104 14.8496L8.33409 14.8624C8.43309 14.9161 8.57652 14.994 8.75891 15.0305C8.90998 15.0607 9.08741 15.0607 9.23848 15.0305C9.42087 14.994 9.56429 14.9162 9.66329 14.8624L9.68698 14.8496Z" stroke-width="1.5" stroke-linecap="round"/>
</svg>
