<svg width="123" height="47" viewBox="0 0 123 47" fill="none" xmlns="http://www.w3.org/2000/svg">
<path d="M51.7666 34.274V32.7075H52.2493V34.2548C52.2493 34.7607 52.5121 35.0285 52.9434 35.0285C53.3714 35.0285 53.6342 34.7756 53.6342 34.275V32.7086H54.1169V34.2517C54.1169 35.0636 53.6535 35.4717 52.9359 35.4717C52.2214 35.4706 51.7666 35.0625 51.7666 34.274Z" fill="#000000"/>
<path d="M55.8794 32.7061H56.3267L57.7985 34.5871V32.7061H58.2737V35.4277H57.8693L56.3546 33.4914V35.4277H55.8794V32.7061Z" fill="#000000"/>
<path d="M60.106 32.7061H60.5887V35.4277H60.106V32.7061Z" fill="#000000"/>
<path d="M62.186 32.7061H62.7203L63.5484 34.7975L64.3723 32.7061H64.8947L63.7565 35.4468H63.3285L62.186 32.7061Z" fill="#000000"/>
<path d="M66.4639 32.7061H68.4999V33.1333H66.9466V33.841H68.324V34.2683H66.9466V34.9994H68.5203V35.4266H66.4639V32.7061Z" fill="#000000"/>
<path d="M70.1929 32.7061H71.4168C71.7623 32.7061 72.0326 32.807 72.2096 32.9781C72.3544 33.1258 72.437 33.3277 72.437 33.5647V33.5722C72.437 34.0196 72.1667 34.2874 71.7859 34.3958L72.5271 35.4256H71.9543L71.2795 34.4766H70.6756V35.4256H70.1929V32.7061ZM71.3814 34.0557C71.7269 34.0557 71.9468 33.8772 71.9468 33.6009V33.5934C71.9468 33.3022 71.7355 33.1428 71.3782 33.1428H70.6756V34.0568H71.3814V34.0557Z" fill="#000000"/>
<path d="M73.9453 35.0319L74.236 34.6897C74.4988 34.915 74.7659 35.0436 75.1028 35.0436C75.401 35.0436 75.5898 34.9033 75.5898 34.7014V34.6939C75.5898 34.4994 75.4804 34.3942 74.9698 34.2784C74.3851 34.1381 74.0558 33.967 74.0558 33.4654V33.458C74.0558 32.9914 74.4484 32.6694 74.9934 32.6694C75.3935 32.6694 75.7121 32.7895 75.9899 33.0116L75.7314 33.373C75.4847 33.1902 75.2369 33.0935 74.9859 33.0935C74.7037 33.0935 74.5385 33.2369 74.5385 33.4165V33.424C74.5385 33.6333 74.664 33.7268 75.194 33.8512C75.7743 33.9915 76.0736 34.1976 76.0736 34.6482V34.6557C76.0736 35.1647 75.6692 35.4686 75.0921 35.4686C74.6705 35.4676 74.2746 35.3231 73.9453 35.0319Z" fill="#000000"/>
<path d="M77.7676 32.7061H78.2503V35.4277H77.7676V32.7061Z" fill="#000000"/>
<path d="M80.0825 32.7061H81.107C81.9705 32.7061 82.567 33.2927 82.567 34.0589V34.0663C82.567 34.8326 81.9705 35.4266 81.107 35.4266H80.0825V32.7061ZM80.5652 33.1418V34.992H81.107C81.6841 34.992 82.0606 34.6073 82.0606 34.0748V34.0674C82.0606 33.535 81.6841 33.1428 81.107 33.1428H80.5652V33.1418Z" fill="#000000"/>
<path d="M85.0317 32.687H85.479L86.688 35.4278H86.1774L85.8985 34.771H84.5994L84.3173 35.4278H83.8228L85.0317 32.687ZM85.7225 34.347L85.2473 33.2588L84.7764 34.347H85.7225Z" fill="#000000"/>
<path d="M88.2578 32.7061H89.2823C90.1458 32.7061 90.7423 33.2927 90.7423 34.0589V34.0663C90.7423 34.8326 90.1458 35.4266 89.2823 35.4266H88.2578V32.7061ZM88.7405 33.1418V34.992H89.2823C89.8594 34.992 90.2359 34.6073 90.2359 34.0748V34.0674C90.2359 33.535 89.8594 33.1428 89.2823 33.1428H88.7405V33.1418Z" fill="#000000"/>
<path d="M94.7026 32.7061H95.7271C96.5906 32.7061 97.1871 33.2927 97.1871 34.0589V34.0663C97.1871 34.8326 96.5906 35.4266 95.7271 35.4266H94.7026V32.7061ZM95.1854 33.1418V34.992H95.7271C96.3042 34.992 96.6807 34.6073 96.6807 34.0748V34.0674C96.6807 33.535 96.3042 33.1428 95.7271 33.1428H95.1854V33.1418Z" fill="#000000"/>
<path d="M98.8701 32.7061H100.906V33.1333H99.3528V33.841H100.73V34.2683H99.3528V34.9994H100.927V35.4266H98.8701V32.7061Z" fill="#000000"/>
<path d="M51.625 40.1827L51.9157 39.8406C52.1785 40.0659 52.4456 40.1944 52.7825 40.1944C53.0807 40.1944 53.2695 40.0542 53.2695 39.8522V39.8448C53.2695 39.6503 53.1601 39.5451 52.6495 39.4293C52.0648 39.289 51.7355 39.1179 51.7355 38.6163V38.6089C51.7355 38.1423 52.1281 37.8203 52.6731 37.8203C53.0732 37.8203 53.3918 37.9404 53.6696 38.1625L53.4111 38.5238C53.1644 38.341 52.9166 38.2443 52.6655 38.2443C52.3834 38.2443 52.2182 38.3878 52.2182 38.5674V38.5748C52.2182 38.7842 52.3437 38.8777 52.8737 39.0021C53.454 39.1423 53.7533 39.3485 53.7533 39.7991V39.8065C53.7533 40.3156 53.3489 40.6195 52.7717 40.6195C52.3512 40.6185 51.9554 40.475 51.625 40.1827Z" fill="#000000"/>
<path d="M56.3345 37.8394H56.7818L57.9907 40.5801H57.4801L57.2012 39.9234H55.9021L55.62 40.5801H55.1255L56.3345 37.8394ZM57.0253 39.4993L56.5501 38.4111L56.0791 39.4993H57.0253Z" fill="#000000"/>
<path d="M59.561 37.8584H60.0084L61.4801 39.7394V37.8584H61.9554V40.58H61.5509L60.0363 38.6438V40.58H59.561V37.8584Z" fill="#000000"/>
<path d="M66.0372 37.8584H66.551L67.3867 39.1454L68.2223 37.8584H68.7362V40.58H68.2535V38.6289L67.3867 39.9116H67.3706L66.5114 38.6363V40.58H66.0361V37.8584H66.0372Z" fill="#000000"/>
<path d="M71.5156 37.8394H71.9629L73.1719 40.5801H72.6613L72.3824 39.9234H71.0833L70.8012 40.5801H70.3066L71.5156 37.8394ZM72.2064 39.4993L71.7312 38.4111L71.2603 39.4993H72.2064Z" fill="#000000"/>
<path d="M74.7412 37.8584H75.9652C76.3106 37.8584 76.5809 37.9594 76.7579 38.1305C76.9028 38.2782 76.9854 38.4801 76.9854 38.7171V38.7245C76.9854 39.1719 76.715 39.4397 76.3342 39.5481L77.0755 40.5779H76.5026L75.8279 39.6289H75.2239V40.5779H74.7412V37.8584ZM75.9309 39.207C76.2763 39.207 76.4962 39.0285 76.4962 38.7521V38.7447C76.4962 38.4535 76.2849 38.2941 75.9276 38.2941H75.225V39.2081H75.9309V39.207Z" fill="#000000"/>
<path d="M79.3413 38.3016H78.4702V37.8584H80.6993V38.3016H79.8283V40.58H79.3413V38.3016Z" fill="#000000"/>
<path d="M82.3359 37.8585H82.8187V40.5801H82.3359V37.8585ZM82.8262 37.0688L83.2574 37.2559L82.7554 37.6332H82.3864L82.8262 37.0688Z" fill="#000000"/>
<path d="M84.6509 37.8584H85.0982L86.57 39.7394V37.8584H87.0452V40.58H86.6408L85.1261 38.6438V40.58H84.6509V37.8584Z" fill="#000000"/>
<path d="M91.127 37.8584H92.1514C93.015 37.8584 93.6114 38.445 93.6114 39.2112V39.2187C93.6114 39.9849 93.015 40.579 92.1514 40.579H91.127V37.8584ZM91.6097 38.2941V40.1443H92.1514C92.7285 40.1443 93.1051 39.7596 93.1051 39.2272V39.2197C93.1051 38.6873 92.7285 38.2952 92.1514 38.2952H91.6097V38.2941Z" fill="#000000"/>
<path d="M95.2949 37.8584H97.331V38.2856H95.7776V38.9934H97.155V39.4206H95.7776V40.1518H97.3513V40.579H95.2949V37.8584Z" fill="#000000"/>
<path d="M101.3 37.8584H102.383C103.027 37.8584 103.427 38.2197 103.427 38.7681V38.7755C103.427 39.3855 102.932 39.7044 102.329 39.7044H101.784V40.579H101.301V37.8584H101.3ZM102.344 39.2729C102.708 39.2729 102.936 39.071 102.936 38.7872V38.7798C102.936 38.461 102.704 38.2941 102.344 38.2941H101.783V39.2739H102.344V39.2729Z" fill="#000000"/>
<path d="M104.899 39.227V39.2195C104.899 38.4533 105.495 37.8125 106.339 37.8125C107.183 37.8125 107.771 38.4459 107.771 39.2121V39.2195C107.771 39.9858 107.174 40.6266 106.33 40.6266C105.488 40.6255 104.899 39.9921 104.899 39.227ZM107.265 39.227V39.2195C107.265 38.6903 106.877 38.2514 106.331 38.2514C105.786 38.2514 105.405 38.6829 105.405 39.2121V39.2195C105.405 39.7488 105.794 40.1834 106.339 40.1834C106.885 40.1824 107.265 39.7552 107.265 39.227Z" fill="#000000"/>
<path d="M109.455 37.8584H110.679C111.024 37.8584 111.294 37.9594 111.471 38.1305C111.616 38.2782 111.699 38.4801 111.699 38.7171V38.7245C111.699 39.1719 111.428 39.4397 111.048 39.5481L111.79 40.5779H111.217L110.542 39.6289H109.938V40.5779H109.456V37.8584H109.455ZM110.644 39.207C110.99 39.207 111.21 39.0285 111.21 38.7521V38.7447C111.21 38.4535 110.998 38.2941 110.641 38.2941H109.938V39.2081H110.644V39.207Z" fill="#000000"/>
<path d="M113.392 37.8584H114.616C114.961 37.8584 115.231 37.9594 115.408 38.1305C115.553 38.2782 115.636 38.4801 115.636 38.7171V38.7245C115.636 39.1719 115.365 39.4397 114.985 39.5481L115.726 40.5779H115.153L114.478 39.6289H113.874V40.5779H113.392V37.8584ZM114.581 39.207C114.927 39.207 115.147 39.0285 115.147 38.7521V38.7447C115.147 38.4535 114.935 38.2941 114.578 38.2941H113.875V39.2081H114.581V39.207Z" fill="#000000"/>
<path d="M117.329 37.8584H119.365V38.2856H117.811V38.9934H119.189V39.4206H117.811V40.1518H119.385V40.579H117.329V37.8584Z" fill="#000000"/>
<path d="M120.872 40.1827L121.162 39.8406C121.425 40.0659 121.692 40.1944 122.029 40.1944C122.327 40.1944 122.516 40.0542 122.516 39.8522V39.8448C122.516 39.6503 122.407 39.5451 121.896 39.4293C121.311 39.289 120.982 39.1179 120.982 38.6163V38.6089C120.982 38.1423 121.375 37.8203 121.92 37.8203C122.32 37.8203 122.638 37.9404 122.916 38.1625L122.658 38.5238C122.411 38.341 122.163 38.2443 121.912 38.2443C121.63 38.2443 121.465 38.3878 121.465 38.5674V38.5748C121.465 38.7842 121.59 38.8777 122.12 39.0021C122.701 39.1423 123 39.3485 123 39.7991V39.8065C123 40.3156 122.595 40.6195 122.018 40.6195C121.598 40.6185 121.202 40.475 120.872 40.1827Z" fill="#000000"/>
<path d="M22.7772 0L21.256 1.66954L19.7338 0L19.8497 2.24554L17.583 2.13076L19.2683 3.63771L17.583 5.14465L19.8497 5.02987L19.7338 7.27541L21.255 5.60587L22.7761 7.27541L22.6602 5.02987L24.9269 5.14465L23.2416 3.63771L24.9269 2.13076L22.6602 2.24554L22.7772 0Z" fill="#000000"/>
<path d="M36.122 24.0313C36.1188 16.926 36.1209 10.1469 36.1209 10.1469C36.1209 10.1469 36.1209 9.8121 36.1209 9.5411C36.1209 9.47521 36.1209 9.41145 36.1209 9.35938C33.6493 9.35938 27.478 9.35938 21.3076 9.35938C15.2789 9.35938 9.25232 9.35938 6.67348 9.35938C6.61234 9.35938 6.55226 9.35938 6.49541 9.35938C6.49541 9.62718 6.49541 10.1469 6.49541 10.1469C6.49541 10.1469 6.49755 16.926 6.49434 24.0313C6.49326 25.3874 6.49326 26.7562 6.49219 28.092C6.49112 29.3482 6.83868 30.4959 7.4791 31.5682C7.94681 32.3514 8.59903 32.9763 9.25446 33.598C9.66532 33.988 10.0858 34.3631 10.5138 34.7266C13.6054 37.3483 17.1208 39.2868 20.9515 40.7193C21.0706 40.7639 21.1886 40.7852 21.3066 40.7894V40.7905C21.3076 40.7905 21.3087 40.7905 21.3087 40.7905C21.3098 40.7905 21.3108 40.7905 21.3108 40.7905V40.7894C21.4288 40.7841 21.5458 40.7639 21.6659 40.7193C25.4966 39.2878 29.0119 37.3494 32.1035 34.7266C32.5316 34.3631 32.9521 33.988 33.3629 33.598C34.0184 32.9774 34.6706 32.3525 35.1383 31.5682C35.7787 30.4959 36.1263 29.3482 36.1252 28.092C36.1241 26.7562 36.1231 25.3874 36.122 24.0313ZM33.0261 30.3291C32.7204 30.8413 32.1851 31.3493 31.667 31.8392C31.2443 32.2398 30.8055 32.6224 30.3593 32.9965L21.3087 24.0303V38.2474C17.8127 36.8871 14.8348 35.1559 12.2581 32.9965L21.3087 24.0303H8.94873C8.95088 19.0482 8.94981 14.2267 8.94981 11.7898H8.95303L21.3087 24.0303V11.7909H33.6644L21.3087 24.0313H33.6687C33.6687 25.3884 33.6697 26.7572 33.6708 28.0931C33.6708 28.871 33.4605 29.6021 33.0261 30.3291Z" fill="#000000"/>
<path d="M0.0078125 10.6035V10.0434C0.0078125 10.0158 0.0249761 9.99666 0.0603761 9.98603L3.51563 9.28569C3.55103 9.27506 3.56819 9.28888 3.56819 9.32714V9.91376C3.56819 9.94777 3.55103 9.9669 3.51563 9.97115L1.26505 10.3293V10.3442L3.51563 10.6864C3.55103 10.6896 3.56819 10.7087 3.56819 10.7437V11.3197C3.56819 11.358 3.55103 11.3718 3.51563 11.3612L0.0603761 10.6566C0.0249761 10.6481 0.0078125 10.6311 0.0078125 10.6035Z" fill="#000000"/>
<path d="M0.0603761 14.27H3.51563C3.55103 14.27 3.56819 14.287 3.56819 14.3221V15.863C3.56819 15.8971 3.55103 15.9151 3.51563 15.9151H3.00287C2.96747 15.9151 2.9503 15.8981 2.9503 15.863V14.981C2.9503 14.9597 2.93958 14.9502 2.91919 14.9502H2.14468C2.1243 14.9502 2.11358 14.9608 2.11358 14.981V15.743C2.11358 15.778 2.09534 15.795 2.06101 15.795H1.54825C1.51285 15.795 1.49568 15.778 1.49568 15.743V14.981C1.49568 14.9597 1.48496 14.9502 1.46458 14.9502H0.656812C0.636431 14.9502 0.625703 14.9608 0.625703 14.981V15.862C0.625703 15.8971 0.60854 15.9141 0.57314 15.9141H0.0603761C0.0249761 15.9141 0.0078125 15.8971 0.0078125 15.862V14.3221C0.0078125 14.2881 0.0249761 14.27 0.0603761 14.27Z" fill="#000000"/>
<path d="M0.0078125 20.8663L0.00888523 20.2435C0.00888523 20.2159 0.0228307 20.1968 0.0507216 20.1861L1.40128 19.7866V19.5889C1.40128 19.5676 1.39056 19.5581 1.37018 19.5581H0.0614488C0.0260489 19.5581 0.00888523 19.5411 0.00888523 19.506V18.93C0.00888523 18.8949 0.0260489 18.8779 0.0614488 18.8779L3.5167 18.879C3.5521 18.879 3.56927 18.896 3.56927 18.9311V19.7706C3.56927 20.4582 3.20668 20.8025 2.48045 20.8025C2.05458 20.8025 1.75099 20.6707 1.5697 20.4083L0.0603761 20.8929C0.0260489 20.9067 0.0078125 20.8982 0.0078125 20.8663ZM1.99236 19.7409C1.99236 19.8758 2.02668 19.9725 2.09641 20.031C2.16614 20.0894 2.29379 20.1192 2.4783 20.1192C2.65959 20.1192 2.78618 20.0894 2.85805 20.031C2.92885 19.9725 2.96532 19.8758 2.96532 19.7409V19.59C2.96532 19.5687 2.95459 19.5591 2.93421 19.5591H2.02347C2.00308 19.5591 1.99236 19.5698 1.99236 19.59V19.7409Z" fill="#000000"/>
<path d="M0.0589113 23.8442L3.51416 23.8453C3.54956 23.8453 3.56673 23.8623 3.56673 23.8974V24.4734C3.56673 24.5074 3.54849 24.5254 3.51416 24.5254L0.0589113 24.5244C0.0235113 24.5244 0.00634766 24.5074 0.00634766 24.4723L0.00742038 23.8963C0.00634766 23.8623 0.0235113 23.8442 0.0589113 23.8442Z" fill="#000000"/>
<path d="M0.0182837 28.7477L4.73262e-05 28.1717C-0.0010254 28.1377 0.0161382 28.1197 0.0515382 28.1186L2.90821 28.0336C2.92859 28.0325 2.93932 28.0219 2.93825 28.0017L2.92108 27.447C2.92001 27.4119 2.93717 27.3949 2.9715 27.3938L3.48426 27.379C3.51966 27.3779 3.53683 27.3949 3.5379 27.4289L3.59368 29.2791C3.59476 29.3131 3.57866 29.3312 3.54326 29.3322L3.0305 29.3471C2.99617 29.3482 2.97794 29.3312 2.97686 29.2972L2.9597 28.7424C2.95863 28.7212 2.9479 28.7116 2.92752 28.7127L0.0708473 28.7988C0.03652 28.7988 0.0193564 28.7818 0.0182837 28.7477Z" fill="#000000"/>
<path d="M0.834714 32.6475L4.28997 31.8813C4.32644 31.876 4.35004 31.8856 4.36184 31.9111L4.62573 32.4647C4.6386 32.4934 4.63109 32.5179 4.6032 32.5381L1.80446 34.6837C1.7755 34.705 1.75404 34.6996 1.73902 34.6688L1.49122 34.1481C1.47835 34.1194 1.48586 34.095 1.51375 34.0748L2.0469 33.6996L1.75833 33.0949L1.12435 33.2597C1.09002 33.2682 1.06535 33.2586 1.05248 33.2299L0.804678 32.7092C0.78966 32.6752 0.799314 32.656 0.834714 32.6475ZM2.29362 32.9515L2.49744 33.3787L3.51868 32.655L3.51224 32.6411L2.29362 32.9515Z" fill="#000000"/>
<path d="M6.09304 38.0595C5.83451 38.3262 5.58564 38.4707 5.34857 38.4941C5.11042 38.5175 4.86691 38.4102 4.61804 38.1721C4.16213 37.7385 4.1514 37.2911 4.58371 36.831C4.60731 36.8055 4.63091 36.8012 4.65344 36.8182L5.119 37.1391C5.15118 37.1604 5.15547 37.1838 5.13187 37.2082C5.02031 37.3272 4.95809 37.4303 4.94522 37.5164C4.93235 37.6025 4.96238 37.6801 5.03533 37.7491C5.10827 37.8182 5.18229 37.8459 5.25738 37.831C5.33247 37.8161 5.42366 37.7523 5.53307 37.6408C5.64142 37.5292 5.70578 37.4325 5.72295 37.3506C5.74118 37.2699 5.7208 37.1647 5.6618 37.0361L5.56526 36.8288C5.45155 36.5865 5.41186 36.3772 5.44511 36.2008C5.47944 36.0243 5.59422 35.8341 5.79267 35.629C6.24966 35.1582 6.70449 35.138 7.15718 35.5695C7.58949 35.9818 7.61202 36.408 7.22369 36.848C7.20009 36.8724 7.17435 36.8756 7.14967 36.8565L6.70664 36.5493C6.67338 36.5281 6.67017 36.5047 6.69376 36.4803C6.86755 36.2911 6.89007 36.1338 6.7592 36.0095C6.62833 35.8851 6.48029 35.9074 6.31616 36.0764C6.22391 36.171 6.17242 36.2539 6.16169 36.3251C6.15096 36.3963 6.17671 36.4994 6.23893 36.6354L6.33547 36.8426C6.44811 37.0796 6.4878 37.289 6.45347 37.4697C6.41915 37.6514 6.29793 37.8469 6.09304 38.0595Z" fill="#000000"/>
<path d="M11.0554 43.0001L12.82 40.0574C12.8382 40.0277 12.8618 40.0213 12.8919 40.0394L13.3907 40.3337C13.4207 40.3518 13.4272 40.3752 13.4089 40.4049L11.949 42.8386C11.9382 42.8566 11.9425 42.8705 11.9597 42.8811L12.7342 43.337C12.7642 43.3551 12.7696 43.3784 12.7524 43.4082L12.4907 43.845C12.4724 43.8747 12.4488 43.8811 12.4188 43.863L11.0736 43.0703C11.0425 43.0533 11.0371 43.0299 11.0554 43.0001Z" fill="#000000"/>
<path d="M15.3109 45.2795L16.7591 42.1721C16.7741 42.1412 16.7966 42.1327 16.8288 42.1466L17.3566 42.3878C17.3877 42.4027 17.3963 42.425 17.3823 42.4569L15.9341 45.5643C15.9191 45.5951 15.8966 45.6036 15.8644 45.5898L15.3366 45.3485C15.3044 45.3337 15.2959 45.3103 15.3109 45.2795Z" fill="#000000"/>
<path d="M19.4777 46.8487L19.8189 43.4427C19.8221 43.4087 19.8414 43.3927 19.8757 43.3959L20.7714 43.4841C21.0986 43.516 21.3303 43.6148 21.4687 43.7795C21.6071 43.9443 21.6597 44.1813 21.6285 44.4916C21.5899 44.8805 21.429 45.1196 21.1469 45.21L21.1458 45.2206C21.4355 45.3396 21.5577 45.6191 21.5148 46.0591C21.4773 46.4342 21.3657 46.6914 21.1791 46.8317C20.9935 46.972 20.7221 47.024 20.3638 46.989L19.5249 46.9071C19.4895 46.9018 19.4734 46.8827 19.4777 46.8487ZM20.2147 46.363C20.2125 46.3832 20.2222 46.3949 20.2426 46.397L20.3938 46.4119C20.5397 46.4268 20.6438 46.4024 20.706 46.3386C20.7682 46.2748 20.809 46.1505 20.8283 45.9645C20.8465 45.7817 20.8315 45.6542 20.7822 45.5819C20.7328 45.5097 20.6352 45.4661 20.4893 45.4523L20.3381 45.4374C20.3177 45.4353 20.3059 45.4448 20.3037 45.4661L20.2147 46.363ZM20.3928 44.9007L20.544 44.9156C20.6792 44.9294 20.7747 44.9092 20.8294 44.855C20.883 44.8008 20.9195 44.6882 20.9366 44.516C20.9538 44.3481 20.9409 44.2301 20.898 44.1653C20.8551 44.1005 20.7661 44.0612 20.6309 44.0484L20.4797 44.0335C20.4582 44.0314 20.4464 44.041 20.4453 44.0612L20.3649 44.8657C20.3627 44.8869 20.3713 44.8986 20.3928 44.9007Z" fill="#000000"/>
<path d="M25.3508 46.1316L23.9713 42.9934C23.9573 42.9615 23.9659 42.9392 23.9981 42.9254L25.4227 42.3101C25.4549 42.2963 25.4774 42.3048 25.4913 42.3367L25.6962 42.8021C25.7102 42.834 25.7005 42.8563 25.6694 42.8701L24.8531 43.2219C24.8338 43.2304 24.8284 43.2442 24.837 43.2634L25.1459 43.9669C25.1545 43.986 25.1684 43.9913 25.1878 43.9828L25.8936 43.6789C25.9247 43.6651 25.9483 43.6736 25.9623 43.7055L26.1672 44.172C26.1811 44.2039 26.1725 44.2262 26.1403 44.24L25.4345 44.5439C25.4152 44.5524 25.4098 44.5663 25.4173 44.5854L25.7391 45.3176C25.7466 45.3367 25.7606 45.342 25.781 45.3335L26.5962 44.9818C26.6284 44.968 26.651 44.9765 26.6649 45.0083L26.8698 45.4738C26.8837 45.5057 26.8741 45.528 26.843 45.5418L25.4173 46.1572C25.3884 46.1731 25.3648 46.1635 25.3508 46.1316Z" fill="#000000"/>
<path d="M31.5273 43.074L30.9855 43.3875C30.9609 43.4013 30.9373 43.3992 30.9147 43.3801L29.886 42.4258L29.7144 42.5246C29.6961 42.5352 29.6929 42.549 29.7036 42.5671L30.3623 43.6872C30.3805 43.717 30.3741 43.7404 30.3441 43.7584L29.842 44.0485C29.812 44.0655 29.7884 44.0592 29.7701 44.0294L28.0302 41.0729C28.0119 41.0432 28.0184 41.0198 28.0484 41.0017L28.7811 40.5787C29.3807 40.2323 29.8635 40.3694 30.2293 40.99C30.4438 41.3545 30.4824 41.6808 30.3451 41.9677L31.5251 43.0145C31.553 43.039 31.5541 43.0581 31.5273 43.074ZM29.547 41.9433C29.6639 41.8753 29.7315 41.7966 29.7476 41.7074C29.7637 41.6181 29.7251 41.4938 29.6318 41.3354C29.5406 41.1802 29.4515 41.0867 29.3636 41.0548C29.2756 41.023 29.1737 41.041 29.0568 41.109L28.9248 41.1845C28.9066 41.1951 28.9034 41.2089 28.9141 41.227L29.3732 42.007C29.384 42.0251 29.3979 42.0283 29.4161 42.0177L29.547 41.9433Z" fill="#000000"/>
<path d="M34.0524 41.3311L32.5399 38.1589C32.527 38.1249 32.5313 38.1005 32.5538 38.0835L33.0409 37.7072C33.0655 37.6881 33.0913 37.6902 33.1181 37.7136L35.8439 39.9485C35.8707 39.9719 35.8707 39.9942 35.8428 40.0155L35.3837 40.3694C35.359 40.3885 35.3333 40.3864 35.3065 40.363L34.8194 39.9305L34.2874 40.3417L34.5877 40.9177C34.6038 40.9496 34.5995 40.9751 34.5749 40.9932L34.1168 41.3471C34.0889 41.3683 34.0675 41.363 34.0524 41.3311ZM34.0321 39.855L34.4075 39.5649L33.471 38.736L33.4592 38.7455L34.0321 39.855Z" fill="#000000"/>
<path d="M38.2415 37.8128L35.712 35.4811C35.6863 35.4578 35.6852 35.4333 35.7088 35.4078L36.3224 34.7542C36.5456 34.5162 36.7655 34.3929 36.9811 34.3844C37.1967 34.3748 37.4198 34.4769 37.6494 34.6883C37.938 34.954 38.0334 35.2261 37.9347 35.5035L37.9422 35.5098C38.2136 35.3536 38.5129 35.4259 38.839 35.7277C39.118 35.9849 39.2563 36.2282 39.2563 36.4599C39.2553 36.6916 39.133 36.9371 38.8884 37.1985L38.3145 37.8096C38.2909 37.8361 38.2662 37.8372 38.2415 37.8128ZM37.231 35.9115L37.334 35.801C37.4263 35.7022 37.4681 35.615 37.4584 35.5396C37.4477 35.4641 37.3791 35.3674 37.2514 35.2495C37.1259 35.1336 37.024 35.0731 36.9468 35.0677C36.8684 35.0624 36.7826 35.1081 36.6904 35.207L36.5874 35.3175C36.5734 35.3324 36.5734 35.3472 36.5895 35.3621L37.187 35.9126C37.201 35.9275 37.216 35.9275 37.231 35.9115ZM38.2984 36.9371C38.3134 36.9509 38.3284 36.9509 38.3424 36.936L38.4454 36.8255C38.5451 36.7192 38.5891 36.6225 38.5762 36.5343C38.5634 36.4472 38.4872 36.3398 38.3488 36.2123C38.2136 36.088 38.1021 36.0221 38.0141 36.0168C37.9262 36.0114 37.8328 36.0614 37.7331 36.1677L37.6301 36.2782C37.6161 36.2931 37.6161 36.3079 37.6322 36.3218L38.2984 36.9371Z" fill="#000000"/>
<path d="M41.4876 33.2047L38.2759 31.9443C38.2426 31.9316 38.233 31.9093 38.2469 31.8774L38.4604 31.3418C38.4732 31.3099 38.4958 31.3003 38.529 31.3131L41.7408 32.5745C41.773 32.5873 41.7826 32.6096 41.7697 32.6415L41.5552 33.1771C41.5434 33.2079 41.5198 33.2175 41.4876 33.2047Z" fill="#000000"/>
<path d="M42.5886 27.7125L42.5897 28.2885C42.5897 28.3225 42.5725 28.3406 42.5371 28.3406L39.6794 28.3427C39.659 28.3427 39.6483 28.3533 39.6483 28.3735L39.6493 28.9282C39.6493 28.9633 39.6322 28.9803 39.5968 28.9803H39.084C39.0486 28.9803 39.0314 28.9633 39.0314 28.9282L39.0293 27.077C39.0293 27.0419 39.0475 27.0249 39.0819 27.0249H39.5946C39.629 27.0249 39.6472 27.0419 39.6472 27.077V27.6307C39.6483 27.6519 39.6579 27.6615 39.6783 27.6615L42.536 27.6593C42.5704 27.6604 42.5886 27.6774 42.5886 27.7125Z" fill="#000000"/>
<path d="M42.5853 19.523V20.083C42.5853 20.1107 42.567 20.1298 42.5327 20.1404L39.0775 20.8408C39.0421 20.8514 39.0249 20.8376 39.0249 20.7993V20.2127C39.0249 20.1787 39.0421 20.1596 39.0775 20.1553L41.328 19.7972V19.7812L39.0775 19.439C39.0431 19.4358 39.0249 19.4167 39.0249 19.3817V18.8057C39.0249 18.7674 39.0431 18.7536 39.0775 18.7642L42.5327 19.4688C42.567 19.4784 42.5853 19.4954 42.5853 19.523Z" fill="#000000"/>
<path d="M42.6322 15.0111C42.6322 15.4819 42.4316 15.7827 42.0304 15.9134C41.9468 15.9442 41.832 15.9644 41.6872 15.9729C41.5423 15.9814 41.2484 15.9857 40.8054 15.9857C40.3623 15.9857 40.0684 15.9814 39.9236 15.9729C39.7788 15.9644 39.6651 15.9442 39.5803 15.9134C39.1791 15.7827 38.9785 15.4809 38.9785 15.0111C38.9785 14.5404 39.1791 14.2396 39.5803 14.1089C39.664 14.0781 39.7777 14.0579 39.9236 14.0494C40.0684 14.0409 40.3623 14.0366 40.8054 14.0366C41.2484 14.0366 41.5434 14.0409 41.6872 14.0494C41.832 14.0579 41.9457 14.0781 42.0304 14.1089C42.4316 14.2407 42.6322 14.5414 42.6322 15.0111ZM42.0143 15.0111C42.0133 14.8804 41.9564 14.7965 41.8416 14.7625C41.7644 14.738 41.419 14.7263 40.8043 14.7263C40.1907 14.7263 39.8442 14.7391 39.768 14.7625C39.6522 14.7965 39.5953 14.8804 39.5953 15.0111C39.5953 15.1429 39.6533 15.2258 39.768 15.2598C39.8453 15.2843 40.1907 15.2959 40.8043 15.2959C41.419 15.2959 41.7644 15.2832 41.8416 15.2598C41.9564 15.2258 42.0143 15.1429 42.0143 15.0111Z" fill="#000000"/>
<path d="M41.5274 9.19873C41.9007 9.19873 42.1786 9.27631 42.3598 9.42934C42.5411 9.58344 42.6323 9.83105 42.6323 10.1732C42.6323 10.7992 42.3148 11.1169 41.6797 11.1276C41.6454 11.1276 41.6261 11.1138 41.6218 11.0861L41.5328 10.5314C41.5263 10.4931 41.5392 10.474 41.5746 10.474C41.7387 10.4708 41.8567 10.4442 41.9275 10.3932C41.9994 10.3433 42.0348 10.2678 42.0348 10.1679C42.0348 10.068 42.0037 9.99577 41.9404 9.95327C41.8782 9.90969 41.7677 9.88844 41.6111 9.88844C41.4545 9.88844 41.3397 9.90969 41.2678 9.95327C41.197 9.99684 41.1348 10.084 41.0822 10.2158L40.9986 10.4283C40.9009 10.677 40.7754 10.8513 40.6242 10.949C40.4729 11.0479 40.253 11.0968 39.9666 11.0968C39.3069 11.0968 38.9775 10.7854 38.9775 10.1637C38.9775 9.56856 39.2725 9.25824 39.8625 9.23061C39.8979 9.23061 39.9162 9.24655 39.9205 9.27737L40.0041 9.80661C40.0106 9.84487 39.9977 9.864 39.9623 9.864C39.7048 9.87144 39.575 9.96495 39.575 10.1435C39.575 10.3231 39.693 10.4134 39.9301 10.4134C40.0631 10.4134 40.1597 10.3922 40.2187 10.3518C40.2777 10.3103 40.3356 10.22 40.3914 10.0819L40.4751 9.86931C40.5695 9.62382 40.695 9.4506 40.8494 9.3507C41.005 9.24868 41.2313 9.19873 41.5274 9.19873Z" fill="#000000"/>
<path d="M53.4624 11.8335V21.8072C53.4624 22.3237 53.5332 22.8603 53.6758 23.4161C53.8185 23.9719 54.0556 24.4852 54.3871 24.955C54.7185 25.4247 55.153 25.8083 55.6915 26.1059C56.2289 26.4034 56.8929 26.5522 57.6825 26.5522C58.4731 26.5522 59.136 26.4034 59.6735 26.1059C60.2109 25.8083 60.6453 25.4247 60.9779 24.955C61.3104 24.4852 61.5464 23.973 61.6891 23.4161C61.8318 22.8603 61.9026 22.3237 61.9026 21.8072V11.8335H64.1789V22.1589C64.1789 23.1303 64.0126 24.0102 63.6812 24.8009C63.3497 25.5915 62.8906 26.277 62.3059 26.8562C61.7213 27.4354 61.0337 27.8817 60.2431 28.1952C59.4525 28.5087 58.5996 28.6649 57.6825 28.6649C56.7653 28.6649 55.9125 28.5087 55.1219 28.1952C54.3313 27.8817 53.6437 27.4364 53.059 26.8562C52.4744 26.277 52.0163 25.5915 51.6838 24.8009C51.3512 24.0102 51.186 23.1292 51.186 22.1589V11.8335H53.4624Z" fill="#000000"/>
<path d="M81.2714 23.6955C81.2714 22.7306 81.0633 21.9622 80.6525 21.4086C80.2427 20.8591 79.7289 20.416 79.1228 20.0908C78.5188 19.7677 77.8516 19.5127 77.1393 19.3331C76.4302 19.1535 75.7673 18.9494 75.1687 18.7262C74.5723 18.5041 74.067 18.2108 73.6658 17.8559C73.2689 17.5052 73.0683 16.9929 73.0683 16.3319C73.0683 16.0971 73.1187 15.8367 73.2185 15.5572C73.3182 15.2788 73.4931 15.0152 73.7377 14.7729C73.9833 14.5306 74.3137 14.3287 74.7224 14.1746C75.1311 14.0194 75.6514 13.9408 76.2715 13.9408C76.9205 13.9408 77.5072 14.0683 78.0168 14.3191C78.5253 14.5699 78.9232 14.9068 79.2 15.3191L79.2257 15.3574L81.1298 13.6964L81.1062 13.6666C80.4733 12.928 79.7385 12.437 78.9007 12.1958C78.1262 11.9726 77.3163 11.8579 76.4753 11.8408C76.4077 11.8398 76.3401 11.8345 76.2715 11.8345H76.2704H76.2693C75.2577 11.8345 74.392 11.9811 73.6733 12.2755C72.9535 12.5699 72.3657 12.9355 71.9076 13.3722C71.4495 13.8101 71.1127 14.2926 70.9003 14.8197C70.6868 15.3478 70.5796 15.8452 70.5796 16.3128C70.5796 17.1035 70.6986 17.7687 70.9357 18.3107C71.014 18.4946 71.1041 18.6646 71.2082 18.8198C71.6169 19.4298 72.1307 19.9229 72.7368 20.2842C73.3408 20.6445 74.008 20.9303 74.7214 21.1322C75.4261 21.332 76.0891 21.5446 76.693 21.7614C77.2895 21.9771 77.7958 22.247 78.1981 22.5659C78.5939 22.8794 78.7945 23.3427 78.7945 23.9421C78.7945 24.3672 78.6937 24.7466 78.4952 25.0696C78.2957 25.3938 78.035 25.6701 77.7186 25.8911C77.4021 26.1122 77.047 26.2811 76.6609 26.3917C76.2747 26.5022 75.8906 26.5585 75.5205 26.5585C74.8555 26.5585 74.2 26.4193 73.5746 26.1451C72.9503 25.872 72.43 25.4416 72.0288 24.8645L72.0041 24.8284L70.0679 26.4246L70.084 26.4469C70.6525 27.2015 71.4195 27.7594 72.3839 28.1207C73.1101 28.3938 73.8675 28.5628 74.6559 28.6298C74.9177 28.6531 75.1837 28.6648 75.4508 28.6648C76.2511 28.6648 77.0138 28.5511 77.7196 28.3248C78.0511 28.2185 78.3622 28.0888 78.654 27.9379C78.9844 27.769 79.289 27.5745 79.5658 27.3502C80.0871 26.9283 80.5023 26.4076 80.8102 25.7891C81.118 25.1706 81.2725 24.4766 81.2725 23.7083C81.2725 23.7051 81.2725 23.7019 81.2725 23.6987C81.2714 23.6987 81.2714 23.6966 81.2714 23.6955Z" fill="#000000"/>
<path d="M87.5592 11.8345H90.949L96.2837 24.4235H96.3781L101.664 11.8345H105.054V28.6648H102.778V14.7942H102.731L96.9809 28.6659H95.6315L89.8816 14.7942H89.8344V28.6659H87.5581V11.8345H87.5592Z" fill="#000000"/>
<path d="M111.713 11.8335H117.617C118.692 11.8335 119.577 11.9791 120.272 12.2682C120.967 12.5583 121.516 12.926 121.919 13.3723C122.323 13.8187 122.603 14.3203 122.761 14.8761C122.919 15.4319 122.999 15.9686 122.999 16.485C122.999 17.0015 122.919 17.5382 122.761 18.094C122.603 18.6498 122.323 19.1514 121.919 19.5978C121.516 20.0441 120.967 20.4118 120.272 20.7019C119.577 20.9921 118.692 21.1366 117.617 21.1366H113.989V28.6649H111.712V11.8335H111.713ZM113.99 19.161H116.977C117.419 19.161 117.858 19.1259 118.293 19.0547C118.727 18.9846 119.114 18.8549 119.454 18.6668C119.794 18.4787 120.067 18.2088 120.272 17.857C120.477 17.5042 120.58 17.0462 120.58 16.4829C120.58 15.9197 120.477 15.4616 120.272 15.1088C120.066 14.7571 119.793 14.4861 119.454 14.299C119.114 14.1109 118.727 13.9823 118.293 13.9111C117.858 13.841 117.419 13.8059 116.977 13.8059H113.99V19.161Z" fill="#000000"/>
</svg>
