<svg width="21" height="20" viewBox="0 0 21 20" fill="none" xmlns="http://www.w3.org/2000/svg">
<path d="M16.7864 1.56765H16.1382V1.05882C16.1382 0.72259 15.8656 0.45 15.5294 0.45C15.1932 0.45 14.9206 0.72259 14.9206 1.05882V1.56765H6.07941V1.05882C6.07941 0.72259 5.80682 0.45 5.47059 0.45C5.13435 0.45 4.86176 0.72259 4.86176 1.05882V1.56765H4.21357C2.41396 1.56765 0.95 3.03161 0.95 4.83122V16.2864C0.95 18.086 2.41396 19.55 4.21357 19.55H16.7864C18.586 19.55 20.05 18.086 20.05 16.2864V4.83122C20.05 3.03161 18.586 1.56765 16.7864 1.56765ZM4.21357 2.78529H4.86176V3.85294C4.86176 4.18918 5.13435 4.46176 5.47059 4.46176C5.80682 4.46176 6.07941 4.18918 6.07941 3.85294V2.78529H14.9206V3.85294C14.9206 4.18918 15.1932 4.46176 15.5294 4.46176C15.8656 4.46176 16.1382 4.18918 16.1382 3.85294V2.78529H16.7864C17.9145 2.78529 18.8324 3.70311 18.8324 4.83122V6.03824H2.16765V4.83122C2.16765 3.70311 3.08546 2.78529 4.21357 2.78529ZM16.7864 18.3324H4.21357C3.08546 18.3324 2.16765 17.4145 2.16765 16.2864V7.25588H18.8324V16.2864C18.8324 17.4145 17.9145 18.3324 16.7864 18.3324Z" fill="#9F9D9B" stroke="#9F9D9B" stroke-width="0.1"/>
<path d="M12.1338 15.9684L12.1338 15.9684L10.5018 15.1104L8.86977 15.9684L8.86976 15.9684C8.4235 16.2029 7.90132 15.8229 7.9864 15.3266L8.03568 15.3351L7.9864 15.3266L8.29807 13.5094L6.9778 12.2224C6.9778 12.2224 6.9778 12.2224 6.9778 12.2224C6.61692 11.8706 6.81672 11.2563 7.31521 11.1839C7.31521 11.1839 7.31522 11.1839 7.31522 11.1839L9.13984 10.9188L9.95582 9.26542L9.95582 9.26542C10.1789 8.81348 10.8248 8.81375 11.0477 9.26541L11.0477 9.26542L11.8637 10.9188L13.6883 11.1839L13.6883 11.1839L13.6811 11.2334L12.1338 15.9684ZM12.1338 15.9684C12.581 16.2035 13.102 15.8219 13.0171 15.3266L12.7055 13.5093L12.1338 15.9684Z" fill="#9F9D9B" stroke="#9F9D9B" stroke-width="0.1"/>
</svg>
