<svg width="16" height="20" viewBox="0 0 16 20" fill="none" xmlns="http://www.w3.org/2000/svg">
<path d="M13.8906 7.14993H12.911V4.76739C12.911 2.13861 10.708 0 8 0C5.29202 0 3.08899 2.13861 3.08899 4.76739V7.14993H2.10943C0.946342 7.14993 0 8.0686 0 9.19767V17.9523C0 19.0813 0.946342 20 2.10943 20H13.8906C15.0537 20 16 19.0813 16 17.9523V9.19767C16 8.0686 15.0537 7.14993 13.8906 7.14993ZM4.67106 4.76765C4.67106 2.9856 6.16427 1.53606 8 1.53606C9.83573 1.53606 11.3289 2.9856 11.3289 4.76765V7.15019H4.67106V4.76765ZM14.4179 17.9523C14.4179 18.2346 14.1814 18.4642 13.8906 18.4642H2.10943C1.81859 18.4642 1.58207 18.2346 1.58207 17.9523V9.19767C1.58207 8.91534 1.81859 8.68574 2.10943 8.68574H13.8906C14.1814 8.68574 14.4179 8.91534 14.4179 9.19767V17.9523Z" fill="#9F9D9B"/>
</svg>
