<svg width="14" height="14" viewBox="0 0 14 14" fill="none" xmlns="http://www.w3.org/2000/svg">
<path d="M3.49629 13.05H10.5037C11.8988 13.05 13.05 12.0302 13.05 10.7719V4.42175C13.05 3.16348 11.8988 2.14363 10.5037 2.14363H10.0901V1.3183C10.0901 1.11043 9.90176 0.95 9.68351 0.95C9.46525 0.95 9.27689 1.11043 9.27689 1.3183V2.14363H4.72311V1.3183C4.72311 1.11043 4.53475 0.95 4.31649 0.95C4.09824 0.95 3.90988 1.11043 3.90988 1.3183V2.14363H3.49629C2.10121 2.14363 0.95 3.16348 0.95 4.42175V10.756C0.95 12.0299 2.10097 13.05 3.49629 13.05ZM3.49629 2.88024H3.90988V4.02387C3.90988 4.23175 4.09824 4.39218 4.31649 4.39218C4.53475 4.39218 4.72311 4.23175 4.72311 4.02387V2.88024H9.29472V4.02387C9.29472 4.23175 9.48308 4.39218 9.70134 4.39218C9.91959 4.39218 10.1079 4.23175 10.1079 4.02387V2.88024H10.5215C11.4801 2.88024 12.2546 3.57923 12.2546 4.42175V5.66088H1.76322V4.42175C1.76322 3.57923 2.53772 2.88024 3.49629 2.88024ZM1.76322 6.39748H12.2368V10.756C12.2368 11.5985 11.4623 12.2975 10.5037 12.2975H3.49629C2.53772 12.2975 1.76322 11.5985 1.76322 10.756V6.39748Z" fill="#9F9D9B" stroke="#9F9D9B" stroke-width="0.1"/>
</svg>
