<svg width="20" height="20" viewBox="0 0 20 20" fill="none" xmlns="http://www.w3.org/2000/svg">
<path d="M1.28824 19.9705C0.910567 20.0542 0.585417 19.9598 0.312792 19.6872C0.0401868 19.4146 -0.0542324 19.0894 0.0295349 18.7118L1.02325 13.9419L6.05808 18.9767L1.28824 19.9705ZM6.05808 18.9767L1.02325 13.9419L14.3507 0.614504C14.7603 0.204834 15.2675 0 15.8721 0C16.4767 0 16.9838 0.204834 17.3935 0.614504L19.3855 2.60651C19.7952 3.01618 20 3.52332 20 4.12792C20 4.73253 19.7952 5.23967 19.3855 5.64934L6.05808 18.9767ZM15.6208 1.86635L3.47441 14.0013L5.99872 16.5256L18.1336 4.37922C18.2022 4.31068 18.2365 4.22501 18.2365 4.12222C18.2365 4.01941 18.2022 3.93373 18.1336 3.86519L16.1348 1.86635C16.0663 1.79781 15.9806 1.76354 15.8778 1.76354C15.775 1.76354 15.6893 1.79781 15.6208 1.86635Z" fill="white"/>
</svg>
