<svg width="20" height="20" viewBox="0 0 20 20" fill="none" xmlns="http://www.w3.org/2000/svg">
<mask id="path-1-outside-1_104_45284" maskUnits="userSpaceOnUse" x="0" y="0" width="20" height="20" fill="black">
<rect fill="white" width="20" height="20"/>
<path fill-rule="evenodd" clip-rule="evenodd" d="M1.66808 4.02191V1.28965C1.66808 1.12413 1.78261 1 1.91623 1H11.6702C11.8229 1 11.9184 1.12413 11.9184 1.28965V7.64121C11.9184 7.80673 11.8039 7.91017 11.6702 7.91017C11.5175 7.91017 11.4221 7.78604 11.4221 7.64121V1.55861H2.18346V4.00122C2.18346 4.16673 2.06893 4.29087 1.93532 4.29087C1.8017 4.29087 1.66808 4.16673 1.66808 4.02191ZM13.14 1.74481L12.1474 7.59984C12.1093 7.74466 12.2047 7.88948 12.3574 7.91017C12.5101 7.93086 12.6437 7.82742 12.6628 7.68259L13.6172 2.11721L18.0457 3.00685L17.263 7.59984C17.244 7.76535 17.3394 7.91017 17.473 7.93086H17.5112C17.6257 7.93086 17.7402 7.8481 17.7593 7.70328L18.5801 2.84133C18.5992 2.67582 18.5038 2.531 18.3701 2.51031L13.4454 1.51723C13.3882 1.49654 13.3118 1.51723 13.2545 1.55861C13.1973 1.59999 13.1591 1.66205 13.14 1.74481ZM6.95548 8.34465H17.6066C18.3701 8.34465 18.981 9.0067 19.0001 9.83426V17.5099C19.0001 18.3375 18.3892 18.9996 17.6257 18.9996H2.37434C1.61082 18.9996 1 18.3375 1 17.5099V7.41363C1 6.58607 1.61082 5.92402 2.37434 5.92402H4.72217C5.4857 5.92402 6.09652 6.58607 6.09652 7.41363C6.09652 7.93086 6.47828 8.34465 6.95548 8.34465ZM10.1623 3.89777C10.2959 3.89777 10.4104 3.77364 10.4104 3.60812C10.4104 3.44261 10.2959 3.31848 10.1432 3.31848H3.81251C3.6598 3.31848 3.54528 3.44261 3.54528 3.60812C3.54528 3.77364 3.6598 3.89777 3.81251 3.89777H10.1623ZM10.4104 6.39987C10.4104 6.56538 10.2959 6.66882 10.1623 6.66882H7.75002C7.59732 6.66882 7.48279 6.54469 7.48279 6.39987C7.48279 6.23435 7.59732 6.13091 7.75002 6.13091H10.1623C10.2959 6.11022 10.4104 6.23435 10.4104 6.39987ZM18.4654 17.5106C18.4654 18.0278 18.0837 18.4416 17.6065 18.4416H2.3742C1.89699 18.4416 1.51523 18.0278 1.51523 17.5106V7.4143C1.51523 6.89708 1.89699 6.48329 2.3742 6.48329H4.74112C5.21832 6.48329 5.60008 6.89708 5.60008 7.4143C5.60008 8.24187 6.2109 8.90392 6.97442 8.90392H17.6447C18.1219 8.90392 18.5036 9.3177 18.5036 9.83493L18.4654 17.5106Z"/>
</mask>
<path fill-rule="evenodd" clip-rule="evenodd" d="M1.66808 4.02191V1.28965C1.66808 1.12413 1.78261 1 1.91623 1H11.6702C11.8229 1 11.9184 1.12413 11.9184 1.28965V7.64121C11.9184 7.80673 11.8039 7.91017 11.6702 7.91017C11.5175 7.91017 11.4221 7.78604 11.4221 7.64121V1.55861H2.18346V4.00122C2.18346 4.16673 2.06893 4.29087 1.93532 4.29087C1.8017 4.29087 1.66808 4.16673 1.66808 4.02191ZM13.14 1.74481L12.1474 7.59984C12.1093 7.74466 12.2047 7.88948 12.3574 7.91017C12.5101 7.93086 12.6437 7.82742 12.6628 7.68259L13.6172 2.11721L18.0457 3.00685L17.263 7.59984C17.244 7.76535 17.3394 7.91017 17.473 7.93086H17.5112C17.6257 7.93086 17.7402 7.8481 17.7593 7.70328L18.5801 2.84133C18.5992 2.67582 18.5038 2.531 18.3701 2.51031L13.4454 1.51723C13.3882 1.49654 13.3118 1.51723 13.2545 1.55861C13.1973 1.59999 13.1591 1.66205 13.14 1.74481ZM6.95548 8.34465H17.6066C18.3701 8.34465 18.981 9.0067 19.0001 9.83426V17.5099C19.0001 18.3375 18.3892 18.9996 17.6257 18.9996H2.37434C1.61082 18.9996 1 18.3375 1 17.5099V7.41363C1 6.58607 1.61082 5.92402 2.37434 5.92402H4.72217C5.4857 5.92402 6.09652 6.58607 6.09652 7.41363C6.09652 7.93086 6.47828 8.34465 6.95548 8.34465ZM10.1623 3.89777C10.2959 3.89777 10.4104 3.77364 10.4104 3.60812C10.4104 3.44261 10.2959 3.31848 10.1432 3.31848H3.81251C3.6598 3.31848 3.54528 3.44261 3.54528 3.60812C3.54528 3.77364 3.6598 3.89777 3.81251 3.89777H10.1623ZM10.4104 6.39987C10.4104 6.56538 10.2959 6.66882 10.1623 6.66882H7.75002C7.59732 6.66882 7.48279 6.54469 7.48279 6.39987C7.48279 6.23435 7.59732 6.13091 7.75002 6.13091H10.1623C10.2959 6.11022 10.4104 6.23435 10.4104 6.39987ZM18.4654 17.5106C18.4654 18.0278 18.0837 18.4416 17.6065 18.4416H2.3742C1.89699 18.4416 1.51523 18.0278 1.51523 17.5106V7.4143C1.51523 6.89708 1.89699 6.48329 2.3742 6.48329H4.74112C5.21832 6.48329 5.60008 6.89708 5.60008 7.4143C5.60008 8.24187 6.2109 8.90392 6.97442 8.90392H17.6447C18.1219 8.90392 18.5036 9.3177 18.5036 9.83493L18.4654 17.5106Z" fill="#9F9D9B"/>
<path d="M2.37434 6.63262H4.74126V6.33262H2.37434V6.63262ZM5.45023 7.41363C5.45023 8.31244 6.11706 9.05325 6.97457 9.05325V8.75325C6.30503 8.75325 5.75023 8.16996 5.75023 7.41363H5.45023ZM6.97457 9.05325H17.6448V8.75325H6.97457V9.05325ZM18.3538 9.83352L18.3156 17.5092L18.6156 17.5107L18.6538 9.83501L18.3538 9.83352ZM11.4221 1.55861H11.7221V1.25861H11.4221V1.55861ZM2.18346 1.55861V1.25861H1.88346V1.55861H2.18346ZM12.1474 7.59984L12.4375 7.6763L12.441 7.66327L12.4432 7.64998L12.1474 7.59984ZM13.14 1.74481L12.8477 1.67738L12.8457 1.68597L12.8442 1.69467L13.14 1.74481ZM12.3574 7.91017L12.3171 8.20746L12.3574 7.91017ZM12.6628 7.68259L12.3669 7.63185L12.3654 7.64339L12.6628 7.68259ZM13.6172 2.11721L13.6763 1.82309L13.3737 1.7623L13.3215 2.06651L13.6172 2.11721ZM18.0457 3.00685L18.3414 3.05724L18.3903 2.77009L18.1047 2.71272L18.0457 3.00685ZM17.263 7.59984L16.9673 7.54944L16.9659 7.55742L16.965 7.56546L17.263 7.59984ZM17.473 7.93086L17.4271 8.22733L17.4499 8.23086H17.473V7.93086ZM17.7593 7.70328L17.4633 7.65331L17.4619 7.66408L17.7593 7.70328ZM18.5801 2.84133L18.8759 2.89127L18.8772 2.88352L18.8781 2.8757L18.5801 2.84133ZM18.3701 2.51031L18.3108 2.80469L18.3242 2.80677L18.3701 2.51031ZM13.4454 1.51723L13.3435 1.79938L13.3644 1.80692L13.3861 1.81131L13.4454 1.51723ZM13.2545 1.55861L13.4302 1.80177V1.80177L13.2545 1.55861ZM19.0001 9.83426H19.3001L19.3 9.82734L19.0001 9.83426ZM10.1623 6.13091V6.43091H10.1854L10.2082 6.42737L10.1623 6.13091ZM18.4654 17.5106L18.1654 17.5091V17.5106H18.4654ZM18.5036 9.83493L18.8036 9.83643V9.83493H18.5036ZM1.36808 1.28965V4.02191H1.96808V1.28965H1.36808ZM1.91623 0.7C1.58099 0.7 1.36808 0.996827 1.36808 1.28965H1.96808C1.96808 1.27628 1.97245 1.27503 1.96766 1.2805C1.96296 1.28585 1.94583 1.3 1.91623 1.3V0.7ZM11.6702 0.7H1.91623V1.3H11.6702V0.7ZM12.2184 1.28965C12.2184 1.15138 12.1785 1.00687 12.0824 0.891108C11.982 0.770217 11.8351 0.7 11.6702 0.7V1.3C11.667 1.3 11.658 1.29916 11.6464 1.29374C11.6349 1.28836 11.6262 1.28095 11.6208 1.27441C11.6105 1.26209 11.6184 1.26241 11.6184 1.28965H12.2184ZM12.2184 7.64121V1.28965H11.6184V7.64121H12.2184ZM11.6702 8.21017C11.977 8.21017 12.2184 7.96488 12.2184 7.64121H11.6184C11.6184 7.64775 11.6173 7.64815 11.6188 7.64432C11.6203 7.64047 11.6236 7.63456 11.6295 7.62845C11.6422 7.61545 11.6583 7.61017 11.6702 7.61017V8.21017ZM11.1221 7.64121C11.1221 7.91252 11.3152 8.21017 11.6702 8.21017V7.61017C11.6734 7.61017 11.6815 7.611 11.6917 7.61565C11.7017 7.6202 11.7095 7.62652 11.7148 7.63257C11.7248 7.644 11.7221 7.64924 11.7221 7.64121H11.1221ZM11.1221 1.55861V7.64121H11.7221V1.55861H11.1221ZM2.18346 1.85861H11.4221V1.25861H2.18346V1.85861ZM2.48346 4.00122V1.55861H1.88346V4.00122H2.48346ZM1.93532 4.59087C2.27055 4.59087 2.48346 4.29404 2.48346 4.00122H1.88346C1.88346 4.01459 1.87909 4.01584 1.88389 4.01037C1.88858 4.00501 1.90571 3.99087 1.93532 3.99087V4.59087ZM1.36808 4.02191C1.36808 4.18776 1.44379 4.32902 1.54154 4.42489C1.63816 4.51964 1.7775 4.59087 1.93532 4.59087V3.99087C1.94828 3.99087 1.95618 3.9938 1.9589 3.99501C1.9616 3.9962 1.96204 3.99689 1.96164 3.9965C1.96129 3.99615 1.96239 3.99702 1.96394 4.00041C1.96564 4.00414 1.96808 4.01154 1.96808 4.02191H1.36808ZM12.4432 7.64998L13.4358 1.79495L12.8442 1.69467L11.8517 7.54969L12.4432 7.64998ZM12.3977 7.61289C12.4081 7.6143 12.4213 7.62151 12.43 7.6344C12.4384 7.64696 12.441 7.66298 12.4375 7.6763L11.8573 7.52337C11.7729 7.84358 11.9868 8.16271 12.3171 8.20746L12.3977 7.61289ZM12.3654 7.64339C12.3667 7.63334 12.3725 7.62427 12.3796 7.61891C12.3871 7.61329 12.3947 7.61248 12.3977 7.61289L12.3171 8.20746C12.6308 8.24995 12.919 8.03493 12.9602 7.7218L12.3654 7.64339ZM13.3215 2.06651L12.3671 7.63189L12.9585 7.7333L13.9129 2.16792L13.3215 2.06651ZM18.1047 2.71272L13.6763 1.82309L13.5581 2.41134L17.9866 3.30097L18.1047 2.71272ZM17.5588 7.65023L18.3414 3.05724L17.7499 2.95646L16.9673 7.54944L17.5588 7.65023ZM17.5189 7.6344C17.5332 7.63661 17.5447 7.64199 17.5524 7.64735C17.5597 7.65246 17.5627 7.65678 17.5632 7.65762C17.564 7.65884 17.5591 7.65115 17.5611 7.63421L16.965 7.56546C16.9328 7.84483 17.0919 8.17543 17.4271 8.22733L17.5189 7.6344ZM17.5112 7.63086H17.473V8.23086H17.5112V7.63086ZM17.4619 7.66408C17.4618 7.66501 17.4621 7.66213 17.4647 7.65722C17.4673 7.65245 17.4711 7.64761 17.476 7.64344C17.4851 7.63568 17.497 7.63086 17.5112 7.63086V8.23086C17.7698 8.23086 18.0172 8.04288 18.0568 7.74248L17.4619 7.66408ZM18.2843 2.79139L17.4635 7.65334L18.0551 7.75322L18.8759 2.89127L18.2843 2.79139ZM18.3242 2.80677C18.3099 2.80456 18.2985 2.79918 18.2908 2.79382C18.2834 2.78871 18.2805 2.78439 18.2799 2.78355C18.2791 2.78233 18.284 2.79002 18.2821 2.80697L18.8781 2.8757C18.9104 2.59633 18.7512 2.26574 18.4161 2.21384L18.3242 2.80677ZM13.3861 1.81131L18.3108 2.80439L18.4295 2.21623L13.5047 1.22315L13.3861 1.81131ZM13.4302 1.80177C13.4284 1.8031 13.4255 1.8051 13.4179 1.80686C13.4118 1.80826 13.3836 1.81389 13.3435 1.79938L13.5474 1.23508C13.3623 1.16821 13.1813 1.24141 13.0788 1.31545L13.4302 1.80177ZM13.4323 1.81223C13.4358 1.79744 13.439 1.79252 13.4385 1.79336C13.4382 1.79378 13.4373 1.79513 13.4357 1.79695C13.434 1.79878 13.4321 1.80044 13.4302 1.80177L13.0788 1.31544C12.9513 1.40758 12.8796 1.53886 12.8477 1.67738L13.4323 1.81223ZM17.6066 8.04464H6.95548V8.64465H17.6066V8.04464ZM19.3 9.82734C19.2777 8.86373 18.5588 8.04464 17.6066 8.04464V8.64465C18.1815 8.64465 18.6842 9.14967 18.7001 9.84118L19.3 9.82734ZM19.3001 17.5099V9.83426H18.7001V17.5099H19.3001ZM17.6257 19.2996C18.5772 19.2996 19.3001 18.48 19.3001 17.5099H18.7001C18.7001 18.195 18.2013 18.6996 17.6257 18.6996V19.2996ZM2.37434 19.2996H17.6257V18.6996H2.37434V19.2996ZM0.7 17.5099C0.7 18.48 1.42284 19.2996 2.37434 19.2996V18.6996C1.7988 18.6996 1.3 18.195 1.3 17.5099H0.7ZM0.7 7.41363V17.5099H1.3V7.41363H0.7ZM2.37434 5.62402C1.42284 5.62402 0.7 6.44359 0.7 7.41363H1.3C1.3 6.72855 1.7988 6.22402 2.37434 6.22402V5.62402ZM4.72217 5.62402H2.37434V6.22402H4.72217V5.62402ZM6.39652 7.41363C6.39652 6.44359 5.67368 5.62402 4.72217 5.62402V6.22402C5.29772 6.22402 5.79652 6.72855 5.79652 7.41363H6.39652ZM6.95548 8.04464C6.66626 8.04464 6.39652 7.78839 6.39652 7.41363H5.79652C5.79652 8.07334 6.2903 8.64465 6.95548 8.64465V8.04464ZM10.1104 3.60812C10.1104 3.62149 10.1061 3.62274 10.1108 3.61727C10.1155 3.61192 10.1327 3.59777 10.1623 3.59777V4.19777C10.4975 4.19777 10.7104 3.90095 10.7104 3.60812H10.1104ZM10.1432 3.61848C10.1402 3.61848 10.1347 3.61776 10.1282 3.61489C10.1218 3.6121 10.1169 3.60827 10.1136 3.60466C10.1064 3.59693 10.1104 3.59506 10.1104 3.60812H10.7104C10.7104 3.30013 10.4839 3.01848 10.1432 3.01848V3.61848ZM3.81251 3.61848H10.1432V3.01848H3.81251V3.61848ZM3.84528 3.60812C3.84528 3.59506 3.84926 3.59693 3.84212 3.60466C3.83879 3.60827 3.83385 3.6121 3.82752 3.61489C3.82102 3.61776 3.81549 3.61848 3.81251 3.61848V3.01848C3.47183 3.01848 3.24528 3.30013 3.24528 3.60812H3.84528ZM3.81251 3.59777C3.81549 3.59777 3.82102 3.59849 3.82752 3.60136C3.83385 3.60415 3.83879 3.60798 3.84212 3.61159C3.84926 3.61932 3.84528 3.62118 3.84528 3.60812H3.24528C3.24528 3.91611 3.47182 4.19777 3.81251 4.19777V3.59777ZM10.1623 3.59777H3.81251V4.19777H10.1623V3.59777ZM10.1623 6.96882C10.469 6.96882 10.7104 6.72353 10.7104 6.39987H10.1104C10.1104 6.4064 10.1094 6.4068 10.1108 6.40297C10.1123 6.39913 10.1156 6.39321 10.1215 6.38711C10.1342 6.3741 10.1504 6.36882 10.1623 6.36882V6.96882ZM7.75002 6.96882H10.1623V6.36882H7.75002V6.96882ZM7.18279 6.39987C7.18279 6.70204 7.42342 6.96882 7.75002 6.96882V6.36882C7.75298 6.36882 7.75762 6.36952 7.76271 6.37172C7.76755 6.37381 7.77145 6.37666 7.77435 6.37965C7.77987 6.38533 7.78279 6.39262 7.78279 6.39987H7.18279ZM7.75002 5.83091C7.60522 5.83091 7.46007 5.88086 7.34966 5.98857C7.23795 6.09754 7.18279 6.2452 7.18279 6.39987H7.78279C7.78279 6.39328 7.78386 6.39377 7.7818 6.39895C7.77967 6.40431 7.77543 6.41142 7.76862 6.41807C7.76192 6.42461 7.75524 6.42825 7.75074 6.42996C7.74643 6.43161 7.74573 6.43091 7.75002 6.43091V5.83091ZM10.1623 5.83091H7.75002V6.43091H10.1623V5.83091ZM10.7104 6.39987C10.7104 6.12575 10.4992 5.77517 10.1164 5.83444L10.2082 6.42737C10.1889 6.43036 10.1683 6.42807 10.1501 6.42107C10.1326 6.41438 10.1217 6.40518 10.116 6.39899C10.1052 6.38731 10.1104 6.3848 10.1104 6.39987H10.7104ZM17.6065 18.7416C18.2717 18.7416 18.7654 18.1703 18.7654 17.5106H18.1654C18.1654 17.8854 17.8957 18.1416 17.6065 18.1416V18.7416ZM2.3742 18.7416H17.6065V18.1416H2.3742V18.7416ZM1.21523 17.5106C1.21523 18.1703 1.70902 18.7416 2.3742 18.7416V18.1416C2.08497 18.1416 1.81523 17.8854 1.81523 17.5106H1.21523ZM1.21523 7.4143V17.5106H1.81523V7.4143H1.21523ZM2.3742 6.18329C1.70902 6.18329 1.21523 6.7546 1.21523 7.4143H1.81523C1.81523 7.03955 2.08497 6.78329 2.3742 6.78329V6.18329ZM4.74112 6.18329H2.3742V6.78329H4.74112V6.18329ZM5.90008 7.4143C5.90008 6.7546 5.4063 6.18329 4.74112 6.18329V6.78329C5.03034 6.78329 5.30008 7.03955 5.30008 7.4143H5.90008ZM6.97442 8.60392C6.39888 8.60392 5.90008 8.09939 5.90008 7.4143H5.30008C5.30008 8.38435 6.02292 9.20392 6.97442 9.20392V8.60392ZM17.6447 8.60392H6.97442V9.20392H17.6447V8.60392ZM18.8036 9.83493C18.8036 9.17523 18.3098 8.60392 17.6447 8.60392V9.20392C17.9339 9.20392 18.2036 9.46018 18.2036 9.83493H18.8036ZM18.7654 17.5121L18.8036 9.83643L18.2036 9.83344L18.1654 17.5091L18.7654 17.5121Z" fill="#9F9D9B" mask="url(#path-1-outside-1_104_45284)"/>
</svg>
