<svg width="60" height="60" viewBox="0 0 60 60" fill="none" xmlns="http://www.w3.org/2000/svg">
<path d="M35.4952 50.9019H8.6739C6.92739 50.9019 5.49276 49.4673 5.49276 47.7208V25.3281H49.9039V35.9319C50.5277 35.8695 51.089 35.8071 51.7128 35.8071C52.3365 35.8071 52.8979 35.8695 53.5217 35.9319V15.6599C53.5217 11.9174 50.4653 8.86102 46.7228 8.86102H43.5416V3.68388C43.5416 2.68588 42.7308 1.875 41.7327 1.875C40.7347 1.875 39.9239 2.68588 39.9239 3.68388V8.86102H29.5072V3.68388C29.5072 2.68588 28.6963 1.875 27.6983 1.875C26.7003 1.875 25.8895 2.68588 25.8895 3.68388V8.86102H15.4728V3.68388C15.4728 2.68588 14.6619 1.875 13.6639 1.875C12.6659 1.875 11.855 2.68588 11.855 3.68388V8.86102H8.6739C4.93138 8.86102 1.875 11.9174 1.875 15.6599V47.7208C1.875 51.4633 4.93138 54.5197 8.6739 54.5197H35.62C35.4952 53.7712 35.4329 52.9603 35.4329 52.1494C35.4329 51.7128 35.4329 51.2762 35.4952 50.9019ZM5.49276 15.6599C5.49276 13.9134 6.92739 12.4788 8.6739 12.4788H11.855V14.9738C11.855 15.9718 12.6659 16.7827 13.6639 16.7827C14.6619 16.7827 15.4728 15.9718 15.4728 14.9738V12.4788H25.8895V14.9738C25.8895 15.9718 26.7003 16.7827 27.6983 16.7827C28.6963 16.7827 29.5072 15.9718 29.5072 14.9738V12.4788H39.9239V14.9738C39.9239 15.9718 40.7347 16.7827 41.7327 16.7827C42.7308 16.7827 43.5416 15.9718 43.5416 14.9738V12.4788H46.7228C48.4693 12.4788 49.9039 13.9134 49.9039 15.6599V21.7103H5.49276V15.6599Z" fill="#9F9D9B"/>
<path d="M44.0625 30C36.3039 30 30 36.3039 30 44.0625C30 51.8211 36.3039 58.125 44.0625 58.125C51.8211 58.125 58.125 51.8211 58.125 44.0625C58.125 36.3039 51.8211 30 44.0625 30ZM44.0625 54.1071C38.5206 54.1071 34.0179 49.6044 34.0179 44.0625C34.0179 38.5206 38.5206 34.0179 44.0625 34.0179C49.6044 34.0179 54.1071 38.5206 54.1071 44.0625C54.1071 49.6044 49.6044 54.1071 44.0625 54.1071Z" fill="#9F9D9B"/>
<path d="M33.2812 38.9062L5.15625 17.8125L5.625 14.0625H3.75V48.75L7.5 53.9062H34.6875C30.4688 48.2812 30 41.7188 33.2812 38.9062Z" fill="#9F9D9B"/>
<path d="M42.7841 37.35C41.8514 37.35 41.1 38.1193 41.1 39.0625V45.3125C41.1 46.2557 41.8514 47.025 42.7841 47.025H48.1534C49.0861 47.025 49.8375 46.2557 49.8375 45.3125C49.8375 44.3693 49.0861 43.6 48.1534 43.6H44.4682V39.0625C44.4682 38.1193 43.7168 37.35 42.7841 37.35Z" fill="#9F9D9B" stroke="#9F9D9B" stroke-width="0.3"/>
</svg>
