<svg width="18" height="18" viewBox="0 0 18 18" fill="none" xmlns="http://www.w3.org/2000/svg">
<path d="M17.0004 8.9C16.5452 8.9 16.1731 9.27206 16.1731 9.7273V13.3638C16.1731 14.5086 15.2361 15.4457 14.0912 15.4457H3.90898C2.76416 15.4457 1.82707 14.5086 1.82707 13.3638V9.7273C1.82707 9.27206 1.45501 8.9 0.999765 8.9C0.544519 8.9 0.172461 9.27206 0.172461 9.7273V13.3638C0.172461 15.4264 1.84639 17.1003 3.90898 17.1003H14.0912C16.1538 17.1003 17.8277 15.4264 17.8277 13.3638V9.7273C17.8277 9.27206 17.4557 8.9 17.0004 8.9Z" fill="#9F9D9B" stroke="#9F9D9B" stroke-width="0.2"/>
<path d="M8.41098 12.1327L8.41124 12.133C8.48699 12.2087 8.5772 12.2654 8.66997 12.3117L8.66986 12.312L8.67622 12.3146C8.77426 12.3555 8.88185 12.3805 8.99833 12.3805C9.11604 12.3805 9.21581 12.3549 9.31788 12.3156L9.31789 12.3157L9.32044 12.3146C9.41764 12.2741 9.5103 12.216 9.58735 12.1311L13.5856 8.10374C13.5856 8.10369 13.5857 8.10365 13.5857 8.10361C13.9083 7.7809 13.9083 7.2522 13.5856 6.92954C13.2624 6.60636 12.7416 6.60763 12.4123 6.92866L12.4111 6.92982L9.82564 9.53578V1.7273C9.82564 1.27206 9.45358 0.9 8.99833 0.9C8.54309 0.9 8.17103 1.27206 8.17103 1.7273V9.53578L5.58554 6.92982L5.58526 6.92954C5.26207 6.60636 4.74123 6.60763 4.41197 6.92866L4.41196 6.92865L4.41107 6.92954C4.08788 7.25273 4.08915 7.77358 4.41018 8.10284L4.41018 8.10284L4.41081 8.10348L8.41098 12.1327Z" fill="#9F9D9B" stroke="#9F9D9B" stroke-width="0.2"/>
</svg>
