<svg width="24" height="24" viewBox="0 0 24 24" fill="none" xmlns="http://www.w3.org/2000/svg">
<circle cx="12" cy="12" r="12" fill="#FDCECE"/>
<path d="M12 4.5C10.5166 4.5 9.06659 4.93987 7.83323 5.76398C6.59986 6.58809 5.63856 7.75943 5.07091 9.12987C4.50325 10.5003 4.35472 12.0083 4.64411 13.4632C4.9335 14.918 5.64781 16.2544 6.6967 17.3033C7.7456 18.3522 9.08197 19.0665 10.5368 19.3559C11.9917 19.6453 13.4997 19.4967 14.8701 18.9291C16.2406 18.3614 17.4119 17.4001 18.236 16.1668C19.0601 14.9334 19.5 13.4834 19.5 12C19.4962 10.012 18.7048 8.10661 17.2991 6.70091C15.8934 5.29521 13.988 4.50381 12 4.5ZM14.7188 13.8966C14.8271 14.006 14.8879 14.1537 14.8879 14.3077C14.8879 14.4616 14.8271 14.6094 14.7188 14.7187C14.6085 14.8254 14.4611 14.885 14.3077 14.885C14.1543 14.885 14.0069 14.8254 13.8966 14.7187L12 12.8149L10.1034 14.7187C9.99309 14.8254 9.8457 14.885 9.69231 14.885C9.53892 14.885 9.39153 14.8254 9.28125 14.7187C9.17292 14.6094 9.11214 14.4616 9.11214 14.3077C9.11214 14.1537 9.17292 14.006 9.28125 13.8966L11.1851 12L9.28125 10.1034C9.18925 9.99127 9.14224 9.84896 9.14935 9.70413C9.15647 9.55929 9.2172 9.42228 9.31974 9.31974C9.42228 9.2172 9.55929 9.15646 9.70413 9.14935C9.84897 9.14224 9.99127 9.18925 10.1034 9.28125L12 11.1851L13.8966 9.28125C14.0087 9.18925 14.151 9.14224 14.2959 9.14935C14.4407 9.15646 14.5777 9.2172 14.6803 9.31974C14.7828 9.42228 14.8435 9.55929 14.8507 9.70413C14.8578 9.84896 14.8107 9.99127 14.7188 10.1034L12.8149 12L14.7188 13.8966Z" fill="#EB5757"/>
</svg>
