<svg width="21" height="16" viewBox="0 0 21 16" fill="none" xmlns="http://www.w3.org/2000/svg">
<path d="M12.2514 8.71329C11.5527 8.71329 10.9614 8.4713 10.4774 7.98734C9.99344 7.50337 9.75146 6.91203 9.75146 6.21331C9.75146 5.51461 9.99344 4.92328 10.4774 4.43931C10.9614 3.95535 11.5527 3.71336 12.2514 3.71336C12.9501 3.71336 13.5415 3.95535 14.0254 4.43931C14.5094 4.92328 14.7514 5.51461 14.7514 6.21331C14.7514 6.91203 14.5094 7.50337 14.0254 7.98734C13.5415 8.4713 12.9501 8.71329 12.2514 8.71329ZM5.65528 11.8094C5.15818 11.8094 4.73262 11.6324 4.37861 11.2784C4.02461 10.9244 3.84761 10.4989 3.84761 10.0018V2.42486C3.84761 1.92776 4.02461 1.5022 4.37861 1.14819C4.73262 0.794187 5.15818 0.617188 5.65528 0.617188H18.8475C19.3446 0.617188 19.7702 0.794187 20.1242 1.14819C20.4782 1.5022 20.6552 1.92776 20.6552 2.42486V10.0018C20.6552 10.4989 20.4782 10.9244 20.1242 11.2784C19.7702 11.6324 19.3446 11.8094 18.8475 11.8094H5.65528ZM7.15526 10.3095H17.3476C17.3476 9.81077 17.5246 9.38481 17.8786 9.03161C18.2326 8.6784 18.6581 8.50179 19.1553 8.50179V3.92484C18.6565 3.92484 18.2306 3.74784 17.8774 3.39384C17.5242 3.03982 17.3476 2.61426 17.3476 2.11716H7.15526C7.15526 2.61588 6.97826 3.04184 6.62426 3.39504C6.27024 3.74824 5.84468 3.92484 5.34758 3.92484V8.50179C5.8463 8.50179 6.27226 8.6788 6.62546 9.03281C6.97866 9.38681 7.15526 9.81237 7.15526 10.3095ZM17.6745 15.3094H2.15533C1.65821 15.3094 1.23266 15.1324 0.878656 14.7784C0.524656 14.4244 0.347656 13.9988 0.347656 13.5017V3.59796H1.84761V13.5017C1.84761 13.5787 1.87966 13.6492 1.94378 13.7133C2.00788 13.7774 2.0784 13.8094 2.15533 13.8094H17.6745V15.3094ZM5.65528 10.3095H5.34758V2.11716H5.65528C5.57195 2.11716 5.49983 2.14761 5.43893 2.20851C5.37803 2.26941 5.34758 2.34153 5.34758 2.42486V10.0018C5.34758 10.0851 5.37803 10.1572 5.43893 10.2181C5.49983 10.279 5.57195 10.3095 5.65528 10.3095Z" fill="#9F9D9B"/>
</svg>
