<svg width="18" height="16" viewBox="0 0 18 16" fill="none" xmlns="http://www.w3.org/2000/svg">
<path d="M7.26728 1.59768L7.2673 1.59767L7.26624 1.59635C6.91932 1.1627 6.39728 0.9 5.87051 0.9H3.23523C2.27412 0.9 1.48817 1.68595 1.48817 2.64705V3.65715C0.992768 3.92877 0.664648 4.44074 0.664648 5.03528V13.4353C0.664648 14.3173 1.45393 15.1 2.4117 15.1H15.5881C16.5424 15.1 17.3352 14.403 17.3352 13.4353V5.03528C17.3352 4.06756 16.5424 3.37058 15.5881 3.37058H8.63725L7.26728 1.59768ZM6.36698 2.21294L7.23521 3.37058H2.5117V2.64705C2.5117 2.21455 2.87208 1.92353 3.23523 1.92353H5.78816C6.01216 1.92353 6.22272 1.99682 6.36378 2.20841L6.36365 2.20849L6.36698 2.21294ZM15.5881 14.0764H2.4117C2.18737 14.0764 2.00819 14.0021 1.88536 13.8792C1.76252 13.7564 1.68818 13.5772 1.68818 13.3529V5.11763C1.68818 4.8933 1.76252 4.71413 1.88536 4.59129C2.00819 4.46845 2.18737 4.39411 2.4117 4.39411H15.5881C15.8125 4.39411 15.9916 4.46845 16.1145 4.59129C16.2373 4.71413 16.3117 4.8933 16.3117 5.11763V13.3529C16.3117 13.5772 16.2373 13.7564 16.1145 13.8792C15.9916 14.0021 15.8125 14.0764 15.5881 14.0764Z" fill="#9F9D9B" stroke="#9F9D9B" stroke-width="0.2"/>
</svg>
