<svg width="163" height="63" viewBox="0 0 163 63" fill="none" xmlns="http://www.w3.org/2000/svg">
<g clip-path="url(#clip0_2_94720)">
<path d="M68.6016 45.9435V43.8438H69.2413V45.9179C69.2413 46.596 69.5896 46.9549 70.1611 46.9549C70.7283 46.9549 71.0766 46.6159 71.0766 45.9449V43.8452H71.7163V45.9136C71.7163 47.0019 71.1021 47.549 70.1511 47.549C69.2043 47.5475 68.6016 47.0005 68.6016 45.9435Z" fill="white"/>
<path d="M74.0527 43.8438H74.6455L76.596 46.3652V43.8438H77.2257V47.492H76.6898L74.6825 44.8965V47.492H74.0527V43.8438Z" fill="white"/>
<path d="M79.6523 43.8438H80.2921V47.492H79.6523V43.8438Z" fill="white"/>
<path d="M82.4102 43.8438H83.1181L84.2156 46.6472L85.3074 43.8438H85.9997L84.4914 47.5176H83.9241L82.4102 43.8438Z" fill="white"/>
<path d="M88.0781 43.8438H90.7763V44.4164H88.7178V45.3652H90.5432V45.9378H88.7178V46.9179H90.8033V47.4906H88.0781V43.8438Z" fill="white"/>
<path d="M93.0195 43.8438H94.6416C95.0993 43.8438 95.4576 43.9791 95.6921 44.2084C95.884 44.4064 95.9935 44.6771 95.9935 44.9948V45.0047C95.9935 45.6045 95.6353 45.9635 95.1306 46.1088L96.1129 47.4891H95.3538L94.4596 46.217H93.6592V47.4891H93.0195V43.8438ZM94.5946 45.6529C95.0524 45.6529 95.3438 45.4136 95.3438 45.0432V45.0332C95.3438 44.6429 95.0638 44.4292 94.5904 44.4292H93.6592V45.6543H94.5946V45.6529Z" fill="white"/>
<path d="M97.9941 46.9597L98.3794 46.501C98.7277 46.803 99.0817 46.9754 99.528 46.9754C99.9232 46.9754 100.173 46.7873 100.173 46.5167V46.5067C100.173 46.246 100.028 46.105 99.3518 45.9497C98.577 45.7617 98.1406 45.5323 98.1406 44.8599V44.85C98.1406 44.2246 98.6609 43.793 99.383 43.793C99.9133 43.793 100.336 43.9539 100.704 44.2517L100.361 44.736C100.034 44.491 99.7057 44.3614 99.3731 44.3614C98.9992 44.3614 98.7803 44.5537 98.7803 44.7944V44.8044C98.7803 45.085 98.9466 45.2104 99.6489 45.3771C100.418 45.5651 100.815 45.8414 100.815 46.4455V46.4554C100.815 47.1378 100.279 47.5452 99.5138 47.5452C98.9551 47.5438 98.4306 47.35 97.9941 46.9597Z" fill="white"/>
<path d="M103.059 43.8438H103.698V47.492H103.059V43.8438Z" fill="white"/>
<path d="M106.127 43.8438H107.485C108.629 43.8438 109.419 44.6301 109.419 45.6572V45.6672C109.419 46.6942 108.629 47.4906 107.485 47.4906H106.127V43.8438ZM106.767 44.4278V46.9079H107.485C108.249 46.9079 108.748 46.3922 108.748 45.6785V45.6686C108.748 44.9549 108.249 44.4292 107.485 44.4292H106.767V44.4278Z" fill="white"/>
<path d="M112.686 43.8164H113.279L114.881 47.4903H114.204L113.835 46.6099H112.113L111.739 47.4903H111.084L112.686 43.8164ZM113.602 46.0415L112.972 44.5828L112.348 46.0415H113.602Z" fill="white"/>
<path d="M116.961 43.8438H118.319C119.463 43.8438 120.253 44.6301 120.253 45.6572V45.6672C120.253 46.6942 119.463 47.4906 118.319 47.4906H116.961V43.8438ZM117.601 44.4278V46.9079H118.319C119.083 46.9079 119.582 46.3922 119.582 45.6785V45.6686C119.582 44.9549 119.083 44.4292 118.319 44.4292H117.601V44.4278Z" fill="white"/>
<path d="M125.502 43.8438H126.86C128.004 43.8438 128.794 44.6301 128.794 45.6572V45.6672C128.794 46.6942 128.004 47.4906 126.86 47.4906H125.502V43.8438ZM126.142 44.4278V46.9079H126.86C127.624 46.9079 128.123 46.3922 128.123 45.6785V45.6686C128.123 44.9549 127.624 44.4292 126.86 44.4292H126.142V44.4278Z" fill="white"/>
<path d="M131.023 43.8438H133.722V44.4164H131.663V45.3652H133.488V45.9378H131.663V46.9179H133.749V47.4906H131.023V43.8438Z" fill="white"/>
<path d="M68.4141 53.866L68.7993 53.4073C69.1476 53.7093 69.5016 53.8816 69.948 53.8816C70.3432 53.8816 70.5934 53.6936 70.5934 53.4229V53.413C70.5934 53.1523 70.4484 53.0112 69.7717 52.856C68.9969 52.6679 68.5605 52.4386 68.5605 51.7662V51.7562C68.5605 51.1308 69.0808 50.6992 69.803 50.6992C70.3332 50.6992 70.7554 50.8602 71.1236 51.1579L70.781 51.6423C70.454 51.3972 70.1257 51.2676 69.793 51.2676C69.4191 51.2676 69.2002 51.4599 69.2002 51.7007V51.7106C69.2002 51.9913 69.3665 52.1166 70.0688 52.2833C70.8379 52.4713 71.2345 52.7477 71.2345 53.3517V53.3617C71.2345 54.044 70.6986 54.4514 69.9337 54.4514C69.3765 54.45 68.8519 54.2577 68.4141 53.866Z" fill="white"/>
<path d="M74.6549 50.7227H75.2477L76.8498 54.3965H76.1731L75.8035 53.5162H74.082L73.7081 54.3965H73.0527L74.6549 50.7227ZM75.5704 52.9478L74.9406 51.4891L74.3165 52.9478H75.5704Z" fill="white"/>
<path d="M78.9316 50.75H79.5245L81.4749 53.2714V50.75H82.1046V54.3982H81.5687L79.5614 51.8027V54.3982H78.9316V50.75Z" fill="white"/>
<path d="M87.5131 50.75H88.1941L89.3015 52.4751L90.4089 50.75H91.0899V54.3982H90.4502V51.7828L89.3015 53.5022H89.2802L88.1415 51.7928V54.3982H87.5117V50.75H87.5131Z" fill="white"/>
<path d="M94.774 50.7227H95.3668L96.9689 54.3965H96.2923L95.9227 53.5162H94.2011L93.8272 54.3965H93.1719L94.774 50.7227ZM95.6895 52.9478L95.0597 51.4891L94.4357 52.9478H95.6895Z" fill="white"/>
<path d="M99.0488 50.75H100.671C101.129 50.75 101.487 50.8853 101.721 51.1147C101.913 51.3127 102.023 51.5834 102.023 51.901V51.911C102.023 52.5107 101.665 52.8697 101.16 53.015L102.142 54.3954H101.383L100.489 53.1233H99.6885V54.3954H99.0488V50.75ZM100.625 52.5577C101.083 52.5577 101.375 52.3184 101.375 51.948V51.9381C101.375 51.5477 101.095 51.3341 100.621 51.3341H99.69V52.5592H100.625V52.5577Z" fill="white"/>
<path d="M105.145 51.344H103.99V50.75H106.944V51.344H105.79V54.3982H105.145V51.344Z" fill="white"/>
<path d="M109.113 50.7498H109.753V54.3981H109.113V50.7498ZM109.763 49.6914L110.334 49.9421L109.669 50.4478H109.18L109.763 49.6914Z" fill="white"/>
<path d="M112.182 50.75H112.774L114.725 53.2714V50.75H115.355V54.3982H114.819L112.811 51.8027V54.3982H112.182V50.75Z" fill="white"/>
<path d="M120.764 50.75H122.121C123.266 50.75 124.056 51.5363 124.056 52.5634V52.5734C124.056 53.6005 123.266 54.3968 122.121 54.3968H120.764V50.75ZM121.403 51.3341V53.8142H122.121C122.886 53.8142 123.385 53.2985 123.385 52.5848V52.5748C123.385 51.8611 122.886 51.3355 122.121 51.3355H121.403V51.3341Z" fill="white"/>
<path d="M126.285 50.75H128.983V51.3227H126.925V52.2714H128.75V52.8441H126.925V53.8241H129.01V54.3968H126.285V50.75Z" fill="white"/>
<path d="M134.244 50.75H135.68C136.533 50.75 137.063 51.2343 137.063 51.9694V51.9794C137.063 52.7971 136.408 53.2244 135.607 53.2244H134.885V54.3968H134.246V50.75H134.244ZM135.627 52.6461C136.111 52.6461 136.412 52.3754 136.412 51.995V51.9851C136.412 51.5577 136.105 51.3341 135.627 51.3341H134.884V52.6475H135.627V52.6461Z" fill="white"/>
<path d="M139.014 52.5836V52.5736C139.014 51.5465 139.804 50.6875 140.921 50.6875C142.04 50.6875 142.819 51.5365 142.819 52.5636V52.5736C142.819 53.6007 142.029 54.4597 140.91 54.4597C139.794 54.4582 139.014 53.6092 139.014 52.5836ZM142.15 52.5836V52.5736C142.15 51.8642 141.635 51.2758 140.911 51.2758C140.189 51.2758 139.685 51.8542 139.685 52.5636V52.5736C139.685 53.283 140.199 53.8656 140.921 53.8656C141.645 53.8642 142.15 53.2915 142.15 52.5836Z" fill="white"/>
<path d="M145.051 50.75H146.673C147.131 50.75 147.489 50.8853 147.723 51.1147C147.915 51.3127 148.025 51.5834 148.025 51.901V51.911C148.025 52.5107 147.667 52.8697 147.162 53.015L148.146 54.3954H147.386L146.492 53.1233H145.692V54.3954H145.052V50.75H145.051ZM146.627 52.5577C147.085 52.5577 147.377 52.3184 147.377 51.948V51.9381C147.377 51.5477 147.096 51.3341 146.623 51.3341H145.692V52.5592H146.627V52.5577Z" fill="white"/>
<path d="M150.268 50.75H151.89C152.347 50.75 152.706 50.8853 152.94 51.1147C153.132 51.3127 153.242 51.5834 153.242 51.901V51.911C153.242 52.5107 152.883 52.8697 152.379 53.015L153.361 54.3954H152.602L151.708 53.1233H150.907V54.3954H150.268V50.75ZM151.844 52.5577C152.302 52.5577 152.593 52.3184 152.593 51.948V51.9381C152.593 51.5477 152.313 51.3341 151.84 51.3341H150.909V52.5592H151.844V52.5577Z" fill="white"/>
<path d="M155.484 50.75H158.183V51.3227H156.124V52.2714H157.949V52.8441H156.124V53.8241H158.21V54.3968H155.484V50.75Z" fill="white"/>
<path d="M160.182 53.866L160.567 53.4073C160.915 53.7093 161.269 53.8816 161.716 53.8816C162.111 53.8816 162.361 53.6936 162.361 53.4229V53.413C162.361 53.1523 162.216 53.0112 161.539 52.856C160.764 52.6679 160.328 52.4386 160.328 51.7662V51.7562C160.328 51.1308 160.848 50.6992 161.571 50.6992C162.101 50.6992 162.523 50.8602 162.891 51.1579L162.549 51.6423C162.222 51.3972 161.893 51.2676 161.561 51.2676C161.187 51.2676 160.968 51.4599 160.968 51.7007V51.7106C160.968 51.9913 161.134 52.1166 161.836 52.2833C162.605 52.4713 163.002 52.7477 163.002 53.3517V53.3617C163.002 54.044 162.466 54.4514 161.701 54.4514C161.144 54.45 160.619 54.2577 160.182 53.866Z" fill="white"/>
<path d="M30.1841 0L28.1683 2.23794L26.1511 0L26.3046 3.01004L23.3008 2.85619L25.5341 4.87618L23.3008 6.89617L26.3046 6.74232L26.1511 9.75236L28.1669 7.51442L30.1827 9.75236L30.0292 6.74232L33.033 6.89617L30.7997 4.87618L33.033 2.85619L30.0292 3.01004L30.1841 0Z" fill="white"/>
<path d="M47.8694 32.214C47.8651 22.6896 47.868 13.6025 47.868 13.6025C47.868 13.6025 47.868 13.1537 47.868 12.7905C47.868 12.7021 47.868 12.6167 47.868 12.5469C44.5926 12.5469 36.4142 12.5469 28.2372 12.5469C20.2478 12.5469 12.2613 12.5469 8.84377 12.5469C8.76274 12.5469 8.68313 12.5469 8.60778 12.5469C8.60778 12.9059 8.60778 13.6025 8.60778 13.6025C8.60778 13.6025 8.61063 22.6896 8.60636 32.214C8.60494 34.0317 8.60494 35.8665 8.60352 37.6571C8.6021 39.3409 9.06269 40.8794 9.91139 42.3168C10.5312 43.3667 11.3955 44.2043 12.2641 45.0376C12.8086 45.5604 13.3659 46.0633 13.9331 46.5505C18.0301 50.0648 22.6887 52.6632 27.7652 54.5834C27.923 54.6433 28.0794 54.6718 28.2357 54.6775V54.6789C28.2372 54.6789 28.2386 54.6789 28.2386 54.6789C28.24 54.6789 28.2414 54.6789 28.2414 54.6789V54.6775C28.3978 54.6703 28.5528 54.6433 28.712 54.5834C33.7885 52.6646 38.447 50.0662 42.5441 46.5505C43.1113 46.0633 43.6686 45.5604 44.213 45.0376C45.0816 44.2057 45.946 43.3681 46.5658 42.3168C47.4145 40.8794 47.8751 39.3409 47.8736 37.6571C47.8722 35.8665 47.8708 34.0317 47.8694 32.214ZM43.7667 40.6558C43.3615 41.3424 42.6521 42.0233 41.9655 42.68C41.4054 43.2171 40.824 43.7299 40.2326 44.2313L28.2386 32.2126V51.27C23.6056 49.4466 19.6593 47.126 16.2446 44.2313L28.2386 32.2126H11.859C11.8618 25.5343 11.8604 19.0712 11.8604 15.8048H11.8647L28.2386 32.2126V15.8062H44.6125L28.2386 32.214H44.6182C44.6182 34.0331 44.6196 35.8679 44.621 37.6586C44.621 38.7013 44.3424 39.6814 43.7667 40.6558Z" fill="white"/>
<path d="M0.00976562 14.2164V13.4657C0.00976562 13.4286 0.0325111 13.403 0.0794237 13.3887L4.65838 12.45C4.70529 12.4357 4.72804 12.4542 4.72804 12.5055V13.2919C4.72804 13.3374 4.70529 13.3631 4.65838 13.3688L1.67587 13.8488V13.8688L4.65838 14.3275C4.70529 14.3318 4.72804 14.3574 4.72804 14.4044V15.1765C4.72804 15.2278 4.70529 15.2463 4.65838 15.2321L0.0794237 14.2876C0.0325111 14.2762 0.00976562 14.2534 0.00976562 14.2164Z" fill="white"/>
<path d="M0.0794237 19.1289H4.65838C4.70529 19.1289 4.72804 19.1517 4.72804 19.1987V21.2643C4.72804 21.3099 4.70529 21.3341 4.65838 21.3341H3.97886C3.93194 21.3341 3.9092 21.3113 3.9092 21.2643V20.0819C3.9092 20.0534 3.89498 20.0406 3.86797 20.0406H2.84158C2.81457 20.0406 2.80036 20.0549 2.80036 20.0819V21.1033C2.80036 21.1503 2.77619 21.1731 2.7307 21.1731H2.05118C2.00426 21.1731 1.98152 21.1503 1.98152 21.1033V20.0819C1.98152 20.0534 1.9673 20.0406 1.94029 20.0406H0.86983C0.84282 20.0406 0.828604 20.0549 0.828604 20.0819V21.2629C0.828604 21.3099 0.805858 21.3327 0.758946 21.3327H0.0794237C0.0325111 21.3327 0.00976562 21.3099 0.00976562 21.2629V19.1987C0.00976563 19.1531 0.0325111 19.1289 0.0794237 19.1289Z" fill="white"/>
<path d="M0.00976562 27.9739L0.0111872 27.1391C0.0111872 27.1021 0.0296679 27.0764 0.0666294 27.0622L1.85642 26.5266V26.2616C1.85642 26.2331 1.8422 26.2203 1.81519 26.2203H0.0808453C0.0339327 26.2203 0.0111872 26.1975 0.0111872 26.1505V25.3784C0.0111872 25.3314 0.0339327 25.3086 0.0808453 25.3086L4.6598 25.31C4.70671 25.31 4.72946 25.3328 4.72946 25.3798V26.5052C4.72946 27.4269 4.24896 27.8884 3.28654 27.8884C2.72217 27.8884 2.31986 27.7118 2.07961 27.3599L0.0794237 28.0095C0.0339327 28.028 0.00976562 28.0166 0.00976562 27.9739ZM2.63972 26.4653C2.63972 26.6462 2.68521 26.7759 2.77761 26.8542C2.87001 26.9326 3.03918 26.9725 3.2837 26.9725C3.52395 26.9725 3.69169 26.9326 3.78694 26.8542C3.88077 26.7759 3.9291 26.6462 3.9291 26.4653V26.263C3.9291 26.2345 3.91489 26.2217 3.88788 26.2217H2.68094C2.65393 26.2217 2.63972 26.236 2.63972 26.263V26.4653Z" fill="white"/>
<path d="M0.0774706 31.9648L4.65643 31.9663C4.70334 31.9663 4.72608 31.9891 4.72608 32.0361V32.8082C4.72608 32.8538 4.70192 32.878 4.65643 32.878L0.0774706 32.8765C0.030558 32.8765 0.0078125 32.8538 0.0078125 32.8067L0.00923409 32.0346C0.0078125 31.9891 0.030558 31.9648 0.0774706 31.9648Z" fill="white"/>
<path d="M0.0242298 38.538L6.27174e-05 37.7659C-0.00135888 37.7203 0.0213866 37.6961 0.0682992 37.6947L3.854 37.5807C3.88102 37.5793 3.89523 37.565 3.89381 37.538L3.87106 36.7944C3.86964 36.7473 3.89239 36.7246 3.93788 36.7231L4.6174 36.7032C4.66431 36.7018 4.68706 36.7246 4.68848 36.7701L4.7624 39.2503C4.76383 39.2958 4.7425 39.3201 4.69559 39.3215L4.01607 39.3414C3.97058 39.3428 3.94641 39.3201 3.94499 39.2745L3.92224 38.5309C3.92082 38.5024 3.9066 38.4896 3.87959 38.491L0.0938879 38.6064C0.0483969 38.6064 0.0256514 38.5836 0.0242298 38.538Z" fill="white"/>
<path d="M1.10549 43.7634L5.68445 42.7363C5.73278 42.7292 5.76406 42.742 5.77969 42.7762L6.12941 43.5183C6.14646 43.5568 6.13651 43.5896 6.09955 43.6166L2.39061 46.4928C2.35223 46.5213 2.3238 46.5141 2.3039 46.4728L1.97551 45.7748C1.95845 45.7363 1.9684 45.7036 2.00536 45.6765L2.71189 45.1736L2.32948 44.3631L1.48932 44.5839C1.44383 44.5953 1.41113 44.5825 1.39408 44.544L1.06569 43.846C1.04578 43.8004 1.05858 43.7748 1.10549 43.7634ZM3.03886 44.1708L3.30896 44.7434L4.66232 43.7733L4.65379 43.7548L3.03886 44.1708Z" fill="white"/>
<path d="M8.07538 51.0178C7.73277 51.3754 7.40296 51.5691 7.08879 51.6005C6.7732 51.6318 6.45049 51.4879 6.12068 51.1688C5.51651 50.5876 5.50229 49.9879 6.07519 49.3711C6.10647 49.3369 6.13774 49.3312 6.1676 49.354L6.78457 49.7842C6.82722 49.8127 6.8329 49.844 6.80163 49.8768C6.65378 50.0363 6.57133 50.1745 6.55427 50.2899C6.53721 50.4053 6.57702 50.5093 6.67368 50.6019C6.77035 50.6945 6.86844 50.7315 6.96795 50.7116C7.06747 50.6916 7.1883 50.6062 7.3333 50.4566C7.47689 50.307 7.56218 50.1774 7.58493 50.0677C7.60909 49.9594 7.58208 49.8184 7.5039 49.646L7.37595 49.3682C7.22526 49.0434 7.17266 48.7628 7.21673 48.5263C7.26222 48.2899 7.41434 48.0349 7.67733 47.7599C8.28293 47.1289 8.88569 47.1018 9.4856 47.6802C10.0585 48.2329 10.0884 48.8041 9.57374 49.3939C9.54246 49.4266 9.50834 49.4309 9.47565 49.4053L8.88853 48.9936C8.84446 48.9651 8.84019 48.9337 8.87147 48.901C9.10177 48.6474 9.13162 48.4366 8.95819 48.2699C8.78475 48.1032 8.58857 48.1332 8.37107 48.3597C8.24881 48.4864 8.18057 48.5976 8.16636 48.693C8.15214 48.7884 8.18626 48.9266 8.26871 49.109L8.39666 49.3867C8.54592 49.7044 8.59852 49.9851 8.55303 50.2272C8.50754 50.4708 8.3469 50.7329 8.07538 51.0178Z" fill="white"/>
<path d="M14.6506 57.6424L16.9891 53.6979C17.0133 53.658 17.0445 53.6494 17.0843 53.6737L17.7454 54.0682C17.7852 54.0925 17.7937 54.1238 17.7695 54.1637L15.8348 57.4259C15.8205 57.4501 15.8262 57.4686 15.849 57.4829L16.8754 58.094C16.9152 58.1182 16.9223 58.1495 16.8995 58.1894L16.5527 58.7749C16.5285 58.8148 16.4972 58.8233 16.4574 58.7991L14.6747 57.7364C14.6335 57.7136 14.6264 57.6823 14.6506 57.6424Z" fill="white"/>
<path d="M20.2907 60.6964L22.2099 56.5311C22.2298 56.4898 22.2597 56.4784 22.3023 56.4969L23.0017 56.8202C23.043 56.8402 23.0543 56.8701 23.0358 56.9128L21.1167 61.0782C21.0968 61.1195 21.0669 61.1309 21.0243 61.1124L20.3249 60.789C20.2822 60.7691 20.2708 60.7377 20.2907 60.6964Z" fill="white"/>
<path d="M25.8114 62.8007L26.2635 58.2351C26.2678 58.1895 26.2934 58.1681 26.3389 58.1724L27.5259 58.2906C27.9595 58.3334 28.2665 58.4659 28.4499 58.6867C28.6333 58.9075 28.703 59.2251 28.6617 59.6411C28.6106 60.1625 28.3973 60.483 28.0234 60.6041L28.022 60.6183C28.4059 60.7779 28.5679 61.1525 28.5111 61.7423C28.4613 62.2452 28.3134 62.5899 28.0661 62.7779C27.8202 62.966 27.4605 63.0358 26.9857 62.9888L25.874 62.8791C25.8271 62.8719 25.8058 62.8463 25.8114 62.8007ZM26.7881 62.1497C26.7852 62.1768 26.798 62.1924 26.825 62.1953L27.0255 62.2152C27.2188 62.2352 27.3567 62.2024 27.4392 62.1169C27.5216 62.0315 27.5756 61.8648 27.6012 61.6155C27.6254 61.3705 27.6055 61.1995 27.5401 61.1027C27.4747 61.0058 27.3453 60.9474 27.152 60.9289L26.9516 60.9089C26.9246 60.9061 26.9089 60.9189 26.9061 60.9474L26.7881 62.1497ZM27.0241 60.1895L27.2245 60.2095C27.4036 60.228 27.5302 60.2009 27.6027 60.1283C27.6737 60.0556 27.7221 59.9046 27.7448 59.6739C27.7676 59.4488 27.7505 59.2907 27.6936 59.2038C27.6368 59.1169 27.5188 59.0642 27.3397 59.0471L27.1392 59.0271C27.1108 59.0243 27.0951 59.0371 27.0937 59.0642L26.9871 60.1425C26.9843 60.171 26.9956 60.1867 27.0241 60.1895Z" fill="white"/>
<path d="M33.5945 61.8382L31.7664 57.6316C31.7479 57.5888 31.7592 57.5589 31.8019 57.5404L33.6898 56.7156C33.7324 56.6971 33.7623 56.7085 33.7807 56.7512L34.0523 57.3751C34.0708 57.4179 34.058 57.4478 34.0167 57.4663L32.9349 57.9378C32.9093 57.9492 32.9022 57.9678 32.9136 57.9934L33.323 58.9364C33.3344 58.9621 33.3528 58.9692 33.3784 58.9578L34.3138 58.5504C34.3551 58.5319 34.3863 58.5433 34.4048 58.586L34.6764 59.2114C34.6948 59.2541 34.6835 59.284 34.6408 59.3025L33.7054 59.71C33.6798 59.7214 33.6727 59.7399 33.6827 59.7655L34.1091 60.747C34.1191 60.7727 34.1376 60.7798 34.1646 60.7684L35.245 60.2969C35.2876 60.2783 35.3175 60.2897 35.336 60.3325L35.6075 60.9564C35.626 60.9992 35.6132 61.0291 35.572 61.0476L33.6827 61.8724C33.6443 61.8938 33.613 61.8809 33.5945 61.8382Z" fill="white"/>
<path d="M41.7807 57.7389L41.0628 58.1591C41.0301 58.1776 40.9988 58.1748 40.9689 58.1492L39.6056 56.8699L39.3782 57.0024C39.354 57.0166 39.3498 57.0352 39.364 57.0594L40.2368 58.5608C40.261 58.6007 40.2525 58.6321 40.2127 58.6563L39.5474 59.0452C39.5076 59.068 39.4763 59.0594 39.4521 59.0195L37.1463 55.0565C37.1221 55.0166 37.1306 54.9853 37.1705 54.961L38.1414 54.3941C38.9361 53.9297 39.5758 54.1134 40.0605 54.9454C40.3449 55.434 40.396 55.8713 40.2141 56.2559L41.7778 57.6591C41.8148 57.6919 41.8162 57.7175 41.7807 57.7389ZM39.1564 56.2232C39.3114 56.132 39.4009 56.0266 39.4223 55.9069C39.4436 55.7873 39.3924 55.6206 39.2687 55.4083C39.1479 55.2004 39.0299 55.075 38.9133 55.0323C38.7968 54.9895 38.6617 55.0138 38.5067 55.1049L38.3319 55.2061C38.3077 55.2203 38.3035 55.2388 38.3177 55.263L38.9261 56.3087C38.9403 56.3329 38.9588 56.3371 38.983 56.3229L39.1564 56.2232Z" fill="white"/>
<path d="M45.1273 55.4023L43.1228 51.1501C43.1057 51.1045 43.1114 51.0717 43.1413 51.0489L43.7867 50.5447C43.8194 50.519 43.8535 50.5219 43.889 50.5532L47.5013 53.549C47.5369 53.5803 47.5369 53.6103 47.4999 53.6387L46.8915 54.1131C46.8588 54.1388 46.8246 54.1359 46.7891 54.1046L46.1437 53.5248L45.4386 54.0761L45.8366 54.8482C45.858 54.8909 45.8523 54.9251 45.8196 54.9493L45.2125 55.4237C45.1756 55.4522 45.1472 55.4451 45.1273 55.4023ZM45.1002 53.4236L45.5978 53.0347L44.3567 51.9236L44.3411 51.9364L45.1002 53.4236Z" fill="white"/>
<path d="M50.6776 50.6862L47.3255 47.5608C47.2914 47.5294 47.29 47.4967 47.3213 47.4625L48.1344 46.5864C48.4301 46.2673 48.7215 46.1021 49.0073 46.0907C49.293 46.0778 49.5887 46.2146 49.8929 46.4981C50.2753 46.8542 50.4019 47.2189 50.2711 47.5907L50.281 47.5993C50.6407 47.3898 51.0373 47.4867 51.4695 47.8913C51.8391 48.236 52.0225 48.5622 52.0225 48.8728C52.0211 49.1833 51.859 49.5124 51.5349 49.8628L50.7743 50.6819C50.743 50.7176 50.7103 50.719 50.6776 50.6862ZM49.3385 48.1377L49.475 47.9896C49.5972 47.8571 49.6527 47.7403 49.6399 47.6391C49.6257 47.538 49.5347 47.4084 49.3655 47.2502C49.1992 47.095 49.0641 47.0138 48.9618 47.0066C48.858 46.9995 48.7443 47.0608 48.622 47.1933L48.4856 47.3414C48.4671 47.3614 48.4671 47.3813 48.4884 47.4012L49.2802 48.1391C49.2987 48.1591 49.3186 48.1591 49.3385 48.1377ZM50.753 49.5124C50.7729 49.5309 50.7928 49.5309 50.8113 49.511L50.9478 49.3628C51.08 49.2204 51.1382 49.0907 51.1212 48.9725C51.1041 48.8557 51.0032 48.7118 50.8198 48.5409C50.6407 48.3742 50.4928 48.2859 50.3763 48.2788C50.2597 48.2716 50.136 48.3386 50.0038 48.481L49.8673 48.6292C49.8489 48.6491 49.8489 48.6691 49.8702 48.6876L50.753 49.5124Z" fill="white"/>
<path d="M54.9806 44.5117L50.7243 42.8222C50.6802 42.8052 50.6674 42.7752 50.6859 42.7325L50.9688 42.0145C50.9859 41.9718 51.0157 41.959 51.0598 41.9761L55.3161 43.667C55.3587 43.6841 55.3715 43.714 55.3544 43.7567L55.0701 44.4747C55.0545 44.516 55.0232 44.5288 54.9806 44.5117Z" fill="white"/>
<path d="M56.4395 37.1482L56.4409 37.9203C56.4409 37.9659 56.4182 37.9901 56.3713 37.9901L52.5841 37.993C52.5571 37.993 52.5429 38.0072 52.5429 38.0343L52.5443 38.7779C52.5443 38.8249 52.5216 38.8477 52.4747 38.8477H51.7952C51.7482 38.8477 51.7255 38.8249 51.7255 38.7779L51.7227 36.2964C51.7227 36.2494 51.7468 36.2266 51.7923 36.2266H52.4718C52.5173 36.2266 52.5415 36.2494 52.5415 36.2964V37.0385C52.5429 37.067 52.5557 37.0799 52.5827 37.0799L56.3698 37.077C56.4153 37.0784 56.4395 37.1012 56.4395 37.1482Z" fill="white"/>
<path d="M56.4351 26.1702V26.9209C56.4351 26.958 56.4109 26.9836 56.3654 26.9979L51.7865 27.9366C51.7395 27.9509 51.7168 27.9323 51.7168 27.8811V27.0947C51.7168 27.0491 51.7395 27.0235 51.7865 27.0178L54.769 26.5377V26.5164L51.7865 26.0577C51.741 26.0534 51.7168 26.0277 51.7168 25.9807V25.2086C51.7168 25.1574 51.741 25.1388 51.7865 25.1531L56.3654 26.0975C56.4109 26.1104 56.4351 26.1332 56.4351 26.1702Z" fill="white"/>
<path d="M56.4963 20.1227C56.4963 20.7538 56.2304 21.1569 55.6987 21.3321C55.5879 21.3734 55.4357 21.4005 55.2438 21.4119C55.0519 21.4233 54.6624 21.429 54.0753 21.429C53.4882 21.429 53.0986 21.4233 52.9067 21.4119C52.7148 21.4005 52.5641 21.3734 52.4518 21.3321C51.9201 21.1569 51.6543 20.7523 51.6543 20.1227C51.6543 19.4916 51.9201 19.0885 52.4518 18.9133C52.5627 18.872 52.7134 18.8449 52.9067 18.8335C53.0986 18.8221 53.4882 18.8164 54.0753 18.8164C54.6624 18.8164 55.0533 18.8221 55.2438 18.8335C55.4357 18.8449 55.5864 18.872 55.6987 18.9133C56.2304 19.0899 56.4963 19.4931 56.4963 20.1227ZM55.6774 20.1227C55.676 19.9475 55.6006 19.8349 55.4485 19.7894C55.3462 19.7566 54.8884 19.7409 54.0739 19.7409C53.2607 19.7409 52.8015 19.758 52.7006 19.7894C52.5471 19.8349 52.4717 19.9475 52.4717 20.1227C52.4717 20.2993 52.5485 20.4105 52.7006 20.456C52.8029 20.4888 53.2607 20.5045 54.0739 20.5045C54.8884 20.5045 55.3462 20.4874 55.4485 20.456C55.6006 20.4105 55.6774 20.2993 55.6774 20.1227Z" fill="white"/>
<path d="M55.0334 12.332C55.5281 12.332 55.8963 12.436 56.1366 12.6412C56.3768 12.8477 56.4977 13.1796 56.4977 13.6383C56.4977 14.4774 56.0769 14.9033 55.2353 14.9176C55.1898 14.9176 55.1642 14.899 55.1585 14.862L55.0405 14.1184C55.032 14.0671 55.0491 14.0415 55.096 14.0415C55.3135 14.0372 55.4699 14.0016 55.5637 13.9332C55.6589 13.8663 55.7058 13.7651 55.7058 13.6312C55.7058 13.4973 55.6646 13.4004 55.5807 13.3435C55.4983 13.285 55.3519 13.2566 55.1443 13.2566C54.9368 13.2566 54.7846 13.285 54.6894 13.3435C54.5956 13.4019 54.5131 13.5187 54.4435 13.6953L54.3326 13.9802C54.2032 14.3136 54.0369 14.5472 53.8364 14.6782C53.636 14.8107 53.3446 14.8762 52.965 14.8762C52.0907 14.8762 51.6543 14.4589 51.6543 13.6255C51.6543 12.8278 52.0452 12.4118 52.8271 12.3748C52.874 12.3748 52.8982 12.3961 52.9039 12.4374L53.0148 13.1469C53.0233 13.1981 53.0062 13.2238 52.9593 13.2238C52.6181 13.2338 52.4461 13.3591 52.4461 13.5984C52.4461 13.8392 52.6025 13.9603 52.9167 13.9603C53.093 13.9603 53.2209 13.9318 53.2991 13.8777C53.3773 13.8221 53.454 13.701 53.528 13.5158L53.6388 13.2309C53.7639 12.9018 53.9303 12.6696 54.135 12.5357C54.3411 12.399 54.6411 12.332 55.0334 12.332Z" fill="white"/>
<path d="M70.8487 15.8633V29.2325C70.8487 29.9249 70.9425 30.6442 71.1316 31.3893C71.3206 32.1343 71.6348 32.8224 72.0741 33.452C72.5133 34.0816 73.0891 34.5959 73.8027 34.9948C74.5149 35.3936 75.3949 35.5931 76.4412 35.5931C77.4889 35.5931 78.3675 35.3936 79.0797 34.9948C79.7919 34.5959 80.3676 34.0816 80.8083 33.452C81.249 32.8224 81.5618 32.1357 81.7509 31.3893C81.9399 30.6442 82.0338 29.9249 82.0338 29.2325V15.8633H85.0504V29.704C85.0504 31.0061 84.83 32.1856 84.3908 33.2454C83.9515 34.3053 83.343 35.2241 82.5683 36.0005C81.7935 36.7769 80.8823 37.3752 79.8346 37.7954C78.7868 38.2156 77.6567 38.425 76.4412 38.425C75.2257 38.425 74.0956 38.2156 73.0479 37.7954C72.0001 37.3752 71.0889 36.7783 70.3141 36.0005C69.5394 35.2241 68.9323 34.3053 68.4916 33.2454C68.051 32.1856 67.832 31.0046 67.832 29.704V15.8633H70.8487Z" fill="white"/>
<path d="M107.703 31.7625C107.703 30.469 107.427 29.4391 106.882 28.6969C106.339 27.9604 105.658 27.3664 104.855 26.9305C104.055 26.4974 103.171 26.1555 102.227 25.9148C101.287 25.674 100.408 25.4005 99.6151 25.1014C98.8247 24.8037 98.1552 24.4105 97.6235 23.9347C97.0975 23.4646 96.8317 22.778 96.8317 21.8919C96.8317 21.5771 96.8985 21.2281 97.0307 20.8534C97.1629 20.4802 97.3946 20.1269 97.7187 19.8021C98.0443 19.4773 98.4821 19.2067 99.0238 19.0001C99.5654 18.7921 100.255 18.6867 101.077 18.6867C101.937 18.6867 102.714 18.8577 103.389 19.1938C104.063 19.53 104.591 19.9816 104.957 20.5343L104.992 20.5856L107.515 18.3591L107.484 18.3192C106.645 17.3291 105.671 16.671 104.561 16.3476C103.534 16.0485 102.461 15.8946 101.347 15.8718C101.257 15.8704 101.168 15.8633 101.077 15.8633H101.075H101.074C99.7331 15.8633 98.5859 16.0599 97.6334 16.4545C96.6796 16.8491 95.9005 17.3391 95.2935 17.9246C94.6865 18.5115 94.2401 19.1582 93.9586 19.8648C93.6757 20.5728 93.5336 21.2395 93.5336 21.8663C93.5336 22.9261 93.6914 23.8179 94.0055 24.5444C94.1093 24.7908 94.2287 25.0188 94.3666 25.2267C94.9083 26.0444 95.5892 26.7054 96.3924 27.1897C97.1928 27.6727 98.077 28.0559 99.0223 28.3265C99.9563 28.5943 100.835 28.8792 101.635 29.1698C102.426 29.459 103.097 29.8209 103.63 30.2482C104.154 30.6685 104.42 31.2896 104.42 32.093C104.42 32.6628 104.287 33.1714 104.024 33.6044C103.759 34.0389 103.414 34.4093 102.994 34.7056C102.575 35.0019 102.104 35.2284 101.593 35.3765C101.081 35.5247 100.572 35.6002 100.081 35.6002C99.2 35.6002 98.3314 35.4136 97.5027 35.0461C96.6753 34.6799 95.9858 34.103 95.4541 33.3295L95.4214 33.2811L92.8555 35.4207L92.8768 35.4506C93.6302 36.462 94.6467 37.2099 95.9247 37.6943C96.8871 38.0604 97.8908 38.2869 98.9356 38.3766C99.2825 38.4079 99.635 38.4236 99.989 38.4236C101.05 38.4236 102.06 38.2712 102.996 37.9678C103.435 37.8253 103.847 37.6515 104.234 37.4492C104.672 37.2227 105.075 36.962 105.442 36.6615C106.133 36.0959 106.683 35.3979 107.091 34.5688C107.499 33.7398 107.704 32.8095 107.704 31.7796C107.704 31.7753 107.704 31.771 107.704 31.7668C107.703 31.7668 107.703 31.7639 107.703 31.7625Z" fill="white"/>
<path d="M116.035 15.8633H120.527L127.596 32.7383H127.722L134.727 15.8633H139.219V38.4236H136.203V19.8306H136.14L128.52 38.425H126.732L119.112 19.8306H119.05V38.425H116.033V15.8633H116.035Z" fill="white"/>
<path d="M148.044 15.8633H155.867C157.292 15.8633 158.465 16.0584 159.386 16.4459C160.307 16.8348 161.035 17.3277 161.569 17.926C162.104 18.5243 162.475 19.1967 162.685 19.9417C162.894 20.6868 163 21.4061 163 22.0985C163 22.7908 162.894 23.5102 162.685 24.2552C162.475 25.0002 162.104 25.6726 161.569 26.2709C161.035 26.8692 160.307 27.3621 159.386 27.751C158.465 28.1399 157.292 28.3336 155.867 28.3336H151.06V38.425H148.043V15.8633H148.044ZM151.061 25.6854H155.02C155.606 25.6854 156.187 25.6384 156.763 25.543C157.339 25.449 157.852 25.2752 158.303 25.023C158.753 24.7709 159.114 24.4091 159.386 23.9375C159.657 23.4646 159.794 22.8506 159.794 22.0956C159.794 21.3406 159.657 20.7266 159.386 20.2537C159.113 19.7822 158.752 19.4189 158.303 19.1682C157.852 18.9161 157.339 18.7437 156.763 18.6482C156.187 18.5542 155.606 18.5072 155.02 18.5072H151.061V25.6854Z" fill="white"/>
</g>
<defs>
<clipPath id="clip0_2_94720">
<rect width="163" height="63" fill="white"/>
</clipPath>
</defs>
</svg>
