<svg width="54" height="57" viewBox="0 0 54 57" fill="none" xmlns="http://www.w3.org/2000/svg">
<g clip-path="url(#clip0_2_20411)">
<path d="M41.5068 15.5962C41.5061 15.384 41.5012 15.1729 41.4916 14.9629V2.98724L38.1809 6.298C35.4712 2.98125 31.3491 0.862793 26.732 0.862793C21.927 0.862793 17.6584 3.15628 14.96 6.7081L20.3867 12.1919C20.9185 11.2084 21.674 10.3636 22.585 9.72553C23.5324 8.98619 24.8748 8.38168 26.7318 8.38168C26.9561 8.38168 27.1293 8.40789 27.2565 8.45728C29.5573 8.63888 31.5516 9.90862 32.7259 11.7516L28.8845 15.5929C33.7501 15.5738 39.2466 15.5626 41.5063 15.5953" fill="#1C3AA9"/>
<path d="M26.6455 0.863281C26.4333 0.863986 26.2222 0.868883 26.0122 0.878396H14.0366L17.3473 4.18916C14.0306 6.89884 11.9121 11.021 11.9121 15.6381C11.9121 20.443 14.2056 24.7117 17.7574 27.4101L23.2412 21.9833C22.2577 21.4515 21.4129 20.696 20.7748 19.785C20.0355 18.8376 19.431 17.4952 19.431 15.6383C19.431 15.4139 19.4572 15.2408 19.5066 15.1136C19.6882 12.8128 20.9579 10.8184 22.8009 9.64417L26.6422 13.4855C26.6231 8.61998 26.6119 3.12347 26.6447 0.863704" fill="#4285F4"/>
<path d="M11.9131 15.6377C11.9138 15.8499 11.9187 16.061 11.9282 16.271V28.2467L15.239 24.9359C17.9486 28.2527 22.0708 30.3711 26.6879 30.3711C31.4928 30.3711 35.7615 28.0776 38.4599 24.5258L33.0331 19.042C32.5013 20.0255 31.7458 20.8703 30.8348 21.5084C29.8874 22.2477 28.545 22.8522 26.6881 22.8522C26.4637 22.8522 26.2906 22.826 26.1634 22.7766C23.8626 22.595 21.8683 21.3253 20.694 19.4823L24.5353 15.641C19.6698 15.6601 14.1733 15.6713 11.9135 15.6385" fill="#ABABAB"/>
<path d="M14.4058 36.0929C14.0459 36.0929 13.7232 36.1611 13.4378 36.2976C13.1523 36.431 12.9103 36.6218 12.7118 36.87C12.5163 37.1182 12.3659 37.4192 12.2604 37.7728C12.158 38.1234 12.1068 38.5159 12.1068 38.9502V40.2021C12.1068 40.6395 12.158 41.0335 12.2604 41.3841C12.3658 41.7347 12.5148 42.0341 12.7071 42.2823C12.8995 42.5305 13.1322 42.7213 13.4052 42.8547C13.6782 42.9881 13.9853 43.0548 14.3266 43.0548C14.6772 43.0548 14.9844 43.0036 15.2481 42.9013C15.5149 42.7989 15.7383 42.6515 15.9182 42.4592C16.0982 42.2637 16.2362 42.0279 16.3324 41.7518C16.4317 41.4757 16.4906 41.1623 16.5092 40.8117H15.6483C15.6266 41.0816 15.5893 41.3128 15.5366 41.5051C15.4839 41.6944 15.4063 41.8511 15.3039 41.9751C15.2046 42.0961 15.0743 42.1861 14.913 42.2451C14.7548 42.3009 14.5593 42.3288 14.3266 42.3288C14.0784 42.3288 13.8674 42.2745 13.6937 42.166C13.52 42.0543 13.3788 41.9022 13.2702 41.7099C13.1647 41.5175 13.0872 41.2926 13.0375 41.0351C12.991 40.7776 12.9677 40.4999 12.9677 40.2021V38.9409C12.9677 38.6214 12.9957 38.3313 13.0515 38.0706C13.1104 37.81 13.1989 37.5882 13.3168 37.4051C13.4347 37.2221 13.5836 37.0809 13.7635 36.9817C13.9435 36.8793 14.1576 36.8281 14.4057 36.8281C14.6136 36.8281 14.792 36.8591 14.9409 36.9212C15.0898 36.9801 15.2139 37.0732 15.3132 37.2004C15.4125 37.3245 15.4885 37.4827 15.5412 37.6751C15.594 37.8674 15.6297 38.097 15.6483 38.3638H16.5092C16.4937 37.9977 16.4363 37.6735 16.337 37.3912C16.2378 37.1088 16.0997 36.8715 15.9229 36.6791C15.746 36.4868 15.5304 36.341 15.276 36.2417C15.0247 36.1424 14.7346 36.0928 14.4057 36.0928L14.4058 36.0929ZM35.4222 36.0929C35.0623 36.0929 34.7397 36.1611 34.4542 36.2976C34.1688 36.431 33.9268 36.6218 33.7282 36.87C33.5328 37.1182 33.3823 37.4192 33.2768 37.7728C33.1744 38.1234 33.1233 38.5159 33.1233 38.9502V40.2021C33.1233 40.6395 33.1744 41.0335 33.2768 41.3841C33.3823 41.7347 33.5312 42.0341 33.7236 42.2823C33.916 42.5305 34.1486 42.7213 34.4216 42.8547C34.6947 42.9881 35.0018 43.0548 35.3431 43.0548C35.6937 43.0548 36.0008 43.0036 36.2645 42.9013C36.5314 42.7989 36.7547 42.6515 36.9347 42.4592C37.1146 42.2637 37.2527 42.0279 37.3489 41.7518C37.4482 41.4757 37.5071 41.1623 37.5257 40.8117H36.6648C36.6431 41.0816 36.6058 41.3128 36.5531 41.5051C36.5004 41.6944 36.4228 41.8511 36.3204 41.9751C36.2211 42.0961 36.0908 42.1861 35.9295 42.2451C35.7713 42.3009 35.5758 42.3288 35.3431 42.3288C35.0949 42.3288 34.8839 42.2745 34.7102 42.166C34.5365 42.0543 34.3953 41.9022 34.2867 41.7099C34.1812 41.5175 34.1037 41.2926 34.054 41.0351C34.0075 40.7776 33.9842 40.4999 33.9842 40.2021V38.9409C33.9842 38.6214 34.0122 38.3313 34.068 38.0706C34.127 37.81 34.2154 37.5882 34.3333 37.4051C34.4512 37.2221 34.6001 37.0809 34.78 36.9817C34.96 36.8793 35.174 36.8281 35.4222 36.8281C35.6301 36.8281 35.8085 36.8591 35.9574 36.9212C36.1063 36.9801 36.2304 37.0732 36.3297 37.2004C36.429 37.3245 36.505 37.4827 36.5577 37.6751C36.6105 37.8674 36.6461 38.097 36.6648 38.3638H37.5257C37.5101 37.9977 37.4528 37.6735 37.3535 37.3912C37.2542 37.1088 37.1161 36.8715 36.9393 36.6791C36.7625 36.4868 36.5468 36.341 36.2924 36.2417C36.0411 36.1424 35.7511 36.0928 35.4222 36.0928L35.4222 36.0929ZM19.3111 36.1859L17.1285 42.9617H18.0034L18.5293 41.1933H20.8189L21.3541 42.9617H22.229L20.0417 36.1859H19.3111ZM23.1503 36.1859V42.9617H24.0019V40.3091H25.3096C25.6354 40.3091 25.9239 40.2641 26.1752 40.1741C26.4265 40.081 26.6375 39.9476 26.8081 39.7739C26.9819 39.6001 27.1122 39.3861 27.199 39.1317C27.289 38.8742 27.334 38.5826 27.334 38.2568C27.334 37.9558 27.289 37.6797 27.199 37.4284C27.1121 37.174 26.9834 36.9553 26.8128 36.7722C26.6421 36.5861 26.4296 36.4418 26.1752 36.3394C25.9239 36.237 25.6354 36.1858 25.3096 36.1858L23.1503 36.1859ZM27.9855 36.1859V36.9212H29.7632V42.9617H30.6148V36.9212H32.3972V36.1859H27.9855ZM38.6752 36.1859V42.9617H39.5268V39.8297H42.2539V42.9617H43.1102V36.1859H42.2539V39.0992H39.5268V36.1859H38.6752ZM46.3399 36.1859L44.1572 42.9617H45.0322L45.558 41.1933H47.8477L48.3828 42.9617H49.2577L47.0705 36.1859H46.3399ZM24.0018 36.9212H25.3095C25.5174 36.9212 25.6942 36.9584 25.8401 37.0329C25.989 37.1074 26.11 37.2066 26.2031 37.3307C26.2992 37.4548 26.369 37.5991 26.4125 37.7635C26.459 37.9249 26.4823 38.0924 26.4823 38.2661C26.4823 38.4585 26.459 38.6353 26.4125 38.7967C26.369 38.9549 26.2992 39.093 26.2031 39.2109C26.11 39.3256 25.989 39.4156 25.8401 39.4808C25.6942 39.5459 25.5174 39.5785 25.3095 39.5785H24.0018V36.9212ZM19.674 37.3773L20.6001 40.4581H18.7526L19.674 37.3773ZM46.7027 37.3773L47.6288 40.4581H45.7813L46.7027 37.3773ZM6.61601 37.8334C6.40194 37.8334 6.21733 37.8877 6.0622 37.9962C5.91018 38.1048 5.78297 38.2522 5.6806 38.4383L5.66664 37.9264H4.86621V42.9618H5.68993V39.3596C5.76749 39.1456 5.87763 38.9765 6.02034 38.8524C6.16616 38.7283 6.35076 38.6662 6.57415 38.6662C6.64551 38.6662 6.70911 38.6694 6.76495 38.6755C6.8208 38.6787 6.8813 38.6864 6.94645 38.6988L6.9418 37.8984C6.92938 37.8921 6.90922 37.8859 6.8813 37.8797C6.85648 37.8704 6.82855 37.8626 6.79753 37.8565C6.7665 37.8503 6.73393 37.8456 6.6998 37.8425C6.66877 37.8363 6.64085 37.8332 6.61603 37.8332L6.61601 37.8334ZM9.38498 37.8334C9.14609 37.8334 8.91495 37.8752 8.69158 37.959C8.4682 38.0428 8.26965 38.1808 8.09592 38.3732C7.92529 38.5625 7.78722 38.8106 7.68174 39.1178C7.57625 39.4218 7.52351 39.7957 7.52351 40.2394V40.8071C7.52351 41.1918 7.5685 41.5254 7.65847 41.8077C7.74844 42.09 7.87719 42.3242 8.04471 42.5104C8.21535 42.6934 8.42166 42.83 8.66367 42.9199C8.90566 43.0099 9.17713 43.0549 9.47808 43.0549C9.69526 43.0549 9.88917 43.0332 10.0598 42.9898C10.2335 42.9463 10.3871 42.8905 10.5205 42.8222C10.6539 42.7508 10.7687 42.6702 10.8649 42.5802C10.9611 42.4902 11.0433 42.3972 11.1115 42.301L10.6834 41.7798C10.6152 41.8635 10.5422 41.9411 10.4647 42.0125C10.3871 42.0807 10.3018 42.1412 10.2087 42.194C10.1157 42.2436 10.0133 42.2824 9.90158 42.3103C9.78989 42.3382 9.66424 42.3522 9.52464 42.3522C9.14304 42.3522 8.84984 42.2296 8.64507 41.9845C8.44341 41.7394 8.34258 41.347 8.34258 40.8071V40.6908H11.1534V40.2115C11.1534 39.8268 11.1209 39.487 11.0557 39.1923C10.9906 38.8975 10.8866 38.6493 10.7439 38.4477C10.6012 38.246 10.4181 38.094 10.1948 37.9916C9.97137 37.8861 9.70147 37.8334 9.38499 37.8334L9.38498 37.8334ZM9.38498 38.5408C9.56492 38.5408 9.71384 38.5733 9.83175 38.6385C9.94965 38.7036 10.0427 38.7952 10.111 38.913C10.1823 39.0309 10.2335 39.1721 10.2646 39.3365C10.2987 39.4979 10.3204 39.6763 10.3297 39.8717V39.9834H8.34721C8.35962 39.7011 8.39375 39.4668 8.44959 39.2807C8.50544 39.0945 8.57835 38.9471 8.66832 38.8386C8.7614 38.7269 8.86843 38.6493 8.98943 38.6059C9.11043 38.5625 9.24228 38.5407 9.38501 38.5407L9.38498 38.5408Z" fill="#A6A6A6"/>
</g>
<path d="M3.45135 52.4802H2.05422V51.7467H3.45135C3.69465 51.7467 3.89126 51.7073 4.04117 51.6287C4.19108 51.55 4.30045 51.4419 4.36926 51.3043C4.44053 51.1642 4.47616 51.0045 4.47616 50.8251C4.47616 50.6555 4.44053 50.497 4.36926 50.3495C4.30045 50.1996 4.19108 50.0792 4.04117 49.9883C3.89126 49.8973 3.69465 49.8519 3.45135 49.8519H2.33807V54.4819H1.4128V49.1146H3.45135C3.86668 49.1146 4.21935 49.1883 4.50934 49.3358C4.80179 49.4808 5.0242 49.6823 5.17657 49.9403C5.32894 50.1959 5.40513 50.4884 5.40513 50.8177C5.40513 51.1642 5.32894 51.4616 5.17657 51.7098C5.0242 51.958 4.80179 52.1485 4.50934 52.2812C4.21935 52.4139 3.86668 52.4802 3.45135 52.4802ZM7.03818 51.2527V54.4819H6.14977V50.4933H6.99763L7.03818 51.2527ZM8.25837 50.4675L8.251 51.2932C8.19693 51.2834 8.13795 51.276 8.07405 51.2711C8.01261 51.2662 7.95117 51.2637 7.88973 51.2637C7.73736 51.2637 7.60343 51.2859 7.48792 51.3301C7.37241 51.3719 7.27534 51.4333 7.1967 51.5144C7.12051 51.5931 7.06153 51.6889 7.01975 51.8019C6.97797 51.915 6.9534 52.0416 6.94602 52.1816L6.74327 52.1964C6.74327 51.9457 6.76785 51.7135 6.817 51.4997C6.86615 51.2859 6.93988 51.0979 7.03818 50.9357C7.13894 50.7735 7.26428 50.6469 7.41419 50.556C7.56656 50.465 7.74228 50.4196 7.94134 50.4196C7.99541 50.4196 8.05316 50.4245 8.1146 50.4343C8.1785 50.4441 8.22642 50.4552 8.25837 50.4675ZM9.76609 50.4933V54.4819H8.87399V50.4933H9.76609ZM8.81501 49.4464C8.81501 49.3112 8.85925 49.1994 8.94772 49.1109C9.03865 49.02 9.16399 48.9745 9.32373 48.9745C9.48101 48.9745 9.60512 49.02 9.69605 49.1109C9.78698 49.1994 9.83245 49.3112 9.83245 49.4464C9.83245 49.5791 9.78698 49.6897 9.69605 49.7781C9.60512 49.8666 9.48101 49.9108 9.32373 49.9108C9.16399 49.9108 9.03865 49.8666 8.94772 49.7781C8.85925 49.6897 8.81501 49.5791 8.81501 49.4464ZM12.0369 53.7778L13.0138 50.4933H13.9354L12.5493 54.4819H11.9742L12.0369 53.7778ZM11.2886 50.4933L12.2839 53.7926L12.3318 54.4819H11.7567L10.3633 50.4933H11.2886ZM16.6743 53.682V51.7798C16.6743 51.6373 16.6485 51.5144 16.5969 51.4112C16.5453 51.308 16.4667 51.2281 16.361 51.1716C16.2578 51.1151 16.1275 51.0868 15.9702 51.0868C15.8252 51.0868 15.6999 51.1114 15.5942 51.1605C15.4886 51.2097 15.4062 51.276 15.3472 51.3596C15.2883 51.4431 15.2588 51.5378 15.2588 51.6434H14.374C14.374 51.4862 14.4121 51.3338 14.4883 51.1863C14.5645 51.0389 14.6751 50.9074 14.8201 50.7919C14.9651 50.6764 15.1383 50.5854 15.3399 50.5191C15.5414 50.4527 15.7675 50.4196 16.0182 50.4196C16.318 50.4196 16.5834 50.4699 16.8144 50.5707C17.0479 50.6715 17.231 50.8238 17.3637 51.0278C17.4988 51.2293 17.5664 51.4825 17.5664 51.7872V53.5603C17.5664 53.7422 17.5787 53.9056 17.6033 54.0506C17.6303 54.1932 17.6684 54.3173 17.7176 54.423V54.4819H16.807C16.7653 54.3861 16.7321 54.2644 16.7075 54.117C16.6854 53.9671 16.6743 53.8221 16.6743 53.682ZM16.8034 52.0563L16.8107 52.6056H16.173C16.0083 52.6056 15.8633 52.6215 15.738 52.6535C15.6127 52.683 15.5082 52.7272 15.4247 52.7862C15.3411 52.8452 15.2784 52.9165 15.2367 53C15.1949 53.0836 15.174 53.1782 15.174 53.2839C15.174 53.3895 15.1986 53.4866 15.2477 53.5751C15.2969 53.6611 15.3681 53.7287 15.4615 53.7778C15.5574 53.827 15.6729 53.8516 15.808 53.8516C15.9899 53.8516 16.1484 53.8147 16.2836 53.741C16.4212 53.6648 16.5293 53.5726 16.608 53.4645C16.6866 53.3539 16.7284 53.2495 16.7333 53.1512L17.0209 53.5456C16.9914 53.6464 16.941 53.7545 16.8697 53.87C16.7984 53.9855 16.7051 54.0961 16.5895 54.2018C16.4765 54.305 16.3401 54.3898 16.1804 54.4561C16.0231 54.5225 15.8412 54.5557 15.6348 54.5557C15.3743 54.5557 15.142 54.5041 14.9381 54.4008C14.7341 54.2952 14.5743 54.1538 14.4588 53.9769C14.3433 53.7975 14.2856 53.5947 14.2856 53.3687C14.2856 53.1573 14.3249 52.9705 14.4035 52.8083C14.4846 52.6437 14.6026 52.506 14.7574 52.3955C14.9147 52.2849 15.1064 52.2013 15.3325 52.1448C15.5586 52.0858 15.8166 52.0563 16.1066 52.0563H16.8034ZM20.1248 53.8479C20.2698 53.8479 20.4 53.8196 20.5155 53.7631C20.6335 53.7041 20.7281 53.623 20.7994 53.5198C20.8731 53.4166 20.9136 53.2974 20.921 53.1622H21.7578C21.7529 53.4203 21.6767 53.655 21.5293 53.8663C21.3818 54.0777 21.1864 54.246 20.9431 54.3713C20.6998 54.4942 20.4307 54.5557 20.1358 54.5557C19.8311 54.5557 19.5657 54.5041 19.3396 54.4008C19.1135 54.2952 18.9255 54.1502 18.7756 53.9658C18.6256 53.7815 18.5126 53.5689 18.4364 53.3281C18.3627 53.0873 18.3258 52.8292 18.3258 52.554V52.4249C18.3258 52.1497 18.3627 51.8917 18.4364 51.6508C18.5126 51.4075 18.6256 51.1937 18.7756 51.0094C18.9255 50.8251 19.1135 50.6813 19.3396 50.5781C19.5657 50.4724 19.8299 50.4196 20.1321 50.4196C20.4516 50.4196 20.7318 50.4835 20.9726 50.6113C21.2135 50.7366 21.4027 50.9123 21.5403 51.1384C21.6804 51.362 21.7529 51.6225 21.7578 51.9199H20.921C20.9136 51.7725 20.8768 51.6397 20.8104 51.5218C20.7465 51.4014 20.6556 51.3055 20.5376 51.2342C20.4221 51.163 20.2833 51.1273 20.1211 51.1273C19.9417 51.1273 19.793 51.1642 19.675 51.2379C19.5571 51.3092 19.4649 51.4075 19.3986 51.5328C19.3322 51.6557 19.2843 51.7946 19.2548 51.9494C19.2278 52.1018 19.2142 52.2603 19.2142 52.4249V52.554C19.2142 52.7186 19.2278 52.8784 19.2548 53.0332C19.2818 53.188 19.3285 53.3269 19.3949 53.4498C19.4637 53.5702 19.5571 53.6672 19.675 53.741C19.793 53.8122 19.9429 53.8479 20.1248 53.8479ZM23.5973 54.0469L24.6811 50.4933H25.6322L24.0323 55.0902C23.9954 55.1885 23.9475 55.2954 23.8885 55.4109C23.8296 55.5264 23.7521 55.6358 23.6563 55.739C23.5629 55.8447 23.4462 55.9294 23.3061 55.9933C23.166 56.0597 22.9964 56.0929 22.7974 56.0929C22.7187 56.0929 22.6426 56.0855 22.5688 56.0708C22.4976 56.0585 22.43 56.045 22.3661 56.0302L22.3624 55.3519C22.387 55.3544 22.4165 55.3568 22.4509 55.3593C22.4877 55.3617 22.5172 55.363 22.5393 55.363C22.6868 55.363 22.8097 55.3445 22.908 55.3077C23.0063 55.2733 23.0861 55.2167 23.1476 55.1381C23.2115 55.0595 23.2655 54.9538 23.3098 54.8211L23.5973 54.0469ZM22.9854 50.4933L23.9328 53.4792L24.0913 54.4156L23.4757 54.5741L22.0269 50.4933H22.9854ZM29.8088 51.8351V52.5429H27.8588V51.8351H29.8088ZM34.5864 49.1146V54.4819H33.6685V49.1146H34.5864ZM36.271 49.1146V49.8519H31.9985V49.1146H36.271ZM38.2948 54.5557C37.9999 54.5557 37.7333 54.5077 37.4949 54.4119C37.259 54.3136 37.0575 54.1772 36.8903 54.0027C36.7257 53.8282 36.5991 53.623 36.5106 53.3871C36.4222 53.1512 36.3779 52.8968 36.3779 52.624V52.4766C36.3779 52.1644 36.4234 51.8818 36.5143 51.6287C36.6053 51.3756 36.7318 51.1593 36.894 50.9799C37.0562 50.798 37.2479 50.6592 37.4691 50.5633C37.6903 50.4675 37.9299 50.4196 38.1879 50.4196C38.473 50.4196 38.7225 50.4675 38.9363 50.5633C39.1501 50.6592 39.327 50.7943 39.4671 50.9688C39.6096 51.1409 39.7153 51.3461 39.7841 51.5845C39.8554 51.8228 39.891 52.0858 39.891 52.3733V52.753H36.8092V52.1153H39.0137V52.0452C39.0088 51.8855 38.9768 51.7356 38.9178 51.5955C38.8613 51.4554 38.7741 51.3424 38.6561 51.2564C38.5381 51.1704 38.3809 51.1273 38.1843 51.1273C38.0368 51.1273 37.9053 51.1593 37.7898 51.2232C37.6768 51.2846 37.5821 51.3743 37.506 51.4923C37.4298 51.6103 37.3708 51.7528 37.329 51.9199C37.2897 52.0846 37.27 52.2701 37.27 52.4766V52.624C37.27 52.7985 37.2934 52.9607 37.3401 53.1106C37.3892 53.2581 37.4605 53.3871 37.5539 53.4977C37.6473 53.6083 37.7603 53.6955 37.893 53.7594C38.0257 53.8208 38.1769 53.8516 38.3465 53.8516C38.5603 53.8516 38.7507 53.8086 38.9178 53.7225C39.085 53.6365 39.23 53.5149 39.3528 53.3576L39.821 53.811C39.735 53.9364 39.6232 54.0568 39.4855 54.1723C39.3479 54.2853 39.1796 54.3775 38.9805 54.4488C38.7839 54.52 38.5553 54.5557 38.2948 54.5557ZM41.4762 51.2527V54.4819H40.5878V50.4933H41.4356L41.4762 51.2527ZM42.6964 50.4675L42.689 51.2932C42.6349 51.2834 42.5759 51.276 42.512 51.2711C42.4506 51.2662 42.3892 51.2637 42.3277 51.2637C42.1754 51.2637 42.0414 51.2859 41.9259 51.3301C41.8104 51.3719 41.7133 51.4333 41.6347 51.5144C41.5585 51.5931 41.4995 51.6889 41.4577 51.8019C41.416 51.915 41.3914 52.0416 41.384 52.1816L41.1813 52.1964C41.1813 51.9457 41.2058 51.7135 41.255 51.4997C41.3041 51.2859 41.3779 51.0979 41.4762 50.9357C41.5769 50.7735 41.7023 50.6469 41.8522 50.556C42.0046 50.465 42.1803 50.4196 42.3793 50.4196C42.4334 50.4196 42.4912 50.4245 42.5526 50.4343C42.6165 50.4441 42.6644 50.4552 42.6964 50.4675ZM44.1414 51.3043V54.4819H43.253V50.4933H44.0898L44.1414 51.3043ZM43.9976 52.3402L43.6954 52.3365C43.6954 52.0612 43.7298 51.8069 43.7986 51.5734C43.8674 51.3399 43.9682 51.1372 44.1009 50.9651C44.2336 50.7907 44.3982 50.6567 44.5948 50.5633C44.7939 50.4675 45.0237 50.4196 45.2842 50.4196C45.466 50.4196 45.6319 50.4466 45.7818 50.5007C45.9342 50.5523 46.0657 50.6346 46.1763 50.7476C46.2893 50.8607 46.3753 51.0057 46.4343 51.1826C46.4958 51.3596 46.5265 51.5734 46.5265 51.8241V54.4819H45.6381V51.9015C45.6381 51.7073 45.6086 51.555 45.5496 51.4444C45.4931 51.3338 45.4108 51.2551 45.3026 51.2084C45.1969 51.1593 45.0704 51.1347 44.9229 51.1347C44.7558 51.1347 44.6133 51.1667 44.4953 51.2306C44.3798 51.2945 44.2852 51.3817 44.2115 51.4923C44.1377 51.6029 44.0837 51.7307 44.0493 51.8757C44.0148 52.0207 43.9976 52.1755 43.9976 52.3402ZM46.4712 52.1042L46.0546 52.1964C46.0546 51.9555 46.0878 51.7282 46.1542 51.5144C46.223 51.2981 46.3225 51.1089 46.4528 50.9467C46.5855 50.7821 46.7489 50.653 46.943 50.5596C47.1372 50.4663 47.3596 50.4196 47.6103 50.4196C47.8143 50.4196 47.9961 50.4478 48.1559 50.5043C48.3181 50.5584 48.4557 50.6444 48.5687 50.7624C48.6818 50.8804 48.7678 51.034 48.8268 51.2232C48.8858 51.41 48.9153 51.6361 48.9153 51.9015V54.4819H48.0232V51.8978C48.0232 51.6963 47.9937 51.5402 47.9347 51.4296C47.8782 51.319 47.7971 51.2429 47.6914 51.2011C47.5857 51.1568 47.4591 51.1347 47.3117 51.1347C47.1741 51.1347 47.0524 51.1605 46.9467 51.2121C46.8435 51.2613 46.7563 51.3313 46.685 51.4223C46.6137 51.5107 46.5597 51.6127 46.5228 51.7282C46.4884 51.8437 46.4712 51.9691 46.4712 52.1042ZM52.0671 53.4018C52.0671 53.3134 52.045 53.2335 52.0007 53.1622C51.9565 53.0885 51.8717 53.0221 51.7464 52.9632C51.6235 52.9042 51.4416 52.8501 51.2008 52.801C50.9894 52.7543 50.7953 52.699 50.6184 52.6351C50.4439 52.5687 50.294 52.4888 50.1686 52.3955C50.0433 52.3021 49.9462 52.1915 49.8774 52.0637C49.8086 51.9359 49.7742 51.7884 49.7742 51.6213C49.7742 51.4591 49.8098 51.3055 49.8811 51.1605C49.9523 51.0155 50.0543 50.8877 50.187 50.7771C50.3198 50.6665 50.4807 50.5793 50.67 50.5154C50.8617 50.4515 51.0755 50.4196 51.3114 50.4196C51.6456 50.4196 51.9319 50.4761 52.1703 50.5891C52.4112 50.6997 52.5955 50.8509 52.7233 51.0426C52.8511 51.2318 52.915 51.4456 52.915 51.684H52.0265C52.0265 51.5783 51.9995 51.48 51.9454 51.3891C51.8938 51.2957 51.8152 51.2207 51.7095 51.1642C51.6038 51.1052 51.4711 51.0757 51.3114 51.0757C51.159 51.0757 51.0325 51.1003 50.9317 51.1495C50.8334 51.1962 50.7597 51.2576 50.7105 51.3338C50.6638 51.41 50.6405 51.4935 50.6405 51.5845C50.6405 51.6508 50.6528 51.711 50.6773 51.7651C50.7044 51.8167 50.7486 51.8646 50.81 51.9089C50.8715 51.9506 50.955 51.99 51.0607 52.0268C51.1688 52.0637 51.304 52.0993 51.4662 52.1337C51.771 52.1976 52.0327 52.2799 52.2514 52.3807C52.4726 52.479 52.6422 52.6068 52.7601 52.7641C52.8781 52.9189 52.9371 53.1155 52.9371 53.3539C52.9371 53.5309 52.899 53.6931 52.8228 53.8405C52.7491 53.9855 52.6409 54.1121 52.4984 54.2202C52.3559 54.3259 52.1851 54.4082 51.986 54.4672C51.7894 54.5262 51.5682 54.5557 51.3224 54.5557C50.9612 54.5557 50.6552 54.4918 50.4045 54.364C50.1539 54.2337 49.9634 54.0678 49.8332 53.8663C49.7054 53.6623 49.6415 53.451 49.6415 53.2323H50.5004C50.5102 53.3969 50.5557 53.5284 50.6368 53.6267C50.7203 53.7225 50.8236 53.7926 50.9464 53.8368C51.0718 53.8786 51.2008 53.8995 51.3335 53.8995C51.4932 53.8995 51.6272 53.8786 51.7353 53.8368C51.8435 53.7926 51.9258 53.7336 51.9823 53.6599C52.0388 53.5837 52.0671 53.4977 52.0671 53.4018Z" fill="#A6A6A6"/>
<defs>
<clipPath id="clip0_2_20411">
<rect width="45.298" height="43.4106" fill="white" transform="translate(4.41309 0.296387)"/>
</clipPath>
</defs>
</svg>
