<svg width="24" height="24" viewBox="0 0 24 24" fill="none" xmlns="http://www.w3.org/2000/svg">
<circle cx="12" cy="12" r="12" fill="#FEEED7"/>
<path d="M12 4.5C10.5166 4.5 9.06659 4.93987 7.83323 5.76398C6.59986 6.58809 5.63856 7.75943 5.07091 9.12987C4.50325 10.5003 4.35472 12.0083 4.64411 13.4632C4.9335 14.918 5.64781 16.2544 6.6967 17.3033C7.7456 18.3522 9.08197 19.0665 10.5368 19.3559C11.9917 19.6453 13.4997 19.4967 14.8701 18.9291C16.2406 18.3614 17.4119 17.4001 18.236 16.1668C19.0601 14.9334 19.5 13.4834 19.5 12C19.4962 10.012 18.7048 8.10661 17.2991 6.70091C15.8934 5.29521 13.988 4.50381 12 4.5ZM11.4231 8.53846C11.4231 8.38545 11.4839 8.23871 11.5921 8.13051C11.7002 8.02232 11.847 7.96154 12 7.96154C12.153 7.96154 12.2998 8.02232 12.4079 8.13051C12.5161 8.23871 12.5769 8.38545 12.5769 8.53846V12.5769C12.5769 12.7299 12.5161 12.8767 12.4079 12.9849C12.2998 13.0931 12.153 13.1538 12 13.1538C11.847 13.1538 11.7002 13.0931 11.5921 12.9849C11.4839 12.8767 11.4231 12.7299 11.4231 12.5769V8.53846ZM12 16.0385C11.8288 16.0385 11.6615 15.9877 11.5192 15.8926C11.3769 15.7975 11.266 15.6624 11.2005 15.5042C11.135 15.3461 11.1179 15.1721 11.1512 15.0042C11.1846 14.8364 11.2671 14.6822 11.3881 14.5612C11.5091 14.4401 11.6633 14.3577 11.8312 14.3243C11.999 14.2909 12.173 14.3081 12.3312 14.3736C12.4893 14.4391 12.6245 14.55 12.7195 14.6923C12.8146 14.8346 12.8654 15.0019 12.8654 15.1731C12.8654 15.4026 12.7742 15.6227 12.6119 15.785C12.4496 15.9473 12.2295 16.0385 12 16.0385Z" fill="#F4A814"/>
</svg>
