<svg width="24" height="24" viewBox="0 0 24 24" fill="none" xmlns="http://www.w3.org/2000/svg">
<path d="M4.48199 4.76829L4.48207 4.76821L7.18869 1.98907C7.23074 1.94527 7.28108 1.91028 7.33688 1.88632C7.39285 1.86229 7.45308 1.8499 7.51401 1.85M4.48199 4.76829L7.51388 2M4.48199 4.76829C4.39725 4.85542 4.35023 4.97264 4.35 5.09412V5.09441L4.35 21.0663L4.35 21.0666C4.35055 21.3525 4.46137 21.6273 4.65941 21.8306C4.85758 22.0341 5.12705 22.1494 5.40905 22.15H5.40936H18.5906H18.5909C18.873 22.1494 19.1424 22.0341 19.3406 21.8306C19.5386 21.6273 19.6495 21.3525 19.65 21.0666V21.0663V2.93418C19.65 2.79235 19.6227 2.65184 19.5696 2.52068C19.5167 2.3898 19.4389 2.27001 19.3405 2.16929M4.48199 4.76829L18.5906 1.85M7.51401 1.85C7.51406 1.85 7.51411 1.85 7.51417 1.85L7.51388 2M7.51401 1.85H7.51388V2M7.51401 1.85L18.5906 1.85L18.5906 2M7.51388 2H18.5906M18.5906 2V1.85M18.5906 2V1.85M18.5906 1.85C18.7303 1.84995 18.8685 1.87825 18.9973 1.93316C19.126 1.98803 19.2425 2.06835 19.3405 2.16929M19.3405 2.16929C19.3404 2.16921 19.3403 2.16913 19.3402 2.16905L19.233 2.27394L19.3407 2.16953C19.3406 2.16945 19.3405 2.16937 19.3405 2.16929ZM7.96849 2.7767L18.5898 2.77715C18.5899 2.77715 18.5901 2.77715 18.5902 2.77716C18.6284 2.77745 18.6658 2.79314 18.694 2.82218C18.7225 2.85138 18.7392 2.89172 18.7394 2.93464C18.7394 2.9347 18.7394 2.93477 18.7394 2.93483V21.0656C18.7394 21.0657 18.7394 21.0658 18.7394 21.0658C18.7392 21.1087 18.7225 21.1491 18.694 21.1783C18.6658 21.2073 18.6284 21.223 18.5901 21.2233C18.59 21.2233 18.5899 21.2233 18.5898 21.2233L5.40926 21.2233C5.40941 21.2233 5.40956 21.2233 5.40971 21.2233L7.96849 2.7767ZM7.96849 2.7767V4.47415V4.47433C7.96814 4.76026 7.85732 5.03513 7.65914 5.23837C7.46083 5.44174 7.19116 5.55672 6.90913 5.55672H5.25989V21.0658L7.96849 2.7767ZM14.2798 10.9857L14.2798 10.9857C14.2747 11.2134 14.1433 11.399 13.952 11.5399C13.7618 11.68 13.4989 11.7872 13.1901 11.8634L13.1867 11.8643L13.1867 11.8642C12.5652 12.0023 11.9305 12.0682 11.2945 12.0606C10.6587 12.0682 10.024 12.0023 9.40256 11.8642L9.39909 11.8635L9.3991 11.8634C9.09037 11.7871 8.82741 11.6798 8.63717 11.5397C8.44589 11.3989 8.31438 11.2133 8.3093 10.9857L8.30923 10.9824H8.30927V9.25332L7.13687 8.89524C7.13679 8.89521 7.13671 8.89519 7.13663 8.89516C7.04151 8.86643 6.95881 8.80699 6.90048 8.72662C6.84214 8.64626 6.81114 8.5491 6.81154 8.44981C6.81195 8.35051 6.84375 8.25362 6.90276 8.17374C6.96161 8.09407 7.04453 8.03544 7.13958 8.00743L11.1641 6.77785C11.1642 6.77782 11.1643 6.77779 11.1644 6.77776L11.1645 6.77772L11.2084 6.92118C11.2654 6.90357 11.3262 6.90357 11.3832 6.92118L14.2798 10.9857ZM14.2798 10.9857V10.9824V10.9723V10.9723L14.2802 9.25302L15.4481 8.89537C15.4484 8.89527 15.4487 8.89517 15.4491 8.89507C15.5441 8.86706 15.627 8.80843 15.6859 8.72878C15.7449 8.6489 15.7767 8.55201 15.7771 8.45271C15.7775 8.35341 15.7465 8.25626 15.6882 8.17589C15.6298 8.09554 15.5472 8.03611 15.4521 8.00737C15.452 8.00734 15.4519 8.00731 15.4518 8.00728L11.4274 6.77785C11.4273 6.77782 11.4272 6.77779 11.4271 6.77776L14.2798 10.9857ZM7.26127 18.7577L7.26127 18.7578H7.26544H16.7324C16.793 18.7591 16.8532 18.7482 16.9095 18.7256C16.9665 18.7028 17.0181 18.6685 17.0616 18.6251C17.105 18.5818 17.1392 18.5301 17.1626 18.4734C17.1859 18.4166 17.1979 18.3558 17.1979 18.2944C17.1979 18.233 17.1859 18.1722 17.1626 18.1155C17.1392 18.0587 17.105 18.0071 17.0616 17.9637C17.0181 17.9203 16.9665 17.8861 16.9095 17.8632C16.8532 17.8406 16.793 17.8297 16.7324 17.8311H7.26544V17.831L7.26127 17.8311C7.14145 17.8345 7.02845 17.8857 6.94607 17.9726C6.86381 18.0594 6.81843 18.1749 6.81843 18.2944C6.81843 18.4139 6.86381 18.5295 6.94607 18.6162C7.02845 18.7031 7.14145 18.7544 7.26127 18.7577ZM13.1786 8.27987L13.1787 8.27988L13.7417 8.45182L11.2941 9.20032L8.84642 8.45179L11.2941 7.70403L13.1786 8.27987ZM11.4245 10.1244L13.3695 9.53019V10.8632C13.242 10.9026 13.1129 10.9361 12.9825 10.9633L12.9812 10.9636C12.4275 11.0847 11.8624 11.1417 11.2965 11.1335L11.2965 11.1334L11.2921 11.1335C10.7262 11.1416 10.1611 11.0847 9.60746 10.9636L9.60615 10.9634C9.47579 10.9361 9.34673 10.9027 9.21938 10.8632V9.53155L11.1605 10.1244C11.1606 10.1244 11.1607 10.1244 11.1608 10.1245C11.2467 10.151 11.3383 10.151 11.4242 10.1245C11.4243 10.1244 11.4244 10.1244 11.4245 10.1244ZM6.94212 16.2016C7.02717 16.2889 7.1434 16.3388 7.26544 16.3388H16.7343C16.8564 16.3388 16.9726 16.2889 17.0577 16.2016C17.1426 16.1144 17.1896 15.997 17.1896 15.8753C17.1896 15.7536 17.1426 15.6362 17.0577 15.549C16.9726 15.4617 16.8564 15.4118 16.7343 15.4118H7.26544C7.1434 15.4118 7.02717 15.4617 6.94212 15.549C6.85719 15.6362 6.81016 15.7536 6.81016 15.8753C6.81016 15.997 6.85719 16.1144 6.94212 16.2016ZM6.90858 4.63324L5.89574 4.63375L7.05882 3.43967V4.47426C7.05827 4.51738 7.04136 4.55785 7.01282 4.58727C6.98447 4.61648 6.94701 4.6325 6.90858 4.63324Z" fill="#9F9D9B" stroke="#9F9D9B" stroke-width="0.3"/>
</svg>
