<svg width="12" height="12" viewBox="0 0 12 12" fill="none" xmlns="http://www.w3.org/2000/svg">
<path d="M4.77694 10.8778C4.53484 10.5061 4.31945 10.102 4.13079 9.6656C3.94212 9.22916 3.79029 8.78057 3.67531 8.31983H1.53277C1.87043 8.97976 2.31376 9.52976 2.86275 9.96985C3.41175 10.4099 4.04982 10.7126 4.77694 10.8778ZM1.13561 7.37249H3.4834C3.44373 7.13767 3.41499 6.9075 3.39718 6.682C3.37937 6.45648 3.37046 6.22915 3.37046 6C3.37046 5.77085 3.37937 5.54352 3.39718 5.318C3.41499 5.0925 3.44373 4.86233 3.4834 4.62751H1.13561C1.07489 4.84209 1.02833 5.06517 0.995939 5.29675C0.96355 5.52833 0.947355 5.76275 0.947355 6C0.947355 6.23725 0.96355 6.47167 0.995939 6.70325C1.02833 6.93483 1.07489 7.15791 1.13561 7.37249ZM1.53277 3.68017H3.67531C3.78219 3.21539 3.93199 2.76174 4.12471 2.31923C4.31743 1.87671 4.53484 1.47771 4.77694 1.12224C4.07006 1.27932 3.43604 1.58095 2.87489 2.02711C2.31375 2.47326 1.86638 3.02429 1.53277 3.68017ZM4.64816 3.68017H7.35183C7.21337 3.16438 7.03402 2.68908 6.81378 2.25425C6.59353 1.81943 6.32227 1.38825 6 0.960714C5.67772 1.37205 5.40849 1.79513 5.1923 2.22995C4.9761 2.66478 4.79472 3.14818 4.64816 3.68017ZM8.32469 3.68017H10.4672C10.1336 3.02429 9.68625 2.47225 9.12511 2.02407C8.56396 1.57589 7.92994 1.27528 7.22306 1.12224C7.44492 1.47366 7.65221 1.87063 7.84492 2.31315C8.03764 2.75567 8.19756 3.21134 8.32469 3.68017ZM6 12C5.17732 12 4.40101 11.8423 3.67106 11.5269C2.9411 11.2115 2.30446 10.7822 1.76113 10.2389C1.21781 9.69554 0.788465 9.0589 0.473085 8.32894C0.157695 7.59899 0 6.82268 0 6C0 5.17085 0.157695 4.39292 0.473085 3.6662C0.788465 2.93948 1.21781 2.30446 1.76113 1.76113C2.30446 1.21781 2.9411 0.788466 3.67106 0.473086C4.40101 0.157696 5.17732 0 6 0C6.82915 0 7.60708 0.157696 8.3338 0.473086C9.06052 0.788466 9.69554 1.21781 10.2389 1.76113C10.7822 2.30446 11.2115 2.93948 11.5269 3.6662C11.8423 4.39292 12 5.17085 12 6C12 6.10932 11.9974 6.22065 11.9921 6.33401C11.9832 6.52583 11.8189 6.66802 11.6269 6.66802H11.3313C11.159 6.66802 11.0303 6.51076 11.0417 6.33887C11.049 6.22875 11.0526 6.11579 11.0526 6C11.0526 5.76275 11.0365 5.52833 11.0041 5.29675C10.9717 5.06517 10.9251 4.84209 10.8644 4.62751H8.5166C8.55627 4.86233 8.58501 5.0925 8.60282 5.318C8.62063 5.54352 8.62954 5.77085 8.62954 6C8.62954 6.11579 8.62853 6.22773 8.62651 6.33583C8.62449 6.44393 8.61821 6.55466 8.60769 6.66802H7.66033C7.67086 6.55871 7.67714 6.44899 7.67917 6.33887C7.68119 6.22875 7.6822 6.11579 7.6822 6C7.6822 5.76275 7.67329 5.53339 7.65548 5.31194C7.63766 5.09048 7.60891 4.86233 7.56924 4.62751H4.43076C4.39108 4.86233 4.36234 5.09048 4.34452 5.31194C4.32671 5.53339 4.3178 5.76275 4.3178 6C4.3178 6.23725 4.32671 6.46661 4.34452 6.68806C4.36234 6.90952 4.39108 7.13767 4.43076 7.37249H6.66802V8.31983H4.64816C4.79472 8.84776 4.97914 9.33421 5.20141 9.77916C5.42368 10.2241 5.68987 10.6441 6 11.0393C6.12388 10.8749 6.24048 10.7069 6.3498 10.5352C6.44005 10.3935 6.66802 10.4561 6.66802 10.6241V11.9623C6.55871 11.9769 6.44899 11.9868 6.33887 11.9921C6.22875 11.9974 6.11579 12 6 12ZM11.3547 11.3547C11.1711 11.5427 10.8692 11.5445 10.6834 11.3587L8.99999 9.67528V10.8316C8.99999 11.0932 8.78792 11.3053 8.52632 11.3053C8.26472 11.3053 8.05265 11.0932 8.05265 10.8316V8.34834C8.05265 8.18504 8.18504 8.05265 8.34834 8.05265H10.8316C11.0932 8.05265 11.3053 8.26472 11.3053 8.52632C11.3053 8.78792 11.0932 8.99999 10.8316 8.99999H9.65949L11.3508 10.6913C11.5335 10.874 11.5353 11.1698 11.3547 11.3547Z" fill="#9F9D9B"/>
</svg>
