<svg width="19" height="18" viewBox="0 0 19 18" fill="none" xmlns="http://www.w3.org/2000/svg">
<path d="M4.5364 17.6H14.4636C16.4529 17.6 18.1 16.1452 18.1 14.3435V5.34748C18.1 3.54579 16.4529 2.09098 14.4636 2.09098H13.9068V0.950928C13.9068 0.637306 13.6237 0.4 13.3016 0.4C12.9795 0.4 12.6964 0.637306 12.6964 0.950928V2.09098H6.30357V0.950928C6.30357 0.637306 6.02047 0.4 5.69837 0.4C5.37627 0.4 5.09317 0.637306 5.09317 0.950928V2.09098H4.5364C2.54714 2.09098 0.9 3.54579 0.9 5.34748V14.321C0.9 16.1448 2.54666 17.6 4.5364 17.6ZM4.5364 3.19284H5.09317V4.78382C5.09317 5.09744 5.37627 5.33475 5.69837 5.33475C6.02047 5.33475 6.30357 5.09744 6.30357 4.78382V3.19284H12.7217V4.78382C12.7217 5.09744 13.0048 5.33475 13.3269 5.33475C13.649 5.33475 13.9321 5.09744 13.9321 4.78382V3.19284H14.4889C15.8339 3.19284 16.9149 4.17304 16.9149 5.34748V7.07374H2.1104V5.34748C2.1104 4.17304 3.19134 3.19284 4.5364 3.19284ZM2.1104 8.1756H16.8896V14.321C16.8896 15.4954 15.8087 16.4756 14.4636 16.4756H4.5364C3.19134 16.4756 2.1104 15.4954 2.1104 14.321V8.1756Z" fill="#9F9D9B" stroke="#9F9D9B" stroke-width="0.2"/>
</svg>
